G04 EAGLE Gerber RS-274X export*
G75*
%MOMM*%
%FSLAX34Y34*%
%LPD*%
%INBottom Copper*%
%IPPOS*%
%AMOC8*
5,1,8,0,0,1.08239X$1,22.5*%
G01*
%ADD10C,2.540000*%
%ADD11P,2.749271X8X202.500000*%
%ADD12P,2.749271X8X22.500000*%
%ADD13C,1.050000*%
%ADD14C,1.650000*%
%ADD15C,1.800000*%
%ADD16P,1.649562X8X112.500000*%
%ADD17C,0.975000*%
%ADD18C,2.100000*%
%ADD19C,1.450000*%
%ADD20C,0.654000*%
%ADD21C,0.812800*%
%ADD22C,0.604000*%
%ADD23C,0.406400*%
%ADD24C,0.304800*%

G36*
X306762Y3812D02*
X306762Y3812D01*
X306771Y3811D01*
X306962Y3832D01*
X307154Y3851D01*
X307162Y3853D01*
X307171Y3854D01*
X307355Y3912D01*
X307539Y3969D01*
X307546Y3973D01*
X307555Y3976D01*
X307723Y4069D01*
X307893Y4161D01*
X307899Y4166D01*
X307907Y4171D01*
X308054Y4295D01*
X308202Y4418D01*
X308207Y4425D01*
X308214Y4431D01*
X308334Y4583D01*
X308454Y4732D01*
X308458Y4740D01*
X308464Y4747D01*
X308552Y4920D01*
X308640Y5089D01*
X308642Y5098D01*
X308646Y5106D01*
X308698Y5291D01*
X308751Y5476D01*
X308752Y5485D01*
X308754Y5494D01*
X308768Y5686D01*
X308784Y5878D01*
X308783Y5886D01*
X308784Y5895D01*
X308759Y6088D01*
X308737Y6277D01*
X308734Y6286D01*
X308733Y6295D01*
X308672Y6478D01*
X308612Y6660D01*
X308608Y6668D01*
X308605Y6677D01*
X308508Y6844D01*
X308414Y7011D01*
X308408Y7018D01*
X308404Y7025D01*
X308189Y7278D01*
X308019Y7448D01*
X307021Y8822D01*
X306250Y10336D01*
X305797Y11729D01*
X315532Y11729D01*
X315550Y11730D01*
X315567Y11729D01*
X315750Y11750D01*
X315932Y11769D01*
X315949Y11774D01*
X315967Y11776D01*
X316142Y11833D01*
X316242Y11864D01*
X316249Y11860D01*
X316427Y11812D01*
X316602Y11762D01*
X316620Y11760D01*
X316637Y11756D01*
X316968Y11729D01*
X326703Y11729D01*
X326250Y10336D01*
X325479Y8822D01*
X324481Y7448D01*
X324311Y7278D01*
X324305Y7271D01*
X324298Y7266D01*
X324177Y7115D01*
X324056Y6967D01*
X324051Y6959D01*
X324046Y6952D01*
X323958Y6782D01*
X323867Y6611D01*
X323864Y6603D01*
X323860Y6595D01*
X323807Y6410D01*
X323752Y6225D01*
X323751Y6216D01*
X323749Y6208D01*
X323733Y6014D01*
X323716Y5824D01*
X323717Y5815D01*
X323716Y5806D01*
X323738Y5616D01*
X323759Y5424D01*
X323762Y5416D01*
X323763Y5407D01*
X323823Y5223D01*
X323881Y5040D01*
X323885Y5032D01*
X323888Y5024D01*
X323983Y4855D01*
X324075Y4688D01*
X324081Y4681D01*
X324086Y4673D01*
X324212Y4527D01*
X324336Y4381D01*
X324343Y4375D01*
X324349Y4368D01*
X324500Y4251D01*
X324652Y4131D01*
X324660Y4127D01*
X324667Y4122D01*
X324839Y4036D01*
X325011Y3949D01*
X325019Y3946D01*
X325027Y3942D01*
X325214Y3892D01*
X325399Y3841D01*
X325408Y3840D01*
X325416Y3838D01*
X325747Y3811D01*
X371749Y3811D01*
X371799Y3816D01*
X371851Y3813D01*
X371999Y3836D01*
X372149Y3851D01*
X372198Y3866D01*
X372249Y3873D01*
X372390Y3925D01*
X372534Y3969D01*
X372579Y3993D01*
X372627Y4011D01*
X372756Y4089D01*
X372888Y4161D01*
X372927Y4193D01*
X372971Y4220D01*
X373082Y4322D01*
X373197Y4418D01*
X373229Y4458D01*
X373267Y4493D01*
X373355Y4615D01*
X373450Y4732D01*
X373473Y4777D01*
X373503Y4819D01*
X373566Y4956D01*
X373635Y5089D01*
X373649Y5138D01*
X373671Y5185D01*
X373705Y5332D01*
X373747Y5476D01*
X373751Y5527D01*
X373762Y5577D01*
X373767Y5728D01*
X373780Y5878D01*
X373774Y5928D01*
X373775Y5979D01*
X373750Y6128D01*
X373733Y6277D01*
X373717Y6326D01*
X373708Y6376D01*
X373654Y6517D01*
X373608Y6660D01*
X373583Y6705D01*
X373564Y6752D01*
X373444Y6950D01*
X373410Y7011D01*
X373401Y7021D01*
X373392Y7036D01*
X372379Y8430D01*
X371555Y10048D01*
X371090Y11479D01*
X381282Y11479D01*
X381300Y11480D01*
X381317Y11479D01*
X381500Y11500D01*
X381682Y11519D01*
X381699Y11524D01*
X381717Y11526D01*
X381892Y11583D01*
X382067Y11637D01*
X382083Y11645D01*
X382100Y11651D01*
X382249Y11735D01*
X382303Y11708D01*
X382466Y11623D01*
X382483Y11618D01*
X382499Y11610D01*
X382677Y11562D01*
X382852Y11512D01*
X382870Y11510D01*
X382887Y11506D01*
X383218Y11479D01*
X393410Y11479D01*
X392945Y10048D01*
X392121Y8430D01*
X391108Y7036D01*
X391082Y6992D01*
X391050Y6952D01*
X390981Y6819D01*
X390905Y6688D01*
X390888Y6640D01*
X390865Y6595D01*
X390823Y6450D01*
X390774Y6308D01*
X390768Y6257D01*
X390753Y6208D01*
X390741Y6058D01*
X390721Y5908D01*
X390725Y5857D01*
X390720Y5806D01*
X390738Y5657D01*
X390748Y5507D01*
X390761Y5457D01*
X390767Y5407D01*
X390814Y5263D01*
X390854Y5118D01*
X390876Y5072D01*
X390892Y5024D01*
X390966Y4893D01*
X391034Y4758D01*
X391065Y4718D01*
X391090Y4673D01*
X391189Y4559D01*
X391281Y4441D01*
X391320Y4407D01*
X391353Y4368D01*
X391472Y4276D01*
X391586Y4178D01*
X391631Y4153D01*
X391671Y4122D01*
X391806Y4055D01*
X391937Y3981D01*
X391986Y3965D01*
X392032Y3942D01*
X392177Y3903D01*
X392321Y3857D01*
X392371Y3851D01*
X392421Y3838D01*
X392651Y3819D01*
X392721Y3811D01*
X392734Y3812D01*
X392751Y3811D01*
X889308Y3811D01*
X889326Y3813D01*
X889344Y3811D01*
X889526Y3832D01*
X889709Y3851D01*
X889726Y3856D01*
X889743Y3858D01*
X889918Y3915D01*
X890094Y3969D01*
X890109Y3977D01*
X890126Y3983D01*
X890286Y4073D01*
X890448Y4161D01*
X890461Y4172D01*
X890477Y4181D01*
X890616Y4301D01*
X890757Y4418D01*
X890768Y4432D01*
X890782Y4444D01*
X890894Y4589D01*
X891009Y4732D01*
X891017Y4748D01*
X891028Y4762D01*
X891110Y4927D01*
X891195Y5089D01*
X891200Y5106D01*
X891208Y5122D01*
X891255Y5301D01*
X891306Y5476D01*
X891308Y5494D01*
X891312Y5511D01*
X891339Y5842D01*
X891339Y765558D01*
X891339Y765563D01*
X891339Y765565D01*
X891338Y765577D01*
X891339Y765594D01*
X891318Y765776D01*
X891299Y765959D01*
X891294Y765976D01*
X891292Y765993D01*
X891235Y766168D01*
X891181Y766344D01*
X891173Y766359D01*
X891167Y766376D01*
X891077Y766536D01*
X890989Y766698D01*
X890978Y766711D01*
X890969Y766727D01*
X890849Y766866D01*
X890732Y767007D01*
X890718Y767018D01*
X890706Y767032D01*
X890561Y767144D01*
X890418Y767259D01*
X890402Y767267D01*
X890388Y767278D01*
X890223Y767360D01*
X890061Y767445D01*
X890044Y767450D01*
X890028Y767458D01*
X889849Y767505D01*
X889674Y767556D01*
X889656Y767558D01*
X889639Y767562D01*
X889308Y767589D01*
X5842Y767589D01*
X5824Y767587D01*
X5806Y767589D01*
X5624Y767568D01*
X5441Y767549D01*
X5424Y767544D01*
X5407Y767542D01*
X5232Y767485D01*
X5056Y767431D01*
X5041Y767423D01*
X5024Y767417D01*
X4864Y767327D01*
X4702Y767239D01*
X4689Y767228D01*
X4673Y767219D01*
X4534Y767099D01*
X4393Y766982D01*
X4382Y766968D01*
X4368Y766956D01*
X4256Y766811D01*
X4141Y766668D01*
X4133Y766652D01*
X4122Y766638D01*
X4040Y766473D01*
X3955Y766311D01*
X3950Y766294D01*
X3942Y766278D01*
X3895Y766099D01*
X3844Y765924D01*
X3842Y765906D01*
X3838Y765889D01*
X3811Y765558D01*
X3811Y5842D01*
X3813Y5824D01*
X3811Y5806D01*
X3832Y5624D01*
X3851Y5441D01*
X3856Y5424D01*
X3858Y5407D01*
X3915Y5232D01*
X3969Y5056D01*
X3977Y5041D01*
X3983Y5024D01*
X4073Y4864D01*
X4161Y4702D01*
X4172Y4689D01*
X4181Y4673D01*
X4301Y4534D01*
X4418Y4393D01*
X4432Y4382D01*
X4444Y4368D01*
X4589Y4256D01*
X4732Y4141D01*
X4748Y4133D01*
X4762Y4122D01*
X4927Y4040D01*
X5089Y3955D01*
X5106Y3950D01*
X5122Y3942D01*
X5301Y3895D01*
X5476Y3844D01*
X5494Y3842D01*
X5511Y3838D01*
X5842Y3811D01*
X306753Y3811D01*
X306762Y3812D01*
G37*
%LPC*%
G36*
X197016Y41861D02*
X197016Y41861D01*
X195346Y42553D01*
X194068Y43832D01*
X193376Y45502D01*
X193376Y47310D01*
X194209Y49322D01*
X194218Y49352D01*
X194232Y49380D01*
X194276Y49544D01*
X194325Y49707D01*
X194328Y49738D01*
X194337Y49769D01*
X194364Y50099D01*
X194364Y104048D01*
X194361Y104074D01*
X194363Y104101D01*
X194341Y104275D01*
X194324Y104448D01*
X194316Y104474D01*
X194313Y104500D01*
X194257Y104666D01*
X194206Y104833D01*
X194193Y104857D01*
X194184Y104882D01*
X194097Y105034D01*
X194014Y105187D01*
X193997Y105208D01*
X193983Y105231D01*
X193769Y105484D01*
X165201Y134052D01*
X165180Y134069D01*
X165163Y134089D01*
X165025Y134196D01*
X164890Y134307D01*
X164866Y134319D01*
X164845Y134336D01*
X164688Y134414D01*
X164534Y134495D01*
X164508Y134503D01*
X164484Y134515D01*
X164315Y134561D01*
X164148Y134610D01*
X164121Y134613D01*
X164095Y134620D01*
X163918Y134634D01*
X162125Y135377D01*
X160777Y136725D01*
X160033Y138520D01*
X160024Y138592D01*
X160007Y138765D01*
X159999Y138791D01*
X159996Y138817D01*
X159940Y138983D01*
X159889Y139150D01*
X159876Y139174D01*
X159867Y139199D01*
X159780Y139351D01*
X159697Y139504D01*
X159680Y139525D01*
X159666Y139548D01*
X159452Y139801D01*
X155955Y143297D01*
X155955Y185280D01*
X155955Y185287D01*
X155955Y185294D01*
X155935Y185486D01*
X155915Y185681D01*
X155913Y185687D01*
X155913Y185694D01*
X155855Y185879D01*
X155797Y186066D01*
X155794Y186072D01*
X155792Y186078D01*
X155698Y186248D01*
X155605Y186420D01*
X155601Y186425D01*
X155598Y186431D01*
X155472Y186580D01*
X155348Y186729D01*
X155342Y186733D01*
X155338Y186738D01*
X155185Y186860D01*
X155034Y186981D01*
X155028Y186984D01*
X155023Y186989D01*
X154847Y187078D01*
X154677Y187167D01*
X154670Y187169D01*
X154664Y187172D01*
X154476Y187224D01*
X154290Y187278D01*
X154283Y187279D01*
X154277Y187281D01*
X154084Y187295D01*
X153888Y187311D01*
X153882Y187310D01*
X153875Y187311D01*
X153682Y187287D01*
X153489Y187264D01*
X153482Y187262D01*
X153476Y187261D01*
X153291Y187200D01*
X153106Y187139D01*
X153100Y187136D01*
X153094Y187134D01*
X152925Y187037D01*
X152755Y186941D01*
X152750Y186937D01*
X152744Y186934D01*
X152598Y186805D01*
X152451Y186678D01*
X152446Y186673D01*
X152441Y186669D01*
X152235Y186409D01*
X151810Y185773D01*
X150777Y184740D01*
X149563Y183928D01*
X148213Y183369D01*
X148081Y183343D01*
X148081Y190500D01*
X148081Y197657D01*
X148213Y197631D01*
X149563Y197072D01*
X150777Y196260D01*
X151810Y195227D01*
X152235Y194591D01*
X152239Y194586D01*
X152243Y194580D01*
X152367Y194430D01*
X152491Y194280D01*
X152496Y194276D01*
X152500Y194271D01*
X152653Y194148D01*
X152803Y194026D01*
X152809Y194023D01*
X152814Y194019D01*
X152986Y193930D01*
X153159Y193838D01*
X153166Y193836D01*
X153171Y193833D01*
X153358Y193780D01*
X153545Y193724D01*
X153552Y193724D01*
X153558Y193722D01*
X153754Y193706D01*
X153946Y193689D01*
X153953Y193689D01*
X153960Y193689D01*
X154154Y193712D01*
X154346Y193733D01*
X154353Y193735D01*
X154359Y193736D01*
X154545Y193796D01*
X154730Y193855D01*
X154736Y193859D01*
X154742Y193861D01*
X154912Y193956D01*
X155082Y194051D01*
X155087Y194055D01*
X155093Y194059D01*
X155240Y194186D01*
X155388Y194312D01*
X155392Y194317D01*
X155398Y194322D01*
X155516Y194475D01*
X155637Y194628D01*
X155640Y194635D01*
X155644Y194640D01*
X155730Y194811D01*
X155819Y194988D01*
X155821Y194994D01*
X155824Y195000D01*
X155874Y195188D01*
X155926Y195376D01*
X155926Y195383D01*
X155928Y195389D01*
X155955Y195720D01*
X155955Y212823D01*
X155953Y212850D01*
X155955Y212877D01*
X155933Y213051D01*
X155915Y213224D01*
X155908Y213249D01*
X155904Y213276D01*
X155849Y213442D01*
X155797Y213609D01*
X155784Y213632D01*
X155776Y213658D01*
X155689Y213809D01*
X155605Y213963D01*
X155588Y213983D01*
X155575Y214007D01*
X155360Y214260D01*
X140374Y229246D01*
X140367Y229251D01*
X140362Y229258D01*
X140212Y229379D01*
X140063Y229501D01*
X140055Y229505D01*
X140048Y229511D01*
X139878Y229599D01*
X139707Y229689D01*
X139698Y229692D01*
X139691Y229696D01*
X139506Y229749D01*
X139321Y229804D01*
X139312Y229805D01*
X139304Y229807D01*
X139112Y229823D01*
X138920Y229841D01*
X138911Y229840D01*
X138902Y229840D01*
X138713Y229818D01*
X138520Y229797D01*
X138511Y229794D01*
X138503Y229793D01*
X138321Y229734D01*
X138136Y229676D01*
X138128Y229671D01*
X138120Y229669D01*
X137951Y229574D01*
X137784Y229481D01*
X137777Y229475D01*
X137769Y229471D01*
X137623Y229345D01*
X137477Y229220D01*
X137471Y229213D01*
X137464Y229208D01*
X137347Y229056D01*
X137227Y228904D01*
X137223Y228896D01*
X137218Y228889D01*
X137132Y228717D01*
X137045Y228546D01*
X137042Y228537D01*
X137038Y228529D01*
X136988Y228342D01*
X136937Y228158D01*
X136936Y228149D01*
X136934Y228140D01*
X136907Y227809D01*
X136907Y196748D01*
X136907Y196744D01*
X136908Y196739D01*
X136907Y196730D01*
X136928Y196538D01*
X136947Y196347D01*
X136949Y196339D01*
X136950Y196330D01*
X137008Y196148D01*
X137065Y195962D01*
X137069Y195955D01*
X137072Y195946D01*
X137165Y195778D01*
X137257Y195608D01*
X137262Y195602D01*
X137267Y195594D01*
X137392Y195446D01*
X137514Y195299D01*
X137521Y195294D01*
X137527Y195287D01*
X137678Y195168D01*
X137828Y195047D01*
X137836Y195043D01*
X137843Y195037D01*
X138014Y194950D01*
X138185Y194861D01*
X138194Y194859D01*
X138202Y194855D01*
X138387Y194803D01*
X138572Y194750D01*
X138581Y194749D01*
X138590Y194747D01*
X138782Y194733D01*
X138974Y194717D01*
X138982Y194718D01*
X138991Y194717D01*
X139182Y194742D01*
X139373Y194764D01*
X139382Y194767D01*
X139391Y194768D01*
X139572Y194829D01*
X139756Y194889D01*
X139764Y194893D01*
X139772Y194896D01*
X139938Y194991D01*
X140107Y195087D01*
X140114Y195093D01*
X140121Y195097D01*
X140374Y195312D01*
X141323Y196260D01*
X142537Y197072D01*
X143887Y197631D01*
X144019Y197657D01*
X144019Y190500D01*
X144019Y183343D01*
X143887Y183369D01*
X142537Y183928D01*
X141323Y184740D01*
X140374Y185688D01*
X140367Y185694D01*
X140362Y185701D01*
X140213Y185821D01*
X140063Y185943D01*
X140055Y185948D01*
X140048Y185953D01*
X139878Y186041D01*
X139707Y186132D01*
X139698Y186135D01*
X139691Y186139D01*
X139506Y186192D01*
X139321Y186247D01*
X139312Y186248D01*
X139304Y186250D01*
X139113Y186266D01*
X138920Y186283D01*
X138911Y186282D01*
X138902Y186283D01*
X138713Y186261D01*
X138520Y186240D01*
X138511Y186237D01*
X138503Y186236D01*
X138320Y186176D01*
X138136Y186118D01*
X138128Y186114D01*
X138120Y186111D01*
X137953Y186017D01*
X137784Y185923D01*
X137777Y185918D01*
X137769Y185913D01*
X137624Y185788D01*
X137477Y185663D01*
X137471Y185656D01*
X137464Y185650D01*
X137347Y185498D01*
X137227Y185347D01*
X137223Y185339D01*
X137218Y185332D01*
X137132Y185160D01*
X137045Y184988D01*
X137042Y184979D01*
X137038Y184971D01*
X136989Y184786D01*
X136937Y184600D01*
X136936Y184591D01*
X136934Y184583D01*
X136907Y184252D01*
X136907Y142015D01*
X136909Y141988D01*
X136907Y141961D01*
X136929Y141787D01*
X136947Y141614D01*
X136954Y141589D01*
X136958Y141562D01*
X137013Y141396D01*
X137065Y141229D01*
X137078Y141206D01*
X137086Y141180D01*
X137173Y141029D01*
X137257Y140875D01*
X137274Y140855D01*
X137287Y140831D01*
X137502Y140578D01*
X152040Y126040D01*
X152061Y126023D01*
X152078Y126002D01*
X152216Y125895D01*
X152352Y125785D01*
X152375Y125772D01*
X152397Y125756D01*
X152553Y125678D01*
X152707Y125596D01*
X152733Y125588D01*
X152757Y125576D01*
X152926Y125531D01*
X153093Y125481D01*
X153120Y125479D01*
X153146Y125472D01*
X153323Y125457D01*
X155116Y124715D01*
X156465Y123366D01*
X157195Y121604D01*
X157195Y119696D01*
X156451Y117901D01*
X156407Y117845D01*
X156297Y117709D01*
X156284Y117686D01*
X156268Y117665D01*
X156190Y117508D01*
X156108Y117354D01*
X156100Y117328D01*
X156088Y117304D01*
X156043Y117135D01*
X155993Y116968D01*
X155991Y116941D01*
X155984Y116915D01*
X155957Y116585D01*
X155957Y72165D01*
X155959Y72138D01*
X155957Y72111D01*
X155979Y71937D01*
X155997Y71764D01*
X156004Y71739D01*
X156008Y71712D01*
X156063Y71546D01*
X156115Y71379D01*
X156128Y71355D01*
X156136Y71330D01*
X156223Y71179D01*
X156307Y71025D01*
X156324Y71005D01*
X156337Y70981D01*
X156552Y70728D01*
X165003Y62277D01*
X165028Y62257D01*
X165048Y62233D01*
X165183Y62129D01*
X165315Y62021D01*
X165342Y62007D01*
X165367Y61988D01*
X165662Y61836D01*
X167674Y61003D01*
X168953Y59724D01*
X169645Y58054D01*
X169645Y56246D01*
X168953Y54576D01*
X167674Y53297D01*
X166004Y52605D01*
X164196Y52605D01*
X162526Y53297D01*
X161247Y54576D01*
X160414Y56588D01*
X160399Y56615D01*
X160389Y56645D01*
X160304Y56792D01*
X160224Y56942D01*
X160204Y56966D01*
X160188Y56994D01*
X159973Y57247D01*
X148843Y68377D01*
X148843Y116585D01*
X148841Y116611D01*
X148843Y116638D01*
X148821Y116812D01*
X148803Y116985D01*
X148796Y117011D01*
X148792Y117037D01*
X148737Y117203D01*
X148685Y117370D01*
X148672Y117394D01*
X148664Y117419D01*
X148577Y117571D01*
X148493Y117724D01*
X148476Y117745D01*
X148463Y117768D01*
X148348Y117904D01*
X147592Y119729D01*
X147583Y119801D01*
X147565Y119974D01*
X147558Y120000D01*
X147554Y120026D01*
X147498Y120192D01*
X147447Y120359D01*
X147434Y120383D01*
X147426Y120408D01*
X147339Y120559D01*
X147255Y120713D01*
X147238Y120733D01*
X147225Y120757D01*
X147010Y121010D01*
X129793Y138227D01*
X129793Y226285D01*
X129791Y226312D01*
X129793Y226339D01*
X129771Y226513D01*
X129753Y226686D01*
X129746Y226711D01*
X129742Y226738D01*
X129687Y226903D01*
X129635Y227071D01*
X129622Y227094D01*
X129614Y227120D01*
X129527Y227271D01*
X129443Y227425D01*
X129426Y227445D01*
X129413Y227469D01*
X129198Y227722D01*
X114466Y242454D01*
X114459Y242459D01*
X114454Y242466D01*
X114304Y242587D01*
X114155Y242709D01*
X114147Y242713D01*
X114140Y242719D01*
X113970Y242807D01*
X113799Y242897D01*
X113790Y242900D01*
X113783Y242904D01*
X113598Y242957D01*
X113413Y243012D01*
X113404Y243013D01*
X113396Y243015D01*
X113204Y243031D01*
X113012Y243049D01*
X113003Y243048D01*
X112994Y243048D01*
X112805Y243026D01*
X112612Y243005D01*
X112603Y243002D01*
X112595Y243001D01*
X112413Y242942D01*
X112228Y242884D01*
X112220Y242879D01*
X112212Y242877D01*
X112043Y242782D01*
X111876Y242689D01*
X111869Y242683D01*
X111861Y242679D01*
X111715Y242553D01*
X111569Y242428D01*
X111563Y242421D01*
X111556Y242416D01*
X111439Y242264D01*
X111319Y242112D01*
X111315Y242104D01*
X111310Y242097D01*
X111224Y241925D01*
X111137Y241754D01*
X111134Y241745D01*
X111130Y241737D01*
X111080Y241550D01*
X111029Y241366D01*
X111028Y241357D01*
X111026Y241348D01*
X110999Y241017D01*
X110999Y182887D01*
X73240Y145128D01*
X73223Y145107D01*
X73202Y145090D01*
X73095Y144952D01*
X72985Y144817D01*
X72972Y144793D01*
X72956Y144772D01*
X72878Y144615D01*
X72796Y144461D01*
X72788Y144435D01*
X72776Y144411D01*
X72731Y144242D01*
X72681Y144075D01*
X72679Y144048D01*
X72672Y144023D01*
X72645Y143692D01*
X72645Y135912D01*
X67288Y130555D01*
X59712Y130555D01*
X55284Y134983D01*
X55277Y134989D01*
X55272Y134996D01*
X55122Y135116D01*
X54973Y135238D01*
X54965Y135242D01*
X54958Y135248D01*
X54788Y135336D01*
X54617Y135427D01*
X54608Y135429D01*
X54601Y135433D01*
X54416Y135487D01*
X54231Y135542D01*
X54222Y135542D01*
X54214Y135545D01*
X54022Y135561D01*
X53830Y135578D01*
X53821Y135577D01*
X53812Y135578D01*
X53623Y135556D01*
X53430Y135535D01*
X53421Y135532D01*
X53413Y135531D01*
X53231Y135471D01*
X53046Y135413D01*
X53038Y135409D01*
X53030Y135406D01*
X52861Y135311D01*
X52694Y135218D01*
X52687Y135213D01*
X52679Y135208D01*
X52533Y135082D01*
X52387Y134958D01*
X52381Y134951D01*
X52374Y134945D01*
X52257Y134794D01*
X52137Y134642D01*
X52133Y134634D01*
X52128Y134627D01*
X52042Y134455D01*
X51955Y134283D01*
X51952Y134274D01*
X51948Y134266D01*
X51898Y134080D01*
X51847Y133895D01*
X51846Y133886D01*
X51844Y133878D01*
X51817Y133547D01*
X51817Y131136D01*
X51819Y131110D01*
X51817Y131083D01*
X51839Y130909D01*
X51857Y130736D01*
X51864Y130710D01*
X51868Y130683D01*
X51923Y130518D01*
X51975Y130351D01*
X51988Y130327D01*
X51996Y130302D01*
X52083Y130150D01*
X52167Y129997D01*
X52184Y129976D01*
X52197Y129953D01*
X52412Y129700D01*
X58072Y124040D01*
X58093Y124023D01*
X58110Y124002D01*
X58248Y123895D01*
X58383Y123785D01*
X58407Y123772D01*
X58428Y123756D01*
X58585Y123678D01*
X58739Y123596D01*
X58765Y123588D01*
X58789Y123576D01*
X58958Y123531D01*
X59125Y123481D01*
X59152Y123479D01*
X59177Y123472D01*
X59508Y123445D01*
X67288Y123445D01*
X72645Y118088D01*
X72645Y110512D01*
X67288Y105155D01*
X59712Y105155D01*
X54355Y110512D01*
X54355Y118292D01*
X54353Y118318D01*
X54355Y118345D01*
X54333Y118519D01*
X54315Y118692D01*
X54308Y118718D01*
X54304Y118745D01*
X54249Y118910D01*
X54197Y119077D01*
X54184Y119101D01*
X54176Y119126D01*
X54089Y119278D01*
X54005Y119431D01*
X53988Y119452D01*
X53975Y119475D01*
X53760Y119728D01*
X45719Y127769D01*
X45719Y129483D01*
X45718Y129492D01*
X45719Y129501D01*
X45698Y129693D01*
X45679Y129883D01*
X45677Y129892D01*
X45676Y129901D01*
X45618Y130083D01*
X45561Y130268D01*
X45557Y130276D01*
X45554Y130285D01*
X45461Y130453D01*
X45369Y130622D01*
X45364Y130629D01*
X45359Y130637D01*
X45234Y130785D01*
X45112Y130932D01*
X45105Y130937D01*
X45099Y130944D01*
X44947Y131064D01*
X44798Y131184D01*
X44790Y131188D01*
X44783Y131194D01*
X44610Y131281D01*
X44441Y131369D01*
X44432Y131372D01*
X44424Y131376D01*
X44239Y131428D01*
X44054Y131481D01*
X44045Y131482D01*
X44036Y131484D01*
X43844Y131498D01*
X43652Y131514D01*
X43644Y131513D01*
X43635Y131513D01*
X43444Y131489D01*
X43253Y131467D01*
X43244Y131464D01*
X43235Y131463D01*
X43054Y131402D01*
X42870Y131342D01*
X42862Y131338D01*
X42854Y131335D01*
X42686Y131239D01*
X42519Y131144D01*
X42512Y131138D01*
X42505Y131134D01*
X42252Y130919D01*
X41888Y130555D01*
X34312Y130555D01*
X28955Y135912D01*
X28955Y137342D01*
X28953Y137368D01*
X28955Y137395D01*
X28933Y137569D01*
X28915Y137742D01*
X28908Y137768D01*
X28904Y137795D01*
X28849Y137960D01*
X28797Y138127D01*
X28784Y138151D01*
X28776Y138176D01*
X28689Y138328D01*
X28605Y138481D01*
X28588Y138502D01*
X28575Y138525D01*
X28360Y138778D01*
X22351Y144787D01*
X22351Y211680D01*
X22349Y211707D01*
X22351Y211733D01*
X22329Y211907D01*
X22311Y212081D01*
X22304Y212106D01*
X22300Y212133D01*
X22245Y212299D01*
X22193Y212466D01*
X22180Y212489D01*
X22172Y212515D01*
X22085Y212666D01*
X22001Y212820D01*
X21984Y212840D01*
X21971Y212863D01*
X21756Y213116D01*
X21547Y213326D01*
X20855Y214996D01*
X20855Y216804D01*
X21547Y218474D01*
X22826Y219753D01*
X24496Y220445D01*
X26304Y220445D01*
X27974Y219753D01*
X29253Y218474D01*
X29945Y216804D01*
X29945Y214996D01*
X29253Y213326D01*
X29044Y213116D01*
X29027Y213096D01*
X29006Y213078D01*
X28899Y212940D01*
X28789Y212805D01*
X28776Y212781D01*
X28760Y212760D01*
X28682Y212603D01*
X28600Y212449D01*
X28592Y212424D01*
X28580Y212400D01*
X28535Y212230D01*
X28485Y212063D01*
X28483Y212037D01*
X28476Y212011D01*
X28449Y211680D01*
X28449Y200122D01*
X28450Y200113D01*
X28449Y200104D01*
X28470Y199911D01*
X28489Y199721D01*
X28491Y199713D01*
X28492Y199704D01*
X28550Y199520D01*
X28607Y199336D01*
X28611Y199329D01*
X28614Y199320D01*
X28707Y199152D01*
X28799Y198982D01*
X28804Y198976D01*
X28809Y198968D01*
X28933Y198821D01*
X29056Y198673D01*
X29063Y198668D01*
X29069Y198661D01*
X29220Y198542D01*
X29370Y198421D01*
X29378Y198417D01*
X29385Y198411D01*
X29558Y198323D01*
X29727Y198235D01*
X29736Y198233D01*
X29744Y198229D01*
X29930Y198177D01*
X30114Y198124D01*
X30123Y198123D01*
X30132Y198121D01*
X30325Y198107D01*
X30516Y198091D01*
X30524Y198092D01*
X30533Y198091D01*
X30726Y198116D01*
X30915Y198138D01*
X30924Y198141D01*
X30933Y198142D01*
X31115Y198203D01*
X31298Y198263D01*
X31306Y198267D01*
X31314Y198270D01*
X31480Y198365D01*
X31649Y198461D01*
X31656Y198467D01*
X31663Y198471D01*
X31916Y198686D01*
X33891Y200661D01*
X35561Y200661D01*
X35561Y191008D01*
X35562Y190990D01*
X35561Y190973D01*
X35582Y190790D01*
X35601Y190608D01*
X35606Y190591D01*
X35608Y190573D01*
X35633Y190495D01*
X35594Y190358D01*
X35592Y190340D01*
X35588Y190323D01*
X35561Y189992D01*
X35561Y180339D01*
X33891Y180339D01*
X31916Y182314D01*
X31909Y182320D01*
X31904Y182327D01*
X31755Y182447D01*
X31605Y182569D01*
X31597Y182574D01*
X31590Y182579D01*
X31420Y182668D01*
X31249Y182758D01*
X31240Y182761D01*
X31233Y182765D01*
X31048Y182818D01*
X30863Y182873D01*
X30854Y182874D01*
X30846Y182876D01*
X30655Y182892D01*
X30462Y182909D01*
X30453Y182908D01*
X30444Y182909D01*
X30255Y182887D01*
X30062Y182866D01*
X30053Y182863D01*
X30045Y182862D01*
X29863Y182803D01*
X29678Y182744D01*
X29670Y182740D01*
X29662Y182737D01*
X29493Y182642D01*
X29326Y182549D01*
X29319Y182544D01*
X29311Y182539D01*
X29165Y182413D01*
X29019Y182289D01*
X29013Y182282D01*
X29006Y182276D01*
X28889Y182125D01*
X28769Y181973D01*
X28765Y181965D01*
X28760Y181958D01*
X28674Y181786D01*
X28587Y181614D01*
X28584Y181606D01*
X28580Y181597D01*
X28530Y181412D01*
X28479Y181226D01*
X28478Y181217D01*
X28476Y181209D01*
X28449Y180878D01*
X28449Y173285D01*
X28450Y173276D01*
X28449Y173267D01*
X28470Y173076D01*
X28489Y172885D01*
X28491Y172876D01*
X28492Y172867D01*
X28550Y172685D01*
X28607Y172500D01*
X28611Y172492D01*
X28614Y172483D01*
X28707Y172315D01*
X28799Y172146D01*
X28804Y172139D01*
X28809Y172131D01*
X28933Y171984D01*
X29056Y171836D01*
X29063Y171831D01*
X29069Y171824D01*
X29220Y171705D01*
X29370Y171584D01*
X29378Y171580D01*
X29385Y171574D01*
X29558Y171487D01*
X29727Y171399D01*
X29736Y171396D01*
X29744Y171392D01*
X29930Y171340D01*
X30114Y171287D01*
X30123Y171286D01*
X30132Y171284D01*
X30325Y171270D01*
X30516Y171254D01*
X30524Y171255D01*
X30533Y171255D01*
X30726Y171279D01*
X30915Y171301D01*
X30924Y171304D01*
X30933Y171305D01*
X31116Y171366D01*
X31298Y171426D01*
X31306Y171430D01*
X31314Y171433D01*
X31480Y171529D01*
X31649Y171624D01*
X31656Y171630D01*
X31663Y171634D01*
X31916Y171849D01*
X34312Y174245D01*
X41888Y174245D01*
X42252Y173881D01*
X42259Y173875D01*
X42264Y173868D01*
X42413Y173749D01*
X42563Y173626D01*
X42571Y173622D01*
X42578Y173616D01*
X42748Y173528D01*
X42919Y173437D01*
X42928Y173435D01*
X42935Y173431D01*
X43120Y173377D01*
X43305Y173322D01*
X43314Y173322D01*
X43322Y173319D01*
X43513Y173303D01*
X43706Y173286D01*
X43715Y173287D01*
X43724Y173286D01*
X43913Y173308D01*
X44106Y173329D01*
X44115Y173332D01*
X44123Y173333D01*
X44306Y173393D01*
X44490Y173451D01*
X44498Y173455D01*
X44506Y173458D01*
X44674Y173553D01*
X44842Y173646D01*
X44849Y173652D01*
X44857Y173656D01*
X45003Y173782D01*
X45149Y173906D01*
X45155Y173913D01*
X45162Y173919D01*
X45280Y174072D01*
X45399Y174222D01*
X45403Y174230D01*
X45408Y174237D01*
X45494Y174409D01*
X45581Y174581D01*
X45584Y174590D01*
X45588Y174598D01*
X45637Y174783D01*
X45689Y174969D01*
X45690Y174978D01*
X45692Y174986D01*
X45719Y175317D01*
X45719Y178846D01*
X45718Y178855D01*
X45719Y178864D01*
X45699Y179054D01*
X45679Y179247D01*
X45677Y179255D01*
X45676Y179264D01*
X45618Y179447D01*
X45561Y179632D01*
X45557Y179639D01*
X45554Y179648D01*
X45461Y179816D01*
X45369Y179986D01*
X45364Y179992D01*
X45359Y180000D01*
X45234Y180148D01*
X45112Y180295D01*
X45105Y180300D01*
X45099Y180307D01*
X44947Y180428D01*
X44798Y180547D01*
X44790Y180551D01*
X44783Y180557D01*
X44610Y180645D01*
X44441Y180733D01*
X44432Y180735D01*
X44424Y180739D01*
X44238Y180791D01*
X44054Y180844D01*
X44045Y180845D01*
X44036Y180847D01*
X43844Y180861D01*
X43652Y180877D01*
X43644Y180876D01*
X43635Y180877D01*
X43443Y180852D01*
X43253Y180830D01*
X43244Y180827D01*
X43235Y180826D01*
X43053Y180765D01*
X42870Y180705D01*
X42862Y180701D01*
X42854Y180698D01*
X42686Y180602D01*
X42519Y180507D01*
X42512Y180501D01*
X42505Y180497D01*
X42319Y180339D01*
X40639Y180339D01*
X40639Y189992D01*
X40637Y190010D01*
X40639Y190027D01*
X40618Y190210D01*
X40599Y190392D01*
X40594Y190409D01*
X40592Y190427D01*
X40567Y190505D01*
X40606Y190642D01*
X40608Y190660D01*
X40612Y190677D01*
X40639Y191008D01*
X40639Y200661D01*
X42309Y200661D01*
X44868Y198102D01*
X44881Y198090D01*
X44893Y198077D01*
X45037Y197963D01*
X45179Y197847D01*
X45195Y197838D01*
X45209Y197827D01*
X45373Y197744D01*
X45535Y197658D01*
X45552Y197653D01*
X45568Y197645D01*
X45745Y197596D01*
X45921Y197543D01*
X45938Y197542D01*
X45956Y197537D01*
X46139Y197524D01*
X46322Y197507D01*
X46339Y197509D01*
X46357Y197508D01*
X46539Y197531D01*
X46722Y197550D01*
X46739Y197556D01*
X46757Y197558D01*
X46930Y197616D01*
X47106Y197672D01*
X47121Y197681D01*
X47138Y197686D01*
X47298Y197778D01*
X47458Y197867D01*
X47472Y197878D01*
X47487Y197887D01*
X47740Y198102D01*
X66206Y216568D01*
X66223Y216589D01*
X66244Y216606D01*
X66351Y216744D01*
X66461Y216879D01*
X66474Y216903D01*
X66490Y216924D01*
X66568Y217081D01*
X66650Y217235D01*
X66658Y217261D01*
X66670Y217285D01*
X66715Y217454D01*
X66765Y217621D01*
X66767Y217648D01*
X66774Y217673D01*
X66801Y218004D01*
X66801Y245691D01*
X66801Y245695D01*
X66801Y245700D01*
X66781Y245894D01*
X66761Y246091D01*
X66760Y246096D01*
X66760Y246100D01*
X66702Y246286D01*
X66643Y246476D01*
X66641Y246480D01*
X66640Y246485D01*
X66546Y246656D01*
X66451Y246830D01*
X66449Y246834D01*
X66446Y246838D01*
X66319Y246989D01*
X66194Y247140D01*
X66190Y247142D01*
X66187Y247146D01*
X66033Y247269D01*
X65880Y247392D01*
X65876Y247394D01*
X65873Y247397D01*
X65698Y247486D01*
X65523Y247578D01*
X65518Y247579D01*
X65514Y247581D01*
X65327Y247634D01*
X65136Y247689D01*
X65131Y247689D01*
X65127Y247690D01*
X64934Y247705D01*
X64734Y247722D01*
X64730Y247721D01*
X64726Y247722D01*
X64533Y247698D01*
X64335Y247675D01*
X64330Y247673D01*
X64326Y247673D01*
X64143Y247612D01*
X63952Y247550D01*
X63948Y247548D01*
X63944Y247546D01*
X63774Y247449D01*
X63601Y247352D01*
X63598Y247349D01*
X63594Y247347D01*
X63443Y247216D01*
X63297Y247089D01*
X63294Y247085D01*
X63290Y247083D01*
X63170Y246926D01*
X63050Y246771D01*
X63048Y246767D01*
X63045Y246763D01*
X62893Y246468D01*
X61793Y243812D01*
X59888Y241907D01*
X58445Y241309D01*
X58444Y241309D01*
X57398Y240875D01*
X44202Y240875D01*
X41712Y241907D01*
X39807Y243812D01*
X38775Y246302D01*
X38775Y248172D01*
X38773Y248198D01*
X38775Y248225D01*
X38753Y248399D01*
X38735Y248572D01*
X38728Y248598D01*
X38724Y248625D01*
X38669Y248790D01*
X38617Y248957D01*
X38604Y248981D01*
X38596Y249006D01*
X38509Y249158D01*
X38425Y249311D01*
X38408Y249332D01*
X38395Y249355D01*
X38180Y249608D01*
X28701Y259087D01*
X28701Y302696D01*
X28699Y302722D01*
X28701Y302749D01*
X28679Y302923D01*
X28661Y303096D01*
X28654Y303122D01*
X28650Y303149D01*
X28595Y303314D01*
X28543Y303481D01*
X28530Y303505D01*
X28522Y303530D01*
X28435Y303682D01*
X28351Y303835D01*
X28334Y303856D01*
X28321Y303879D01*
X28106Y304132D01*
X9651Y322587D01*
X9651Y689844D01*
X35349Y715542D01*
X35355Y715549D01*
X35362Y715555D01*
X35482Y715704D01*
X35604Y715854D01*
X35608Y715862D01*
X35614Y715869D01*
X35703Y716040D01*
X35793Y716209D01*
X35795Y716218D01*
X35799Y716226D01*
X35853Y716411D01*
X35908Y716595D01*
X35908Y716604D01*
X35911Y716613D01*
X35927Y716804D01*
X35944Y716996D01*
X35943Y717005D01*
X35944Y717014D01*
X35922Y717203D01*
X35901Y717397D01*
X35898Y717405D01*
X35897Y717414D01*
X35837Y717596D01*
X35779Y717780D01*
X35775Y717788D01*
X35772Y717797D01*
X35677Y717965D01*
X35584Y718133D01*
X35579Y718139D01*
X35574Y718147D01*
X35448Y718293D01*
X35324Y718440D01*
X35317Y718445D01*
X35311Y718452D01*
X35160Y718569D01*
X35008Y718689D01*
X35000Y718693D01*
X34993Y718699D01*
X34821Y718784D01*
X34649Y718872D01*
X34640Y718874D01*
X34632Y718878D01*
X34446Y718928D01*
X34261Y718980D01*
X34252Y718980D01*
X34244Y718983D01*
X33913Y719010D01*
X27746Y719010D01*
X20347Y722074D01*
X14684Y727737D01*
X11620Y735136D01*
X11620Y743144D01*
X14684Y750543D01*
X20347Y756206D01*
X27746Y759270D01*
X35754Y759270D01*
X43153Y756206D01*
X48816Y750543D01*
X51880Y743144D01*
X51880Y735136D01*
X49652Y729757D01*
X49648Y729744D01*
X49642Y729733D01*
X49591Y729553D01*
X49536Y729372D01*
X49535Y729359D01*
X49531Y729346D01*
X49516Y729158D01*
X49498Y728971D01*
X49499Y728958D01*
X49498Y728944D01*
X49520Y728757D01*
X49539Y728571D01*
X49543Y728558D01*
X49545Y728545D01*
X49604Y728365D01*
X49659Y728186D01*
X49666Y728175D01*
X49670Y728162D01*
X49763Y727997D01*
X49853Y727833D01*
X49861Y727823D01*
X49868Y727811D01*
X49991Y727669D01*
X50112Y727525D01*
X50122Y727517D01*
X50131Y727506D01*
X50279Y727391D01*
X50426Y727274D01*
X50438Y727268D01*
X50449Y727260D01*
X50618Y727176D01*
X50785Y727090D01*
X50797Y727086D01*
X50809Y727080D01*
X50992Y727031D01*
X51172Y726980D01*
X51185Y726979D01*
X51198Y726976D01*
X51529Y726949D01*
X80094Y726949D01*
X80112Y726951D01*
X80130Y726949D01*
X80312Y726970D01*
X80495Y726989D01*
X80512Y726994D01*
X80529Y726996D01*
X80704Y727053D01*
X80880Y727107D01*
X80895Y727115D01*
X80912Y727121D01*
X81072Y727211D01*
X81234Y727299D01*
X81247Y727310D01*
X81263Y727319D01*
X81402Y727439D01*
X81543Y727556D01*
X81554Y727570D01*
X81568Y727582D01*
X81680Y727727D01*
X81795Y727870D01*
X81803Y727886D01*
X81814Y727900D01*
X81896Y728065D01*
X81981Y728227D01*
X81986Y728244D01*
X81994Y728260D01*
X82041Y728439D01*
X82092Y728614D01*
X82094Y728632D01*
X82098Y728649D01*
X82125Y728980D01*
X82125Y730498D01*
X83157Y732988D01*
X84748Y734579D01*
X84765Y734600D01*
X84786Y734617D01*
X84893Y734755D01*
X85003Y734891D01*
X85016Y734914D01*
X85032Y734936D01*
X85110Y735092D01*
X85192Y735246D01*
X85200Y735272D01*
X85212Y735296D01*
X85257Y735465D01*
X85307Y735632D01*
X85309Y735659D01*
X85316Y735685D01*
X85343Y736016D01*
X85343Y744423D01*
X87427Y746507D01*
X223723Y746507D01*
X235000Y735230D01*
X235017Y735216D01*
X235031Y735199D01*
X235172Y735089D01*
X235311Y734975D01*
X235331Y734965D01*
X235348Y734951D01*
X235508Y734871D01*
X235667Y734787D01*
X235688Y734780D01*
X235708Y734770D01*
X235881Y734723D01*
X236053Y734672D01*
X236075Y734670D01*
X236096Y734664D01*
X236275Y734652D01*
X236454Y734636D01*
X236476Y734638D01*
X236498Y734636D01*
X236676Y734660D01*
X236854Y734679D01*
X236875Y734686D01*
X236897Y734689D01*
X237213Y734790D01*
X239952Y735925D01*
X242648Y735925D01*
X245138Y734893D01*
X246762Y733268D01*
X246775Y733259D01*
X246785Y733247D01*
X246930Y733131D01*
X247074Y733013D01*
X247088Y733006D01*
X247100Y732996D01*
X247267Y732911D01*
X247430Y732825D01*
X247445Y732820D01*
X247459Y732813D01*
X247638Y732763D01*
X247816Y732710D01*
X247831Y732709D01*
X247846Y732704D01*
X248030Y732690D01*
X248217Y732674D01*
X248232Y732675D01*
X248248Y732674D01*
X248431Y732697D01*
X248617Y732717D01*
X248632Y732722D01*
X248647Y732724D01*
X248823Y732782D01*
X249001Y732838D01*
X249014Y732846D01*
X249029Y732851D01*
X249191Y732944D01*
X249353Y733033D01*
X249365Y733043D01*
X249379Y733051D01*
X249519Y733174D01*
X249660Y733294D01*
X249670Y733306D01*
X249681Y733316D01*
X249888Y733576D01*
X250249Y734116D01*
X251334Y735202D01*
X252610Y736054D01*
X254028Y736641D01*
X254269Y736689D01*
X254269Y723900D01*
X254269Y711111D01*
X254028Y711159D01*
X252610Y711746D01*
X251334Y712598D01*
X250249Y713684D01*
X249888Y714224D01*
X249878Y714236D01*
X249870Y714249D01*
X249750Y714391D01*
X249632Y714535D01*
X249620Y714545D01*
X249610Y714556D01*
X249464Y714672D01*
X249320Y714789D01*
X249306Y714796D01*
X249294Y714806D01*
X249128Y714890D01*
X248964Y714977D01*
X248949Y714981D01*
X248935Y714988D01*
X248756Y715038D01*
X248578Y715091D01*
X248562Y715092D01*
X248547Y715096D01*
X248361Y715110D01*
X248177Y715126D01*
X248161Y715125D01*
X248145Y715126D01*
X247960Y715102D01*
X247776Y715082D01*
X247762Y715077D01*
X247746Y715075D01*
X247570Y715016D01*
X247393Y714960D01*
X247379Y714952D01*
X247364Y714947D01*
X247203Y714854D01*
X247041Y714764D01*
X247029Y714754D01*
X247015Y714746D01*
X246762Y714532D01*
X245138Y712907D01*
X242648Y711875D01*
X239952Y711875D01*
X237462Y712907D01*
X235557Y714812D01*
X234525Y717302D01*
X234525Y724803D01*
X234523Y724830D01*
X234525Y724857D01*
X234503Y725031D01*
X234485Y725204D01*
X234478Y725229D01*
X234474Y725256D01*
X234419Y725422D01*
X234367Y725589D01*
X234354Y725612D01*
X234346Y725638D01*
X234259Y725789D01*
X234175Y725943D01*
X234158Y725963D01*
X234145Y725987D01*
X233930Y726240D01*
X221372Y738798D01*
X221351Y738815D01*
X221333Y738836D01*
X221196Y738943D01*
X221060Y739053D01*
X221037Y739066D01*
X221015Y739082D01*
X220858Y739160D01*
X220704Y739242D01*
X220679Y739250D01*
X220655Y739262D01*
X220485Y739307D01*
X220319Y739357D01*
X220292Y739359D01*
X220266Y739366D01*
X219935Y739393D01*
X213286Y739393D01*
X213281Y739393D01*
X213277Y739393D01*
X213083Y739373D01*
X212885Y739353D01*
X212881Y739352D01*
X212876Y739352D01*
X212690Y739294D01*
X212500Y739235D01*
X212496Y739233D01*
X212492Y739232D01*
X212320Y739138D01*
X212146Y739043D01*
X212143Y739041D01*
X212139Y739038D01*
X211988Y738911D01*
X211837Y738786D01*
X211834Y738782D01*
X211831Y738779D01*
X211704Y738621D01*
X211584Y738472D01*
X211582Y738468D01*
X211580Y738465D01*
X211488Y738287D01*
X211399Y738115D01*
X211398Y738110D01*
X211396Y738106D01*
X211343Y737919D01*
X211288Y737728D01*
X211287Y737723D01*
X211286Y737719D01*
X211271Y737526D01*
X211255Y737326D01*
X211255Y737322D01*
X211255Y737318D01*
X211279Y737120D01*
X211302Y736927D01*
X211303Y736922D01*
X211303Y736918D01*
X211365Y736731D01*
X211426Y736544D01*
X211429Y736540D01*
X211430Y736536D01*
X211528Y736364D01*
X211624Y736193D01*
X211627Y736190D01*
X211629Y736186D01*
X211762Y736033D01*
X211887Y735889D01*
X211891Y735886D01*
X211894Y735882D01*
X212050Y735762D01*
X212206Y735642D01*
X212210Y735640D01*
X212213Y735637D01*
X212508Y735485D01*
X213938Y734893D01*
X215843Y732988D01*
X216875Y730498D01*
X216875Y717302D01*
X215843Y714812D01*
X213938Y712907D01*
X211448Y711875D01*
X208752Y711875D01*
X208258Y712080D01*
X208236Y712087D01*
X208216Y712097D01*
X208044Y712145D01*
X207872Y712197D01*
X207850Y712199D01*
X207828Y712205D01*
X207649Y712218D01*
X207471Y712235D01*
X207449Y712233D01*
X207427Y712234D01*
X207249Y712212D01*
X207071Y712193D01*
X207050Y712187D01*
X207027Y712184D01*
X206857Y712127D01*
X206686Y712073D01*
X206667Y712063D01*
X206646Y712056D01*
X206490Y711966D01*
X206333Y711880D01*
X206316Y711866D01*
X206297Y711855D01*
X206044Y711640D01*
X154136Y659732D01*
X151755Y657351D01*
X122754Y657351D01*
X122728Y657349D01*
X122701Y657351D01*
X122527Y657329D01*
X122354Y657311D01*
X122328Y657304D01*
X122301Y657300D01*
X122136Y657245D01*
X121969Y657193D01*
X121945Y657180D01*
X121920Y657172D01*
X121768Y657085D01*
X121615Y657001D01*
X121594Y656984D01*
X121571Y656971D01*
X121318Y656756D01*
X86194Y621632D01*
X86177Y621611D01*
X86156Y621594D01*
X86049Y621456D01*
X85939Y621321D01*
X85926Y621297D01*
X85910Y621276D01*
X85832Y621119D01*
X85750Y620965D01*
X85742Y620939D01*
X85730Y620915D01*
X85685Y620746D01*
X85635Y620579D01*
X85633Y620552D01*
X85626Y620527D01*
X85599Y620196D01*
X85599Y588900D01*
X85601Y588873D01*
X85599Y588847D01*
X85621Y588673D01*
X85639Y588499D01*
X85646Y588474D01*
X85650Y588447D01*
X85705Y588281D01*
X85757Y588114D01*
X85770Y588091D01*
X85778Y588065D01*
X85865Y587914D01*
X85949Y587760D01*
X85966Y587740D01*
X85979Y587717D01*
X86194Y587464D01*
X86883Y586774D01*
X87575Y585104D01*
X87575Y583296D01*
X86883Y581626D01*
X85604Y580347D01*
X83934Y579655D01*
X82126Y579655D01*
X82057Y579684D01*
X82044Y579688D01*
X82033Y579694D01*
X81852Y579746D01*
X81672Y579800D01*
X81659Y579801D01*
X81646Y579805D01*
X81458Y579821D01*
X81271Y579838D01*
X81258Y579837D01*
X81244Y579838D01*
X81057Y579816D01*
X80871Y579797D01*
X80858Y579793D01*
X80845Y579791D01*
X80665Y579733D01*
X80486Y579677D01*
X80475Y579670D01*
X80462Y579666D01*
X80298Y579574D01*
X80133Y579484D01*
X80123Y579475D01*
X80111Y579468D01*
X79969Y579346D01*
X79825Y579225D01*
X79817Y579214D01*
X79806Y579205D01*
X79691Y579057D01*
X79574Y578910D01*
X79568Y578898D01*
X79560Y578887D01*
X79476Y578719D01*
X79390Y578552D01*
X79386Y578539D01*
X79380Y578527D01*
X79331Y578344D01*
X79280Y578164D01*
X79279Y578151D01*
X79276Y578138D01*
X79249Y577807D01*
X79249Y564714D01*
X79250Y564705D01*
X79249Y564696D01*
X79270Y564503D01*
X79289Y564314D01*
X79291Y564305D01*
X79292Y564296D01*
X79351Y564111D01*
X79407Y563929D01*
X79411Y563921D01*
X79414Y563912D01*
X79507Y563743D01*
X79599Y563575D01*
X79604Y563568D01*
X79609Y563560D01*
X79733Y563413D01*
X79856Y563265D01*
X79863Y563260D01*
X79869Y563253D01*
X80021Y563133D01*
X80170Y563013D01*
X80178Y563009D01*
X80185Y563003D01*
X80358Y562916D01*
X80527Y562827D01*
X80536Y562825D01*
X80544Y562821D01*
X80730Y562769D01*
X80914Y562716D01*
X80923Y562715D01*
X80932Y562713D01*
X81125Y562699D01*
X81316Y562683D01*
X81324Y562684D01*
X81333Y562684D01*
X81526Y562708D01*
X81715Y562730D01*
X81724Y562733D01*
X81733Y562734D01*
X81916Y562795D01*
X82098Y562855D01*
X82106Y562859D01*
X82114Y562862D01*
X82281Y562958D01*
X82449Y563053D01*
X82456Y563059D01*
X82463Y563063D01*
X82716Y563278D01*
X100337Y580899D01*
X142038Y580899D01*
X142065Y580901D01*
X142091Y580899D01*
X142265Y580921D01*
X142439Y580939D01*
X142464Y580946D01*
X142491Y580950D01*
X142657Y581005D01*
X142824Y581057D01*
X142847Y581070D01*
X142873Y581078D01*
X143024Y581165D01*
X143178Y581249D01*
X143198Y581266D01*
X143221Y581279D01*
X143474Y581494D01*
X270563Y708582D01*
X270572Y708593D01*
X270582Y708601D01*
X270699Y708748D01*
X270818Y708894D01*
X270824Y708906D01*
X270833Y708916D01*
X270919Y709083D01*
X271007Y709250D01*
X271011Y709262D01*
X271017Y709274D01*
X271068Y709455D01*
X271122Y709635D01*
X271123Y709649D01*
X271126Y709662D01*
X271141Y709847D01*
X271158Y710036D01*
X271157Y710050D01*
X271158Y710063D01*
X271135Y710248D01*
X271115Y710437D01*
X271111Y710450D01*
X271109Y710463D01*
X271050Y710640D01*
X270993Y710821D01*
X270987Y710832D01*
X270982Y710845D01*
X270889Y711009D01*
X270798Y711173D01*
X270790Y711183D01*
X270783Y711195D01*
X270659Y711337D01*
X270538Y711480D01*
X270527Y711488D01*
X270518Y711498D01*
X270370Y711613D01*
X270222Y711729D01*
X270210Y711736D01*
X270199Y711744D01*
X269904Y711895D01*
X267462Y712907D01*
X265838Y714532D01*
X265825Y714541D01*
X265815Y714553D01*
X265670Y714669D01*
X265526Y714787D01*
X265512Y714794D01*
X265500Y714804D01*
X265333Y714889D01*
X265170Y714975D01*
X265155Y714980D01*
X265141Y714987D01*
X264962Y715037D01*
X264784Y715090D01*
X264769Y715091D01*
X264754Y715096D01*
X264570Y715110D01*
X264383Y715126D01*
X264368Y715125D01*
X264352Y715126D01*
X264169Y715103D01*
X263983Y715083D01*
X263968Y715078D01*
X263953Y715076D01*
X263777Y715018D01*
X263599Y714962D01*
X263586Y714954D01*
X263571Y714949D01*
X263409Y714856D01*
X263247Y714767D01*
X263235Y714757D01*
X263221Y714749D01*
X263081Y714626D01*
X262940Y714506D01*
X262930Y714494D01*
X262919Y714484D01*
X262712Y714224D01*
X262351Y713684D01*
X261266Y712598D01*
X259990Y711746D01*
X258572Y711159D01*
X258331Y711111D01*
X258331Y723900D01*
X258331Y736689D01*
X258572Y736641D01*
X259990Y736054D01*
X261266Y735202D01*
X262351Y734116D01*
X262712Y733576D01*
X262722Y733564D01*
X262730Y733551D01*
X262850Y733409D01*
X262968Y733265D01*
X262980Y733255D01*
X262990Y733244D01*
X263136Y733128D01*
X263280Y733011D01*
X263294Y733004D01*
X263306Y732994D01*
X263472Y732910D01*
X263636Y732823D01*
X263651Y732819D01*
X263665Y732812D01*
X263844Y732762D01*
X264022Y732709D01*
X264038Y732708D01*
X264053Y732704D01*
X264239Y732690D01*
X264423Y732674D01*
X264439Y732675D01*
X264455Y732674D01*
X264640Y732698D01*
X264824Y732718D01*
X264838Y732723D01*
X264854Y732725D01*
X265030Y732784D01*
X265207Y732840D01*
X265221Y732848D01*
X265236Y732853D01*
X265397Y732946D01*
X265559Y733036D01*
X265571Y733046D01*
X265585Y733054D01*
X265838Y733268D01*
X267462Y734893D01*
X268248Y735219D01*
X269952Y735925D01*
X272648Y735925D01*
X275138Y734893D01*
X277124Y732907D01*
X277247Y732760D01*
X277370Y732612D01*
X277377Y732606D01*
X277383Y732599D01*
X277534Y732479D01*
X277683Y732358D01*
X277691Y732354D01*
X277698Y732348D01*
X277869Y732260D01*
X278039Y732171D01*
X278048Y732169D01*
X278056Y732164D01*
X278239Y732113D01*
X278426Y732058D01*
X278435Y732057D01*
X278444Y732055D01*
X278634Y732040D01*
X278827Y732023D01*
X278836Y732025D01*
X278845Y732024D01*
X279036Y732047D01*
X279227Y732069D01*
X279236Y732071D01*
X279245Y732073D01*
X279427Y732133D01*
X279610Y732192D01*
X279618Y732196D01*
X279627Y732199D01*
X279795Y732295D01*
X279962Y732388D01*
X279969Y732394D01*
X279977Y732399D01*
X280123Y732526D01*
X280267Y732650D01*
X280273Y732657D01*
X280280Y732663D01*
X280398Y732816D01*
X280442Y732873D01*
X282462Y734893D01*
X283248Y735219D01*
X284952Y735925D01*
X287648Y735925D01*
X290138Y734893D01*
X292043Y732988D01*
X293075Y730498D01*
X293075Y717302D01*
X292043Y714812D01*
X290138Y712907D01*
X287648Y711875D01*
X284952Y711875D01*
X284458Y712080D01*
X284436Y712087D01*
X284416Y712097D01*
X284244Y712145D01*
X284072Y712197D01*
X284050Y712199D01*
X284028Y712205D01*
X283849Y712218D01*
X283671Y712235D01*
X283649Y712233D01*
X283627Y712234D01*
X283449Y712212D01*
X283271Y712193D01*
X283250Y712187D01*
X283227Y712184D01*
X283057Y712127D01*
X282886Y712073D01*
X282867Y712063D01*
X282846Y712056D01*
X282690Y711966D01*
X282533Y711880D01*
X282516Y711866D01*
X282497Y711855D01*
X282244Y711640D01*
X147786Y577182D01*
X145405Y574801D01*
X103704Y574801D01*
X103678Y574799D01*
X103651Y574801D01*
X103477Y574779D01*
X103304Y574761D01*
X103278Y574754D01*
X103251Y574750D01*
X103086Y574695D01*
X102919Y574643D01*
X102895Y574630D01*
X102870Y574622D01*
X102718Y574535D01*
X102565Y574451D01*
X102544Y574434D01*
X102521Y574421D01*
X102268Y574206D01*
X86194Y558132D01*
X86177Y558111D01*
X86156Y558094D01*
X86049Y557956D01*
X85939Y557821D01*
X85926Y557797D01*
X85910Y557776D01*
X85832Y557619D01*
X85750Y557465D01*
X85742Y557439D01*
X85730Y557415D01*
X85685Y557246D01*
X85635Y557079D01*
X85633Y557052D01*
X85626Y557027D01*
X85599Y556696D01*
X85599Y544837D01*
X81340Y540578D01*
X81323Y540557D01*
X81302Y540540D01*
X81195Y540402D01*
X81085Y540267D01*
X81072Y540243D01*
X81056Y540222D01*
X80978Y540065D01*
X80896Y539911D01*
X80888Y539885D01*
X80876Y539861D01*
X80831Y539692D01*
X80781Y539525D01*
X80779Y539498D01*
X80772Y539473D01*
X80745Y539142D01*
X80745Y538846D01*
X80053Y537176D01*
X78774Y535897D01*
X77104Y535205D01*
X74930Y535205D01*
X74912Y535203D01*
X74894Y535205D01*
X74712Y535184D01*
X74529Y535165D01*
X74512Y535160D01*
X74495Y535158D01*
X74320Y535101D01*
X74144Y535047D01*
X74129Y535039D01*
X74112Y535033D01*
X73952Y534943D01*
X73790Y534855D01*
X73777Y534844D01*
X73761Y534835D01*
X73622Y534715D01*
X73481Y534598D01*
X73470Y534584D01*
X73456Y534572D01*
X73344Y534427D01*
X73229Y534284D01*
X73221Y534268D01*
X73210Y534254D01*
X73128Y534089D01*
X73043Y533927D01*
X73038Y533910D01*
X73030Y533894D01*
X72983Y533715D01*
X72932Y533540D01*
X72930Y533522D01*
X72926Y533505D01*
X72899Y533174D01*
X72899Y529154D01*
X72901Y529128D01*
X72899Y529101D01*
X72921Y528927D01*
X72939Y528754D01*
X72946Y528728D01*
X72950Y528701D01*
X73005Y528536D01*
X73057Y528369D01*
X73070Y528345D01*
X73078Y528320D01*
X73165Y528168D01*
X73249Y528015D01*
X73266Y527994D01*
X73279Y527971D01*
X73494Y527718D01*
X79249Y521963D01*
X79249Y503754D01*
X79251Y503728D01*
X79249Y503701D01*
X79271Y503527D01*
X79289Y503354D01*
X79296Y503328D01*
X79300Y503301D01*
X79355Y503136D01*
X79407Y502969D01*
X79420Y502945D01*
X79428Y502920D01*
X79515Y502768D01*
X79599Y502615D01*
X79616Y502594D01*
X79629Y502571D01*
X79844Y502318D01*
X81722Y500440D01*
X81743Y500423D01*
X81760Y500402D01*
X81898Y500295D01*
X82033Y500185D01*
X82057Y500172D01*
X82078Y500156D01*
X82235Y500078D01*
X82389Y499996D01*
X82415Y499988D01*
X82439Y499976D01*
X82608Y499931D01*
X82775Y499881D01*
X82802Y499879D01*
X82827Y499872D01*
X83158Y499845D01*
X83454Y499845D01*
X85124Y499153D01*
X86403Y497874D01*
X87095Y496204D01*
X87095Y494396D01*
X86403Y492726D01*
X85124Y491447D01*
X84414Y491153D01*
X84413Y491153D01*
X83454Y490755D01*
X81646Y490755D01*
X79976Y491447D01*
X78697Y492726D01*
X78005Y494396D01*
X78005Y494692D01*
X78003Y494718D01*
X78005Y494745D01*
X77983Y494919D01*
X77965Y495092D01*
X77958Y495118D01*
X77954Y495145D01*
X77899Y495310D01*
X77847Y495477D01*
X77834Y495501D01*
X77826Y495526D01*
X77739Y495678D01*
X77655Y495831D01*
X77638Y495852D01*
X77625Y495875D01*
X77410Y496128D01*
X73151Y500387D01*
X73151Y518596D01*
X73149Y518622D01*
X73151Y518649D01*
X73129Y518822D01*
X73111Y518996D01*
X73104Y519022D01*
X73100Y519048D01*
X73045Y519214D01*
X72993Y519381D01*
X72981Y519405D01*
X72972Y519430D01*
X72885Y519581D01*
X72801Y519735D01*
X72784Y519756D01*
X72771Y519779D01*
X72556Y520032D01*
X72384Y520204D01*
X72374Y520213D01*
X72365Y520223D01*
X72218Y520340D01*
X72073Y520459D01*
X72061Y520466D01*
X72050Y520474D01*
X71884Y520560D01*
X71717Y520648D01*
X71704Y520652D01*
X71692Y520658D01*
X71512Y520709D01*
X71331Y520763D01*
X71317Y520764D01*
X71305Y520768D01*
X71119Y520782D01*
X70930Y520799D01*
X70916Y520798D01*
X70903Y520799D01*
X70719Y520776D01*
X70530Y520756D01*
X70517Y520752D01*
X70504Y520750D01*
X70327Y520692D01*
X70146Y520635D01*
X70134Y520628D01*
X70121Y520624D01*
X69959Y520531D01*
X69794Y520440D01*
X69783Y520431D01*
X69772Y520424D01*
X69630Y520301D01*
X69487Y520179D01*
X69478Y520169D01*
X69468Y520160D01*
X69354Y520011D01*
X69237Y519863D01*
X69231Y519851D01*
X69223Y519841D01*
X69071Y519546D01*
X68238Y517534D01*
X66666Y515962D01*
X64612Y515111D01*
X62388Y515111D01*
X60334Y515962D01*
X54270Y522026D01*
X54270Y522027D01*
X52649Y523648D01*
X52645Y523650D01*
X52642Y523654D01*
X52487Y523780D01*
X52337Y523903D01*
X52333Y523905D01*
X52330Y523908D01*
X52154Y524000D01*
X51981Y524091D01*
X51977Y524093D01*
X51973Y524095D01*
X51784Y524150D01*
X51596Y524206D01*
X51591Y524207D01*
X51587Y524208D01*
X51536Y524212D01*
X51608Y524353D01*
X51609Y524357D01*
X51611Y524361D01*
X51662Y524549D01*
X51716Y524741D01*
X51716Y524745D01*
X51717Y524749D01*
X51730Y524941D01*
X51745Y525142D01*
X51744Y525147D01*
X51745Y525151D01*
X51720Y525341D01*
X51695Y525542D01*
X51693Y525546D01*
X51693Y525550D01*
X51591Y525866D01*
X51561Y525938D01*
X51561Y535177D01*
X51560Y535185D01*
X51561Y535194D01*
X51540Y535386D01*
X51521Y535577D01*
X51519Y535586D01*
X51518Y535595D01*
X51461Y535776D01*
X51403Y535962D01*
X51399Y535970D01*
X51396Y535979D01*
X51303Y536147D01*
X51211Y536316D01*
X51206Y536323D01*
X51201Y536331D01*
X51076Y536479D01*
X50954Y536625D01*
X50947Y536631D01*
X50941Y536638D01*
X50790Y536757D01*
X50640Y536878D01*
X50632Y536882D01*
X50625Y536887D01*
X50454Y536974D01*
X50283Y537063D01*
X50274Y537066D01*
X50266Y537070D01*
X50081Y537121D01*
X49896Y537175D01*
X49887Y537175D01*
X49878Y537178D01*
X49686Y537192D01*
X49494Y537208D01*
X49486Y537207D01*
X49477Y537207D01*
X49284Y537183D01*
X49095Y537161D01*
X49086Y537158D01*
X49077Y537157D01*
X48894Y537095D01*
X48712Y537036D01*
X48704Y537031D01*
X48696Y537029D01*
X48530Y536933D01*
X48361Y536838D01*
X48354Y536832D01*
X48347Y536828D01*
X48094Y536613D01*
X47166Y535685D01*
X45404Y534955D01*
X43496Y534955D01*
X41734Y535685D01*
X40385Y537034D01*
X39655Y538796D01*
X39655Y540704D01*
X40385Y542466D01*
X41734Y543815D01*
X43496Y544545D01*
X45404Y544545D01*
X47166Y543815D01*
X48094Y542887D01*
X48101Y542881D01*
X48106Y542875D01*
X48256Y542754D01*
X48405Y542632D01*
X48413Y542628D01*
X48420Y542622D01*
X48590Y542534D01*
X48761Y542443D01*
X48770Y542441D01*
X48777Y542437D01*
X48962Y542384D01*
X49147Y542329D01*
X49156Y542328D01*
X49164Y542325D01*
X49355Y542310D01*
X49548Y542292D01*
X49557Y542293D01*
X49566Y542292D01*
X49755Y542315D01*
X49948Y542336D01*
X49957Y542338D01*
X49965Y542339D01*
X50147Y542399D01*
X50332Y542457D01*
X50340Y542461D01*
X50348Y542464D01*
X50515Y542558D01*
X50684Y542652D01*
X50691Y542658D01*
X50699Y542662D01*
X50844Y542787D01*
X50991Y542912D01*
X50997Y542919D01*
X51004Y542925D01*
X51120Y543076D01*
X51241Y543228D01*
X51245Y543236D01*
X51250Y543243D01*
X51335Y543414D01*
X51423Y543587D01*
X51426Y543596D01*
X51430Y543604D01*
X51479Y543789D01*
X51531Y543975D01*
X51532Y543984D01*
X51534Y543993D01*
X51561Y544323D01*
X51561Y553562D01*
X52392Y555567D01*
X52396Y555580D01*
X52402Y555591D01*
X52454Y555771D01*
X52508Y555952D01*
X52510Y555965D01*
X52513Y555978D01*
X52529Y556166D01*
X52546Y556353D01*
X52545Y556366D01*
X52546Y556380D01*
X52524Y556567D01*
X52505Y556753D01*
X52501Y556766D01*
X52499Y556779D01*
X52441Y556959D01*
X52385Y557138D01*
X52378Y557149D01*
X52374Y557162D01*
X52281Y557327D01*
X52192Y557491D01*
X52183Y557501D01*
X52176Y557513D01*
X52053Y557655D01*
X51932Y557799D01*
X51922Y557807D01*
X51913Y557818D01*
X51765Y557933D01*
X51618Y558050D01*
X51606Y558056D01*
X51595Y558064D01*
X51426Y558148D01*
X51260Y558234D01*
X51247Y558238D01*
X51235Y558244D01*
X51052Y558293D01*
X50872Y558344D01*
X50859Y558345D01*
X50846Y558348D01*
X50515Y558375D01*
X37852Y558375D01*
X35362Y559407D01*
X33263Y561506D01*
X33242Y561523D01*
X33225Y561544D01*
X33087Y561651D01*
X32951Y561761D01*
X32928Y561774D01*
X32906Y561790D01*
X32750Y561868D01*
X32596Y561950D01*
X32570Y561958D01*
X32546Y561970D01*
X32377Y562015D01*
X32210Y562065D01*
X32183Y562067D01*
X32157Y562074D01*
X31826Y562101D01*
X17780Y562101D01*
X17762Y562099D01*
X17744Y562101D01*
X17562Y562080D01*
X17379Y562061D01*
X17362Y562056D01*
X17345Y562054D01*
X17170Y561997D01*
X16994Y561943D01*
X16979Y561935D01*
X16962Y561929D01*
X16802Y561839D01*
X16640Y561751D01*
X16627Y561740D01*
X16611Y561731D01*
X16472Y561611D01*
X16331Y561494D01*
X16320Y561480D01*
X16306Y561468D01*
X16194Y561323D01*
X16079Y561180D01*
X16071Y561164D01*
X16060Y561150D01*
X15978Y560985D01*
X15893Y560823D01*
X15888Y560806D01*
X15880Y560790D01*
X15833Y560611D01*
X15782Y560436D01*
X15780Y560418D01*
X15776Y560401D01*
X15749Y560070D01*
X15749Y520743D01*
X15750Y520729D01*
X15749Y520716D01*
X15770Y520529D01*
X15789Y520342D01*
X15793Y520329D01*
X15794Y520316D01*
X15852Y520137D01*
X15907Y519957D01*
X15913Y519945D01*
X15917Y519933D01*
X16009Y519769D01*
X16099Y519603D01*
X16107Y519593D01*
X16114Y519581D01*
X16237Y519437D01*
X16356Y519294D01*
X16367Y519286D01*
X16376Y519275D01*
X16523Y519160D01*
X16670Y519042D01*
X16682Y519036D01*
X16693Y519027D01*
X16861Y518943D01*
X17027Y518856D01*
X17040Y518853D01*
X17052Y518846D01*
X17233Y518797D01*
X17414Y518745D01*
X17428Y518744D01*
X17441Y518740D01*
X17627Y518727D01*
X17816Y518712D01*
X17829Y518714D01*
X17842Y518713D01*
X18028Y518737D01*
X18215Y518759D01*
X18228Y518763D01*
X18242Y518765D01*
X18557Y518866D01*
X18626Y518895D01*
X20434Y518895D01*
X22104Y518203D01*
X23383Y516924D01*
X24075Y515254D01*
X24075Y514958D01*
X24077Y514932D01*
X24075Y514905D01*
X24097Y514731D01*
X24115Y514558D01*
X24122Y514532D01*
X24126Y514505D01*
X24181Y514340D01*
X24233Y514173D01*
X24246Y514149D01*
X24254Y514124D01*
X24341Y513972D01*
X24425Y513819D01*
X24442Y513798D01*
X24455Y513775D01*
X24670Y513522D01*
X41189Y497003D01*
X41194Y496986D01*
X41196Y496969D01*
X41199Y496961D01*
X41200Y496951D01*
X41256Y496785D01*
X41307Y496619D01*
X41315Y496603D01*
X41321Y496586D01*
X41325Y496579D01*
X41328Y496570D01*
X41415Y496418D01*
X41499Y496265D01*
X41510Y496250D01*
X41519Y496236D01*
X41524Y496229D01*
X41529Y496221D01*
X41744Y495968D01*
X43622Y494090D01*
X43643Y494073D01*
X43660Y494052D01*
X43798Y493945D01*
X43933Y493835D01*
X43957Y493822D01*
X43978Y493806D01*
X44135Y493728D01*
X44289Y493646D01*
X44315Y493638D01*
X44339Y493626D01*
X44508Y493581D01*
X44675Y493531D01*
X44702Y493529D01*
X44727Y493522D01*
X45058Y493495D01*
X45354Y493495D01*
X47024Y492803D01*
X48303Y491524D01*
X48995Y489854D01*
X48995Y488046D01*
X48303Y486376D01*
X47024Y485097D01*
X46932Y485059D01*
X45354Y484405D01*
X43546Y484405D01*
X41876Y485097D01*
X40597Y486376D01*
X39905Y488046D01*
X39905Y488342D01*
X39903Y488368D01*
X39905Y488395D01*
X39883Y488569D01*
X39865Y488742D01*
X39858Y488768D01*
X39854Y488795D01*
X39798Y488960D01*
X39747Y489127D01*
X39734Y489151D01*
X39726Y489176D01*
X39639Y489328D01*
X39555Y489481D01*
X39538Y489502D01*
X39525Y489525D01*
X39310Y489778D01*
X35011Y494077D01*
X35004Y494102D01*
X35000Y494129D01*
X34945Y494294D01*
X34893Y494461D01*
X34880Y494485D01*
X34872Y494510D01*
X34785Y494662D01*
X34701Y494815D01*
X34684Y494836D01*
X34671Y494859D01*
X34456Y495112D01*
X20358Y509210D01*
X20337Y509227D01*
X20320Y509248D01*
X20182Y509355D01*
X20047Y509465D01*
X20023Y509478D01*
X20002Y509494D01*
X19845Y509572D01*
X19691Y509654D01*
X19665Y509662D01*
X19641Y509674D01*
X19472Y509719D01*
X19305Y509769D01*
X19278Y509771D01*
X19253Y509778D01*
X18922Y509805D01*
X18626Y509805D01*
X18557Y509834D01*
X18544Y509838D01*
X18533Y509844D01*
X18352Y509896D01*
X18172Y509950D01*
X18159Y509951D01*
X18146Y509955D01*
X17958Y509971D01*
X17771Y509988D01*
X17758Y509987D01*
X17744Y509988D01*
X17557Y509966D01*
X17371Y509947D01*
X17358Y509943D01*
X17345Y509941D01*
X17165Y509883D01*
X16986Y509827D01*
X16975Y509820D01*
X16962Y509816D01*
X16798Y509724D01*
X16633Y509634D01*
X16623Y509625D01*
X16611Y509618D01*
X16469Y509496D01*
X16325Y509375D01*
X16317Y509364D01*
X16306Y509355D01*
X16191Y509207D01*
X16074Y509060D01*
X16068Y509048D01*
X16060Y509037D01*
X15976Y508869D01*
X15890Y508702D01*
X15886Y508689D01*
X15880Y508677D01*
X15831Y508494D01*
X15780Y508314D01*
X15779Y508301D01*
X15776Y508288D01*
X15749Y507957D01*
X15749Y325954D01*
X15751Y325928D01*
X15749Y325901D01*
X15771Y325727D01*
X15789Y325554D01*
X15796Y325528D01*
X15800Y325501D01*
X15855Y325336D01*
X15907Y325169D01*
X15920Y325145D01*
X15928Y325120D01*
X16015Y324968D01*
X16099Y324815D01*
X16116Y324794D01*
X16129Y324771D01*
X16344Y324518D01*
X16976Y323886D01*
X16986Y323877D01*
X16995Y323867D01*
X17142Y323749D01*
X17287Y323631D01*
X17299Y323625D01*
X17310Y323616D01*
X17479Y323529D01*
X17643Y323442D01*
X17656Y323438D01*
X17668Y323432D01*
X17849Y323381D01*
X18029Y323327D01*
X18042Y323326D01*
X18055Y323323D01*
X18241Y323308D01*
X18430Y323291D01*
X18443Y323292D01*
X18456Y323291D01*
X18641Y323314D01*
X18830Y323334D01*
X18843Y323338D01*
X18856Y323340D01*
X19033Y323399D01*
X19214Y323456D01*
X19226Y323462D01*
X19238Y323467D01*
X19402Y323560D01*
X19566Y323651D01*
X19576Y323659D01*
X19588Y323666D01*
X19729Y323789D01*
X19873Y323911D01*
X19882Y323922D01*
X19892Y323931D01*
X20006Y324079D01*
X20123Y324227D01*
X20129Y324239D01*
X20137Y324250D01*
X20289Y324545D01*
X21067Y326424D01*
X21276Y326634D01*
X21293Y326654D01*
X21314Y326672D01*
X21421Y326810D01*
X21531Y326945D01*
X21544Y326969D01*
X21560Y326990D01*
X21638Y327147D01*
X21720Y327301D01*
X21728Y327326D01*
X21740Y327350D01*
X21785Y327520D01*
X21835Y327687D01*
X21837Y327713D01*
X21844Y327739D01*
X21871Y328070D01*
X21871Y466160D01*
X21869Y466187D01*
X21871Y466213D01*
X21849Y466387D01*
X21831Y466561D01*
X21824Y466586D01*
X21820Y466613D01*
X21765Y466778D01*
X21713Y466946D01*
X21700Y466969D01*
X21692Y466995D01*
X21665Y467042D01*
X20855Y468996D01*
X20855Y470804D01*
X21547Y472474D01*
X22826Y473753D01*
X24496Y474445D01*
X26304Y474445D01*
X27974Y473753D01*
X29253Y472474D01*
X29945Y470804D01*
X29945Y468996D01*
X29253Y467326D01*
X28564Y466636D01*
X28547Y466616D01*
X28526Y466598D01*
X28419Y466460D01*
X28309Y466325D01*
X28296Y466301D01*
X28280Y466280D01*
X28202Y466123D01*
X28120Y465969D01*
X28112Y465944D01*
X28100Y465920D01*
X28055Y465750D01*
X28005Y465583D01*
X28003Y465557D01*
X27996Y465531D01*
X27969Y465200D01*
X27969Y361034D01*
X27970Y361025D01*
X27969Y361016D01*
X27990Y360823D01*
X28009Y360634D01*
X28011Y360625D01*
X28012Y360616D01*
X28070Y360433D01*
X28127Y360249D01*
X28131Y360241D01*
X28134Y360232D01*
X28226Y360065D01*
X28319Y359895D01*
X28324Y359888D01*
X28329Y359880D01*
X28453Y359733D01*
X28576Y359585D01*
X28583Y359580D01*
X28589Y359573D01*
X28741Y359453D01*
X28890Y359333D01*
X28898Y359329D01*
X28905Y359323D01*
X29078Y359236D01*
X29247Y359147D01*
X29256Y359145D01*
X29264Y359141D01*
X29450Y359089D01*
X29634Y359036D01*
X29643Y359035D01*
X29652Y359033D01*
X29845Y359019D01*
X30036Y359003D01*
X30044Y359004D01*
X30053Y359004D01*
X30246Y359028D01*
X30435Y359050D01*
X30444Y359053D01*
X30453Y359054D01*
X30636Y359115D01*
X30818Y359175D01*
X30826Y359179D01*
X30834Y359182D01*
X31001Y359278D01*
X31169Y359373D01*
X31176Y359379D01*
X31183Y359383D01*
X31436Y359598D01*
X45660Y373822D01*
X45677Y373843D01*
X45698Y373860D01*
X45805Y373998D01*
X45915Y374133D01*
X45928Y374157D01*
X45944Y374178D01*
X46022Y374335D01*
X46104Y374489D01*
X46112Y374515D01*
X46124Y374539D01*
X46169Y374708D01*
X46219Y374875D01*
X46221Y374902D01*
X46228Y374927D01*
X46255Y375258D01*
X46255Y375554D01*
X46947Y377224D01*
X48226Y378503D01*
X49896Y379195D01*
X51704Y379195D01*
X51773Y379166D01*
X51786Y379162D01*
X51797Y379156D01*
X51978Y379104D01*
X52158Y379050D01*
X52171Y379049D01*
X52184Y379045D01*
X52372Y379029D01*
X52559Y379012D01*
X52572Y379013D01*
X52586Y379012D01*
X52773Y379034D01*
X52959Y379053D01*
X52972Y379057D01*
X52985Y379059D01*
X53165Y379117D01*
X53344Y379173D01*
X53355Y379180D01*
X53368Y379184D01*
X53532Y379276D01*
X53697Y379366D01*
X53707Y379375D01*
X53719Y379382D01*
X53861Y379504D01*
X54005Y379625D01*
X54013Y379636D01*
X54024Y379645D01*
X54139Y379793D01*
X54256Y379940D01*
X54262Y379952D01*
X54270Y379963D01*
X54354Y380131D01*
X54440Y380298D01*
X54444Y380311D01*
X54450Y380323D01*
X54499Y380506D01*
X54550Y380686D01*
X54551Y380699D01*
X54554Y380712D01*
X54581Y381043D01*
X54581Y389093D01*
X71060Y405572D01*
X71077Y405593D01*
X71098Y405610D01*
X71205Y405748D01*
X71315Y405883D01*
X71328Y405907D01*
X71344Y405928D01*
X71422Y406085D01*
X71504Y406239D01*
X71512Y406265D01*
X71524Y406289D01*
X71569Y406458D01*
X71619Y406625D01*
X71621Y406652D01*
X71628Y406677D01*
X71655Y407008D01*
X71655Y407304D01*
X72347Y408974D01*
X73626Y410253D01*
X75296Y410945D01*
X76050Y410945D01*
X76068Y410947D01*
X76086Y410945D01*
X76268Y410966D01*
X76451Y410985D01*
X76468Y410990D01*
X76486Y410992D01*
X76660Y411049D01*
X76836Y411103D01*
X76851Y411111D01*
X76868Y411117D01*
X77029Y411207D01*
X77190Y411295D01*
X77203Y411306D01*
X77219Y411315D01*
X77358Y411435D01*
X77499Y411552D01*
X77510Y411566D01*
X77524Y411578D01*
X77636Y411723D01*
X77751Y411866D01*
X77760Y411882D01*
X77771Y411896D01*
X77853Y412061D01*
X77937Y412223D01*
X77942Y412240D01*
X77950Y412256D01*
X77998Y412435D01*
X78048Y412610D01*
X78050Y412628D01*
X78054Y412645D01*
X78081Y412976D01*
X78081Y413730D01*
X78773Y415401D01*
X80052Y416679D01*
X81722Y417371D01*
X82476Y417371D01*
X82494Y417373D01*
X82512Y417371D01*
X82694Y417393D01*
X82877Y417411D01*
X82894Y417416D01*
X82912Y417418D01*
X83086Y417475D01*
X83262Y417529D01*
X83278Y417537D01*
X83295Y417543D01*
X83455Y417633D01*
X83616Y417721D01*
X83630Y417732D01*
X83645Y417741D01*
X83784Y417861D01*
X83925Y417978D01*
X83936Y417992D01*
X83950Y418004D01*
X84062Y418149D01*
X84178Y418292D01*
X84186Y418308D01*
X84197Y418322D01*
X84279Y418487D01*
X84363Y418650D01*
X84368Y418667D01*
X84376Y418683D01*
X84424Y418861D01*
X84474Y419036D01*
X84476Y419054D01*
X84481Y419071D01*
X84508Y419402D01*
X84508Y420156D01*
X85200Y421827D01*
X86478Y423105D01*
X88148Y423797D01*
X88903Y423797D01*
X88920Y423799D01*
X88938Y423797D01*
X89120Y423819D01*
X89303Y423837D01*
X89320Y423842D01*
X89338Y423844D01*
X89513Y423901D01*
X89688Y423955D01*
X89704Y423964D01*
X89721Y423969D01*
X89881Y424060D01*
X90042Y424147D01*
X90056Y424158D01*
X90071Y424167D01*
X90211Y424287D01*
X90351Y424405D01*
X90363Y424419D01*
X90376Y424430D01*
X90489Y424575D01*
X90604Y424718D01*
X90612Y424734D01*
X90623Y424748D01*
X90705Y424913D01*
X90789Y425076D01*
X90794Y425093D01*
X90802Y425109D01*
X90850Y425287D01*
X90901Y425463D01*
X90902Y425480D01*
X90907Y425498D01*
X90934Y425828D01*
X90934Y426583D01*
X91626Y428253D01*
X92904Y429531D01*
X94575Y430223D01*
X96383Y430223D01*
X98053Y429531D01*
X99331Y428253D01*
X100023Y426583D01*
X100023Y424775D01*
X99295Y423017D01*
X99271Y422987D01*
X99258Y422964D01*
X99242Y422943D01*
X99164Y422786D01*
X99082Y422632D01*
X99075Y422606D01*
X99063Y422582D01*
X99017Y422413D01*
X98968Y422246D01*
X98965Y422219D01*
X98958Y422193D01*
X98931Y421862D01*
X98931Y335920D01*
X92544Y329532D01*
X92527Y329511D01*
X92506Y329494D01*
X92399Y329356D01*
X92289Y329221D01*
X92276Y329197D01*
X92260Y329176D01*
X92182Y329019D01*
X92100Y328865D01*
X92092Y328839D01*
X92080Y328815D01*
X92035Y328646D01*
X91985Y328479D01*
X91983Y328452D01*
X91976Y328427D01*
X91949Y328096D01*
X91949Y262454D01*
X91951Y262428D01*
X91949Y262401D01*
X91971Y262227D01*
X91989Y262054D01*
X91996Y262028D01*
X92000Y262001D01*
X92056Y261835D01*
X92107Y261669D01*
X92119Y261645D01*
X92128Y261620D01*
X92215Y261468D01*
X92299Y261315D01*
X92316Y261294D01*
X92329Y261271D01*
X92544Y261018D01*
X94576Y258986D01*
X94583Y258980D01*
X94588Y258973D01*
X94738Y258853D01*
X94887Y258731D01*
X94895Y258727D01*
X94902Y258721D01*
X95072Y258633D01*
X95243Y258542D01*
X95252Y258540D01*
X95259Y258535D01*
X95444Y258482D01*
X95629Y258427D01*
X95638Y258427D01*
X95646Y258424D01*
X95837Y258408D01*
X96030Y258391D01*
X96039Y258392D01*
X96048Y258391D01*
X96237Y258413D01*
X96430Y258434D01*
X96439Y258437D01*
X96447Y258438D01*
X96629Y258497D01*
X96814Y258556D01*
X96822Y258560D01*
X96830Y258563D01*
X96996Y258657D01*
X97166Y258751D01*
X97173Y258756D01*
X97181Y258761D01*
X97325Y258886D01*
X97473Y259011D01*
X97479Y259018D01*
X97486Y259024D01*
X97602Y259175D01*
X97723Y259327D01*
X97727Y259335D01*
X97732Y259342D01*
X97818Y259514D01*
X97905Y259686D01*
X97908Y259695D01*
X97912Y259703D01*
X97962Y259889D01*
X98013Y260074D01*
X98014Y260083D01*
X98016Y260091D01*
X98043Y260422D01*
X98043Y301107D01*
X98040Y301138D01*
X98042Y301169D01*
X98020Y301338D01*
X98003Y301507D01*
X97994Y301537D01*
X97990Y301568D01*
X97889Y301884D01*
X97055Y303896D01*
X97055Y305704D01*
X97747Y307374D01*
X99026Y308653D01*
X100524Y309273D01*
X100532Y309278D01*
X100540Y309280D01*
X100708Y309372D01*
X100879Y309464D01*
X100885Y309469D01*
X100893Y309474D01*
X101040Y309597D01*
X101189Y309720D01*
X101195Y309727D01*
X101201Y309733D01*
X101321Y309882D01*
X101443Y310033D01*
X101447Y310041D01*
X101452Y310047D01*
X101539Y310217D01*
X101630Y310389D01*
X101632Y310398D01*
X101636Y310406D01*
X101688Y310589D01*
X101743Y310775D01*
X101744Y310785D01*
X101746Y310793D01*
X101761Y310984D01*
X101777Y311177D01*
X101776Y311186D01*
X101777Y311194D01*
X101754Y311384D01*
X101732Y311577D01*
X101730Y311585D01*
X101729Y311594D01*
X101668Y311776D01*
X101609Y311960D01*
X101605Y311968D01*
X101602Y311976D01*
X101506Y312144D01*
X101413Y312311D01*
X101407Y312318D01*
X101403Y312326D01*
X101275Y312472D01*
X101151Y312617D01*
X101144Y312623D01*
X101138Y312630D01*
X100985Y312747D01*
X100834Y312866D01*
X100826Y312870D01*
X100819Y312875D01*
X100524Y313027D01*
X99026Y313647D01*
X97747Y314926D01*
X97055Y316596D01*
X97055Y318404D01*
X97747Y320074D01*
X99026Y321353D01*
X100696Y322045D01*
X102504Y322045D01*
X104174Y321353D01*
X105453Y320074D01*
X106286Y318062D01*
X106301Y318035D01*
X106311Y318005D01*
X106396Y317858D01*
X106476Y317708D01*
X106496Y317684D01*
X106512Y317656D01*
X106727Y317403D01*
X115178Y308952D01*
X117857Y306273D01*
X117857Y262665D01*
X117859Y262638D01*
X117857Y262611D01*
X117879Y262437D01*
X117897Y262264D01*
X117904Y262239D01*
X117908Y262212D01*
X117963Y262046D01*
X118015Y261879D01*
X118028Y261856D01*
X118036Y261830D01*
X118123Y261679D01*
X118207Y261525D01*
X118224Y261505D01*
X118237Y261481D01*
X118452Y261228D01*
X132676Y247004D01*
X132683Y246999D01*
X132688Y246992D01*
X132838Y246871D01*
X132987Y246749D01*
X132995Y246745D01*
X133002Y246739D01*
X133172Y246651D01*
X133343Y246561D01*
X133352Y246558D01*
X133359Y246554D01*
X133544Y246501D01*
X133729Y246446D01*
X133738Y246445D01*
X133746Y246443D01*
X133938Y246427D01*
X134130Y246409D01*
X134139Y246410D01*
X134148Y246410D01*
X134337Y246432D01*
X134530Y246453D01*
X134539Y246456D01*
X134547Y246457D01*
X134729Y246516D01*
X134914Y246574D01*
X134922Y246579D01*
X134930Y246581D01*
X135099Y246676D01*
X135266Y246769D01*
X135273Y246775D01*
X135281Y246779D01*
X135427Y246905D01*
X135573Y247030D01*
X135579Y247037D01*
X135586Y247042D01*
X135703Y247194D01*
X135823Y247346D01*
X135827Y247354D01*
X135832Y247361D01*
X135917Y247531D01*
X136005Y247704D01*
X136008Y247713D01*
X136012Y247721D01*
X136062Y247908D01*
X136113Y248092D01*
X136114Y248101D01*
X136116Y248110D01*
X136143Y248441D01*
X136143Y536057D01*
X136140Y536088D01*
X136142Y536119D01*
X136120Y536288D01*
X136103Y536457D01*
X136094Y536487D01*
X136090Y536518D01*
X135989Y536834D01*
X135155Y538846D01*
X135155Y540654D01*
X135847Y542324D01*
X137126Y543603D01*
X138763Y544281D01*
X138796Y544295D01*
X140604Y544295D01*
X142274Y543603D01*
X143553Y542324D01*
X144245Y540654D01*
X144245Y538846D01*
X143411Y536834D01*
X143402Y536804D01*
X143388Y536776D01*
X143344Y536611D01*
X143295Y536449D01*
X143292Y536418D01*
X143284Y536387D01*
X143257Y536057D01*
X143257Y249965D01*
X143259Y249938D01*
X143257Y249911D01*
X143279Y249737D01*
X143297Y249564D01*
X143304Y249539D01*
X143308Y249512D01*
X143363Y249346D01*
X143415Y249179D01*
X143428Y249156D01*
X143436Y249130D01*
X143523Y248979D01*
X143607Y248825D01*
X143624Y248805D01*
X143637Y248781D01*
X143852Y248528D01*
X144085Y248295D01*
X144106Y248278D01*
X144124Y248257D01*
X144261Y248150D01*
X144397Y248040D01*
X144420Y248027D01*
X144442Y248011D01*
X144599Y247933D01*
X144753Y247851D01*
X144778Y247843D01*
X144802Y247831D01*
X144972Y247786D01*
X145138Y247736D01*
X145165Y247734D01*
X145191Y247727D01*
X145522Y247700D01*
X147323Y247700D01*
X149675Y246725D01*
X151475Y244925D01*
X152450Y242573D01*
X152450Y240027D01*
X151475Y237675D01*
X149675Y235875D01*
X148333Y235319D01*
X148321Y235312D01*
X148309Y235308D01*
X148145Y235218D01*
X147978Y235129D01*
X147968Y235120D01*
X147956Y235114D01*
X147814Y234992D01*
X147668Y234872D01*
X147660Y234862D01*
X147649Y234853D01*
X147533Y234705D01*
X147414Y234559D01*
X147408Y234548D01*
X147400Y234537D01*
X147314Y234369D01*
X147227Y234203D01*
X147223Y234190D01*
X147217Y234178D01*
X147167Y233996D01*
X147114Y233817D01*
X147113Y233803D01*
X147109Y233790D01*
X147096Y233602D01*
X147079Y233415D01*
X147081Y233402D01*
X147080Y233389D01*
X147104Y233200D01*
X147125Y233015D01*
X147129Y233003D01*
X147130Y232989D01*
X147190Y232810D01*
X147248Y232632D01*
X147254Y232620D01*
X147259Y232608D01*
X147353Y232444D01*
X147444Y232281D01*
X147453Y232270D01*
X147460Y232259D01*
X147674Y232006D01*
X160390Y219290D01*
X163069Y216611D01*
X163069Y147085D01*
X163071Y147059D01*
X163069Y147032D01*
X163091Y146858D01*
X163109Y146685D01*
X163116Y146659D01*
X163120Y146633D01*
X163175Y146467D01*
X163227Y146300D01*
X163240Y146276D01*
X163248Y146251D01*
X163335Y146099D01*
X163419Y145946D01*
X163436Y145925D01*
X163449Y145902D01*
X163664Y145649D01*
X164482Y144831D01*
X164502Y144814D01*
X164520Y144794D01*
X164658Y144687D01*
X164793Y144576D01*
X164817Y144563D01*
X164838Y144547D01*
X164995Y144469D01*
X165149Y144387D01*
X165174Y144380D01*
X165199Y144368D01*
X165368Y144322D01*
X165535Y144273D01*
X165561Y144270D01*
X165587Y144263D01*
X165765Y144249D01*
X167557Y143506D01*
X168906Y142157D01*
X169650Y140362D01*
X169659Y140291D01*
X169676Y140117D01*
X169684Y140092D01*
X169687Y140065D01*
X169743Y139900D01*
X169794Y139732D01*
X169807Y139709D01*
X169815Y139684D01*
X169903Y139532D01*
X169986Y139378D01*
X170003Y139358D01*
X170016Y139335D01*
X170231Y139082D01*
X201477Y107836D01*
X201477Y50099D01*
X201480Y50068D01*
X201478Y50037D01*
X201500Y49868D01*
X201517Y49699D01*
X201526Y49669D01*
X201530Y49638D01*
X201632Y49322D01*
X202465Y47310D01*
X202465Y45502D01*
X201773Y43832D01*
X200495Y42553D01*
X198824Y41861D01*
X197016Y41861D01*
G37*
%LPD*%
%LPC*%
G36*
X773796Y230405D02*
X773796Y230405D01*
X772126Y231097D01*
X770847Y232376D01*
X770014Y234388D01*
X769999Y234415D01*
X769989Y234445D01*
X769904Y234592D01*
X769824Y234742D01*
X769804Y234766D01*
X769788Y234794D01*
X769573Y235047D01*
X723022Y281598D01*
X720343Y284277D01*
X720343Y308835D01*
X720341Y308862D01*
X720343Y308889D01*
X720321Y309063D01*
X720303Y309236D01*
X720296Y309261D01*
X720292Y309288D01*
X720237Y309454D01*
X720185Y309621D01*
X720172Y309644D01*
X720164Y309670D01*
X720077Y309821D01*
X719993Y309975D01*
X719976Y309995D01*
X719963Y310019D01*
X719748Y310272D01*
X691272Y338748D01*
X691251Y338765D01*
X691233Y338786D01*
X691096Y338893D01*
X690960Y339003D01*
X690937Y339016D01*
X690915Y339032D01*
X690758Y339110D01*
X690604Y339192D01*
X690579Y339200D01*
X690555Y339212D01*
X690385Y339257D01*
X690219Y339307D01*
X690192Y339309D01*
X690166Y339316D01*
X689835Y339343D01*
X573815Y339343D01*
X573788Y339341D01*
X573761Y339343D01*
X573587Y339321D01*
X573414Y339303D01*
X573389Y339296D01*
X573362Y339292D01*
X573196Y339237D01*
X573029Y339185D01*
X573006Y339172D01*
X572980Y339164D01*
X572829Y339077D01*
X572675Y338993D01*
X572655Y338976D01*
X572631Y338963D01*
X572378Y338748D01*
X543902Y310272D01*
X543885Y310251D01*
X543864Y310233D01*
X543757Y310096D01*
X543647Y309960D01*
X543634Y309937D01*
X543618Y309915D01*
X543540Y309758D01*
X543458Y309604D01*
X543450Y309579D01*
X543438Y309555D01*
X543393Y309385D01*
X543343Y309219D01*
X543341Y309192D01*
X543334Y309166D01*
X543307Y308835D01*
X543307Y271577D01*
X522173Y250443D01*
X505343Y250443D01*
X505312Y250440D01*
X505281Y250442D01*
X505112Y250420D01*
X504943Y250403D01*
X504913Y250394D01*
X504882Y250390D01*
X504566Y250289D01*
X502554Y249455D01*
X500746Y249455D01*
X499076Y250147D01*
X497797Y251426D01*
X497105Y253096D01*
X497105Y254904D01*
X497939Y256916D01*
X497948Y256946D01*
X497962Y256974D01*
X498006Y257139D01*
X498055Y257301D01*
X498058Y257332D01*
X498066Y257363D01*
X498093Y257693D01*
X498093Y289785D01*
X498091Y289812D01*
X498093Y289839D01*
X498071Y290013D01*
X498053Y290186D01*
X498046Y290211D01*
X498042Y290238D01*
X497987Y290404D01*
X497935Y290571D01*
X497922Y290594D01*
X497914Y290620D01*
X497827Y290771D01*
X497743Y290925D01*
X497726Y290945D01*
X497713Y290969D01*
X497498Y291222D01*
X449972Y338748D01*
X449951Y338765D01*
X449934Y338786D01*
X449796Y338893D01*
X449660Y339003D01*
X449637Y339016D01*
X449615Y339032D01*
X449458Y339110D01*
X449304Y339192D01*
X449279Y339200D01*
X449255Y339212D01*
X449085Y339257D01*
X448919Y339307D01*
X448892Y339309D01*
X448866Y339316D01*
X448535Y339343D01*
X299241Y339343D01*
X299232Y339342D01*
X299223Y339343D01*
X299031Y339322D01*
X298840Y339303D01*
X298831Y339301D01*
X298823Y339300D01*
X298640Y339242D01*
X298455Y339185D01*
X298447Y339181D01*
X298439Y339178D01*
X298270Y339085D01*
X298101Y338993D01*
X298094Y338988D01*
X298086Y338983D01*
X297939Y338858D01*
X297792Y338736D01*
X297786Y338729D01*
X297779Y338723D01*
X297659Y338571D01*
X297539Y338422D01*
X297535Y338414D01*
X297530Y338407D01*
X297442Y338235D01*
X297354Y338065D01*
X297351Y338056D01*
X297347Y338048D01*
X297296Y337862D01*
X297243Y337678D01*
X297242Y337669D01*
X297239Y337660D01*
X297225Y337468D01*
X297210Y337276D01*
X297211Y337268D01*
X297210Y337259D01*
X297234Y337066D01*
X297257Y336877D01*
X297259Y336868D01*
X297260Y336859D01*
X297322Y336676D01*
X297381Y336494D01*
X297386Y336486D01*
X297389Y336478D01*
X297484Y336312D01*
X297579Y336143D01*
X297585Y336136D01*
X297590Y336129D01*
X297804Y335876D01*
X299328Y334352D01*
X299349Y334335D01*
X299367Y334314D01*
X299505Y334207D01*
X299640Y334097D01*
X299664Y334084D01*
X299685Y334068D01*
X299841Y333990D01*
X299996Y333908D01*
X300021Y333900D01*
X300045Y333888D01*
X300214Y333843D01*
X300381Y333793D01*
X300408Y333791D01*
X300434Y333784D01*
X300765Y333757D01*
X445973Y333757D01*
X473457Y306273D01*
X473457Y267243D01*
X473460Y267212D01*
X473458Y267181D01*
X473480Y267012D01*
X473497Y266843D01*
X473506Y266813D01*
X473510Y266782D01*
X473611Y266466D01*
X474445Y264454D01*
X474445Y262646D01*
X473753Y260976D01*
X472474Y259697D01*
X470804Y259005D01*
X468996Y259005D01*
X467326Y259697D01*
X466047Y260976D01*
X465355Y262646D01*
X465355Y264454D01*
X466189Y266466D01*
X466198Y266496D01*
X466212Y266524D01*
X466256Y266689D01*
X466305Y266851D01*
X466308Y266882D01*
X466316Y266913D01*
X466343Y267243D01*
X466343Y302485D01*
X466341Y302512D01*
X466343Y302539D01*
X466321Y302713D01*
X466303Y302886D01*
X466296Y302911D01*
X466292Y302938D01*
X466237Y303104D01*
X466185Y303271D01*
X466172Y303294D01*
X466164Y303320D01*
X466077Y303471D01*
X465993Y303625D01*
X465976Y303645D01*
X465963Y303669D01*
X465748Y303922D01*
X443622Y326048D01*
X443601Y326065D01*
X443583Y326086D01*
X443446Y326193D01*
X443310Y326303D01*
X443287Y326316D01*
X443265Y326332D01*
X443108Y326410D01*
X442954Y326492D01*
X442929Y326500D01*
X442905Y326512D01*
X442735Y326557D01*
X442569Y326607D01*
X442542Y326609D01*
X442516Y326616D01*
X442185Y326643D01*
X296977Y326643D01*
X183272Y440348D01*
X183251Y440365D01*
X183233Y440386D01*
X183096Y440493D01*
X182960Y440603D01*
X182937Y440616D01*
X182915Y440632D01*
X182758Y440710D01*
X182604Y440792D01*
X182579Y440800D01*
X182555Y440812D01*
X182385Y440857D01*
X182219Y440907D01*
X182192Y440909D01*
X182166Y440916D01*
X181835Y440943D01*
X167415Y440943D01*
X167388Y440941D01*
X167361Y440943D01*
X167187Y440921D01*
X167014Y440903D01*
X166989Y440896D01*
X166962Y440892D01*
X166796Y440837D01*
X166629Y440785D01*
X166605Y440772D01*
X166580Y440764D01*
X166429Y440677D01*
X166275Y440593D01*
X166255Y440576D01*
X166231Y440563D01*
X165978Y440348D01*
X157527Y431897D01*
X157507Y431872D01*
X157483Y431852D01*
X157379Y431716D01*
X157271Y431585D01*
X157257Y431558D01*
X157238Y431533D01*
X157086Y431238D01*
X156253Y429226D01*
X154974Y427947D01*
X153304Y427255D01*
X151496Y427255D01*
X149826Y427947D01*
X148547Y429226D01*
X147855Y430896D01*
X147855Y432704D01*
X148547Y434374D01*
X149826Y435653D01*
X151324Y436273D01*
X151332Y436278D01*
X151340Y436280D01*
X151511Y436374D01*
X151679Y436464D01*
X151685Y436469D01*
X151693Y436474D01*
X151841Y436597D01*
X151989Y436720D01*
X151995Y436727D01*
X152001Y436733D01*
X152122Y436883D01*
X152243Y437033D01*
X152247Y437041D01*
X152252Y437048D01*
X152341Y437220D01*
X152430Y437389D01*
X152432Y437398D01*
X152436Y437406D01*
X152489Y437593D01*
X152543Y437776D01*
X152544Y437784D01*
X152546Y437793D01*
X152561Y437986D01*
X152577Y438177D01*
X152576Y438186D01*
X152577Y438194D01*
X152554Y438386D01*
X152532Y438577D01*
X152530Y438585D01*
X152528Y438594D01*
X152468Y438777D01*
X152409Y438960D01*
X152405Y438968D01*
X152402Y438976D01*
X152307Y439143D01*
X152213Y439312D01*
X152207Y439318D01*
X152203Y439326D01*
X152076Y439471D01*
X151951Y439617D01*
X151944Y439623D01*
X151938Y439630D01*
X151785Y439748D01*
X151634Y439866D01*
X151626Y439870D01*
X151619Y439875D01*
X151324Y440027D01*
X149826Y440647D01*
X148547Y441926D01*
X147855Y443596D01*
X147855Y445404D01*
X148547Y447074D01*
X149826Y448353D01*
X150935Y448812D01*
X150935Y448813D01*
X151838Y449186D01*
X151865Y449201D01*
X151895Y449211D01*
X152042Y449296D01*
X152192Y449376D01*
X152216Y449396D01*
X152244Y449412D01*
X152497Y449627D01*
X163627Y460757D01*
X242773Y460757D01*
X276607Y426923D01*
X276607Y402365D01*
X276609Y402338D01*
X276607Y402311D01*
X276629Y402137D01*
X276647Y401964D01*
X276654Y401939D01*
X276658Y401912D01*
X276713Y401746D01*
X276765Y401579D01*
X276778Y401556D01*
X276786Y401530D01*
X276873Y401379D01*
X276957Y401225D01*
X276974Y401205D01*
X276987Y401181D01*
X277202Y400928D01*
X305678Y372452D01*
X305699Y372435D01*
X305717Y372414D01*
X305854Y372307D01*
X305990Y372197D01*
X306013Y372184D01*
X306035Y372168D01*
X306192Y372090D01*
X306346Y372008D01*
X306371Y372000D01*
X306395Y371988D01*
X306565Y371943D01*
X306731Y371893D01*
X306758Y371891D01*
X306784Y371884D01*
X307115Y371857D01*
X680923Y371857D01*
X746507Y306273D01*
X746507Y288065D01*
X746509Y288038D01*
X746507Y288011D01*
X746529Y287837D01*
X746547Y287664D01*
X746554Y287639D01*
X746558Y287612D01*
X746613Y287446D01*
X746665Y287279D01*
X746678Y287256D01*
X746686Y287230D01*
X746773Y287079D01*
X746857Y286925D01*
X746874Y286905D01*
X746887Y286881D01*
X747102Y286628D01*
X761903Y271827D01*
X761928Y271807D01*
X761948Y271783D01*
X762083Y271679D01*
X762215Y271571D01*
X762242Y271557D01*
X762267Y271538D01*
X762562Y271386D01*
X764574Y270553D01*
X765853Y269274D01*
X766545Y267604D01*
X766545Y265796D01*
X765853Y264126D01*
X764574Y262847D01*
X762904Y262155D01*
X761096Y262155D01*
X759426Y262847D01*
X758147Y264126D01*
X757314Y266138D01*
X757299Y266165D01*
X757289Y266195D01*
X757204Y266342D01*
X757124Y266492D01*
X757104Y266516D01*
X757088Y266544D01*
X756873Y266797D01*
X742072Y281598D01*
X739393Y284277D01*
X739393Y302485D01*
X739391Y302512D01*
X739393Y302539D01*
X739371Y302713D01*
X739353Y302886D01*
X739346Y302911D01*
X739342Y302938D01*
X739287Y303104D01*
X739235Y303271D01*
X739222Y303295D01*
X739214Y303320D01*
X739127Y303471D01*
X739043Y303625D01*
X739026Y303645D01*
X739013Y303669D01*
X738798Y303922D01*
X730924Y311796D01*
X730917Y311801D01*
X730912Y311808D01*
X730762Y311929D01*
X730613Y312051D01*
X730605Y312055D01*
X730598Y312061D01*
X730428Y312149D01*
X730257Y312239D01*
X730248Y312242D01*
X730241Y312246D01*
X730056Y312299D01*
X729871Y312354D01*
X729862Y312355D01*
X729854Y312357D01*
X729662Y312373D01*
X729470Y312391D01*
X729461Y312390D01*
X729452Y312390D01*
X729263Y312368D01*
X729070Y312347D01*
X729061Y312344D01*
X729053Y312343D01*
X728871Y312284D01*
X728686Y312226D01*
X728678Y312221D01*
X728670Y312219D01*
X728501Y312124D01*
X728334Y312031D01*
X728327Y312025D01*
X728319Y312021D01*
X728173Y311895D01*
X728027Y311770D01*
X728021Y311763D01*
X728014Y311758D01*
X727897Y311606D01*
X727777Y311454D01*
X727773Y311446D01*
X727768Y311439D01*
X727682Y311267D01*
X727595Y311096D01*
X727592Y311087D01*
X727588Y311079D01*
X727538Y310892D01*
X727487Y310708D01*
X727486Y310699D01*
X727484Y310690D01*
X727457Y310359D01*
X727457Y288065D01*
X727459Y288038D01*
X727457Y288011D01*
X727479Y287837D01*
X727497Y287664D01*
X727504Y287639D01*
X727508Y287612D01*
X727563Y287446D01*
X727615Y287279D01*
X727628Y287256D01*
X727636Y287230D01*
X727723Y287079D01*
X727807Y286925D01*
X727824Y286905D01*
X727837Y286881D01*
X728052Y286628D01*
X774603Y240077D01*
X774628Y240057D01*
X774648Y240033D01*
X774783Y239929D01*
X774915Y239821D01*
X774942Y239807D01*
X774967Y239788D01*
X775262Y239636D01*
X777274Y238803D01*
X778553Y237524D01*
X779245Y235854D01*
X779245Y234046D01*
X778553Y232376D01*
X777274Y231097D01*
X775604Y230405D01*
X773796Y230405D01*
G37*
%LPD*%
%LPC*%
G36*
X799196Y262155D02*
X799196Y262155D01*
X797526Y262847D01*
X796247Y264126D01*
X795414Y266138D01*
X795399Y266165D01*
X795389Y266195D01*
X795304Y266342D01*
X795224Y266492D01*
X795204Y266516D01*
X795188Y266544D01*
X794973Y266797D01*
X684922Y376848D01*
X684901Y376865D01*
X684883Y376886D01*
X684746Y376993D01*
X684610Y377103D01*
X684587Y377116D01*
X684565Y377132D01*
X684408Y377210D01*
X684254Y377292D01*
X684229Y377300D01*
X684205Y377312D01*
X684035Y377357D01*
X683869Y377407D01*
X683842Y377409D01*
X683816Y377416D01*
X683485Y377443D01*
X309677Y377443D01*
X282193Y404927D01*
X282193Y415407D01*
X282190Y415438D01*
X282192Y415469D01*
X282170Y415638D01*
X282153Y415807D01*
X282144Y415837D01*
X282140Y415868D01*
X282039Y416184D01*
X281205Y418196D01*
X281205Y420004D01*
X281897Y421674D01*
X283176Y422953D01*
X284887Y423662D01*
X284898Y423668D01*
X284911Y423672D01*
X285075Y423763D01*
X285241Y423852D01*
X285252Y423860D01*
X285263Y423867D01*
X285406Y423988D01*
X285552Y424108D01*
X285560Y424119D01*
X285570Y424127D01*
X285687Y424275D01*
X285806Y424421D01*
X285812Y424433D01*
X285820Y424443D01*
X285906Y424612D01*
X285993Y424777D01*
X285996Y424790D01*
X286002Y424802D01*
X286053Y424984D01*
X286106Y425164D01*
X286107Y425177D01*
X286110Y425190D01*
X286124Y425379D01*
X286140Y425565D01*
X286139Y425578D01*
X286140Y425591D01*
X286116Y425780D01*
X286095Y425965D01*
X286091Y425978D01*
X286089Y425991D01*
X286029Y426170D01*
X285972Y426348D01*
X285965Y426360D01*
X285961Y426373D01*
X285867Y426536D01*
X285776Y426700D01*
X285767Y426710D01*
X285760Y426721D01*
X285546Y426974D01*
X240422Y472098D01*
X240401Y472115D01*
X240383Y472136D01*
X240246Y472243D01*
X240110Y472353D01*
X240087Y472366D01*
X240065Y472382D01*
X239908Y472460D01*
X239754Y472542D01*
X239729Y472550D01*
X239705Y472562D01*
X239535Y472607D01*
X239369Y472657D01*
X239342Y472659D01*
X239316Y472666D01*
X238985Y472693D01*
X175143Y472693D01*
X175112Y472690D01*
X175081Y472692D01*
X174912Y472670D01*
X174743Y472653D01*
X174713Y472644D01*
X174682Y472640D01*
X174366Y472539D01*
X172354Y471705D01*
X170546Y471705D01*
X168876Y472397D01*
X167597Y473676D01*
X166889Y475387D01*
X166882Y475398D01*
X166878Y475411D01*
X166787Y475576D01*
X166698Y475741D01*
X166690Y475752D01*
X166683Y475763D01*
X166562Y475907D01*
X166442Y476052D01*
X166432Y476060D01*
X166423Y476070D01*
X166276Y476187D01*
X166129Y476306D01*
X166117Y476312D01*
X166107Y476320D01*
X165939Y476405D01*
X165773Y476493D01*
X165760Y476496D01*
X165748Y476502D01*
X165567Y476553D01*
X165386Y476606D01*
X165373Y476607D01*
X165360Y476610D01*
X165172Y476624D01*
X164985Y476640D01*
X164972Y476639D01*
X164959Y476640D01*
X164771Y476616D01*
X164585Y476595D01*
X164572Y476591D01*
X164559Y476589D01*
X164381Y476529D01*
X164202Y476472D01*
X164190Y476465D01*
X164177Y476461D01*
X164014Y476367D01*
X163850Y476276D01*
X163840Y476267D01*
X163829Y476260D01*
X163576Y476046D01*
X156552Y469022D01*
X156535Y469001D01*
X156514Y468983D01*
X156407Y468846D01*
X156297Y468710D01*
X156284Y468687D01*
X156268Y468665D01*
X156190Y468508D01*
X156108Y468354D01*
X156100Y468329D01*
X156088Y468305D01*
X156043Y468135D01*
X155993Y467969D01*
X155991Y467942D01*
X155984Y467916D01*
X155957Y467585D01*
X155957Y467243D01*
X155960Y467212D01*
X155958Y467181D01*
X155980Y467012D01*
X155997Y466843D01*
X156006Y466813D01*
X156010Y466782D01*
X156111Y466466D01*
X156945Y464454D01*
X156945Y462646D01*
X156253Y460976D01*
X154974Y459697D01*
X153304Y459005D01*
X151496Y459005D01*
X149826Y459697D01*
X148547Y460976D01*
X147855Y462646D01*
X147855Y464454D01*
X148689Y466466D01*
X148698Y466496D01*
X148712Y466524D01*
X148756Y466689D01*
X148805Y466851D01*
X148808Y466882D01*
X148816Y466913D01*
X148843Y467243D01*
X148843Y471373D01*
X195377Y517907D01*
X486635Y517907D01*
X486662Y517909D01*
X486689Y517907D01*
X486863Y517929D01*
X487036Y517947D01*
X487061Y517954D01*
X487088Y517958D01*
X487254Y518013D01*
X487421Y518065D01*
X487445Y518078D01*
X487470Y518086D01*
X487621Y518173D01*
X487775Y518257D01*
X487795Y518274D01*
X487819Y518287D01*
X488072Y518502D01*
X496523Y526953D01*
X496543Y526978D01*
X496567Y526998D01*
X496671Y527133D01*
X496779Y527265D01*
X496793Y527292D01*
X496812Y527317D01*
X496964Y527612D01*
X497797Y529624D01*
X499076Y530903D01*
X500746Y531595D01*
X502554Y531595D01*
X504224Y530903D01*
X505503Y529624D01*
X506195Y527954D01*
X506195Y526146D01*
X505503Y524476D01*
X504224Y523197D01*
X502212Y522364D01*
X502185Y522349D01*
X502155Y522339D01*
X502008Y522254D01*
X501858Y522174D01*
X501834Y522154D01*
X501806Y522138D01*
X501553Y521923D01*
X493102Y513472D01*
X490423Y510793D01*
X199165Y510793D01*
X199138Y510791D01*
X199111Y510793D01*
X198937Y510771D01*
X198764Y510753D01*
X198739Y510746D01*
X198712Y510742D01*
X198546Y510687D01*
X198379Y510635D01*
X198356Y510622D01*
X198330Y510614D01*
X198179Y510527D01*
X198025Y510443D01*
X198005Y510426D01*
X197981Y510413D01*
X197728Y510198D01*
X171654Y484124D01*
X171646Y484114D01*
X171636Y484105D01*
X171518Y483958D01*
X171399Y483813D01*
X171393Y483801D01*
X171385Y483791D01*
X171298Y483621D01*
X171211Y483457D01*
X171207Y483445D01*
X171201Y483432D01*
X171149Y483249D01*
X171096Y483071D01*
X171095Y483058D01*
X171091Y483045D01*
X171077Y482858D01*
X171060Y482670D01*
X171061Y482657D01*
X171060Y482644D01*
X171083Y482459D01*
X171103Y482270D01*
X171107Y482257D01*
X171109Y482244D01*
X171167Y482067D01*
X171224Y481886D01*
X171231Y481874D01*
X171235Y481862D01*
X171328Y481699D01*
X171419Y481534D01*
X171428Y481524D01*
X171435Y481512D01*
X171558Y481370D01*
X171680Y481227D01*
X171690Y481219D01*
X171699Y481208D01*
X171849Y481093D01*
X171996Y480977D01*
X172008Y480971D01*
X172018Y480963D01*
X172313Y480811D01*
X174366Y479961D01*
X174396Y479952D01*
X174424Y479938D01*
X174589Y479894D01*
X174751Y479845D01*
X174782Y479842D01*
X174813Y479834D01*
X175143Y479807D01*
X242773Y479807D01*
X245452Y477128D01*
X284491Y438089D01*
X284502Y438080D01*
X284510Y438070D01*
X284657Y437953D01*
X284803Y437834D01*
X284815Y437827D01*
X284825Y437819D01*
X284994Y437732D01*
X285159Y437645D01*
X285171Y437641D01*
X285183Y437635D01*
X285366Y437583D01*
X285544Y437530D01*
X285558Y437529D01*
X285571Y437525D01*
X285758Y437511D01*
X285945Y437494D01*
X285959Y437495D01*
X285972Y437494D01*
X286157Y437517D01*
X286346Y437537D01*
X286359Y437541D01*
X286372Y437543D01*
X286549Y437602D01*
X286730Y437659D01*
X286741Y437665D01*
X286754Y437669D01*
X286917Y437762D01*
X287082Y437854D01*
X287092Y437862D01*
X287104Y437869D01*
X287246Y437992D01*
X287389Y438114D01*
X287397Y438125D01*
X287407Y438133D01*
X287522Y438283D01*
X287638Y438430D01*
X287644Y438442D01*
X287653Y438452D01*
X287804Y438748D01*
X288247Y439817D01*
X289526Y441095D01*
X291196Y441787D01*
X293004Y441787D01*
X295016Y440954D01*
X295046Y440945D01*
X295074Y440931D01*
X295239Y440887D01*
X295401Y440837D01*
X295432Y440834D01*
X295463Y440826D01*
X295793Y440799D01*
X440531Y440799D01*
X451728Y429602D01*
X451749Y429585D01*
X451767Y429564D01*
X451904Y429457D01*
X452040Y429347D01*
X452063Y429334D01*
X452085Y429318D01*
X452242Y429240D01*
X452396Y429158D01*
X452421Y429150D01*
X452445Y429138D01*
X452615Y429093D01*
X452781Y429043D01*
X452808Y429041D01*
X452834Y429034D01*
X453165Y429007D01*
X639035Y429007D01*
X639062Y429009D01*
X639089Y429007D01*
X639263Y429029D01*
X639436Y429047D01*
X639461Y429054D01*
X639488Y429058D01*
X639654Y429113D01*
X639821Y429165D01*
X639844Y429178D01*
X639870Y429186D01*
X640021Y429273D01*
X640175Y429357D01*
X640195Y429374D01*
X640219Y429387D01*
X640472Y429602D01*
X726098Y515228D01*
X726115Y515249D01*
X726136Y515267D01*
X726243Y515404D01*
X726353Y515540D01*
X726366Y515563D01*
X726382Y515585D01*
X726460Y515742D01*
X726542Y515896D01*
X726550Y515921D01*
X726562Y515945D01*
X726607Y516115D01*
X726657Y516281D01*
X726659Y516308D01*
X726666Y516334D01*
X726693Y516665D01*
X726693Y536057D01*
X726690Y536088D01*
X726692Y536119D01*
X726670Y536288D01*
X726653Y536457D01*
X726644Y536487D01*
X726640Y536518D01*
X726539Y536834D01*
X725705Y538846D01*
X725705Y540654D01*
X726397Y542324D01*
X727676Y543603D01*
X729313Y544281D01*
X729346Y544295D01*
X731154Y544295D01*
X732824Y543603D01*
X734103Y542324D01*
X734795Y540654D01*
X734795Y538846D01*
X733961Y536834D01*
X733952Y536804D01*
X733938Y536776D01*
X733894Y536611D01*
X733845Y536449D01*
X733842Y536418D01*
X733834Y536387D01*
X733807Y536057D01*
X733807Y512877D01*
X642823Y421893D01*
X449377Y421893D01*
X438179Y433091D01*
X438158Y433108D01*
X438141Y433128D01*
X438003Y433235D01*
X437868Y433346D01*
X437844Y433358D01*
X437823Y433375D01*
X437666Y433453D01*
X437512Y433535D01*
X437486Y433542D01*
X437462Y433554D01*
X437293Y433600D01*
X437126Y433649D01*
X437099Y433652D01*
X437074Y433659D01*
X436743Y433686D01*
X295793Y433686D01*
X295762Y433683D01*
X295731Y433685D01*
X295562Y433663D01*
X295393Y433646D01*
X295363Y433637D01*
X295332Y433633D01*
X295016Y433531D01*
X293605Y432947D01*
X293593Y432940D01*
X293581Y432936D01*
X293417Y432846D01*
X293250Y432757D01*
X293240Y432748D01*
X293228Y432742D01*
X293085Y432620D01*
X292940Y432500D01*
X292931Y432490D01*
X292921Y432481D01*
X292805Y432334D01*
X292686Y432188D01*
X292680Y432176D01*
X292672Y432165D01*
X292587Y431998D01*
X292499Y431831D01*
X292495Y431818D01*
X292489Y431806D01*
X292439Y431625D01*
X292386Y431445D01*
X292385Y431431D01*
X292381Y431418D01*
X292367Y431230D01*
X292351Y431044D01*
X292353Y431030D01*
X292352Y431017D01*
X292376Y430829D01*
X292397Y430643D01*
X292401Y430631D01*
X292402Y430617D01*
X292462Y430439D01*
X292520Y430260D01*
X292526Y430248D01*
X292531Y430236D01*
X292625Y430072D01*
X292716Y429909D01*
X292725Y429898D01*
X292731Y429887D01*
X292946Y429634D01*
X302007Y420573D01*
X302007Y408715D01*
X302009Y408688D01*
X302007Y408661D01*
X302029Y408488D01*
X302047Y408314D01*
X302054Y408288D01*
X302058Y408262D01*
X302113Y408096D01*
X302165Y407929D01*
X302178Y407906D01*
X302186Y407880D01*
X302273Y407729D01*
X302357Y407575D01*
X302374Y407555D01*
X302387Y407531D01*
X302602Y407278D01*
X303275Y406604D01*
X303286Y406596D01*
X303294Y406586D01*
X303441Y406469D01*
X303587Y406349D01*
X303599Y406343D01*
X303609Y406335D01*
X303775Y406250D01*
X303943Y406161D01*
X303956Y406157D01*
X303967Y406151D01*
X304147Y406100D01*
X304329Y406046D01*
X304342Y406045D01*
X304355Y406041D01*
X304540Y406027D01*
X304730Y406010D01*
X304743Y406011D01*
X304756Y406010D01*
X304941Y406033D01*
X305130Y406053D01*
X305143Y406057D01*
X305156Y406059D01*
X305333Y406117D01*
X305514Y406174D01*
X305525Y406181D01*
X305538Y406185D01*
X305701Y406278D01*
X305866Y406369D01*
X305876Y406378D01*
X305888Y406385D01*
X306030Y406508D01*
X306173Y406630D01*
X306181Y406640D01*
X306191Y406649D01*
X306306Y406798D01*
X306423Y406946D01*
X306429Y406958D01*
X306437Y406968D01*
X306588Y407263D01*
X307297Y408974D01*
X308576Y410253D01*
X310246Y410945D01*
X312054Y410945D01*
X314066Y410111D01*
X314096Y410102D01*
X314124Y410088D01*
X314289Y410044D01*
X314451Y409995D01*
X314482Y409992D01*
X314513Y409984D01*
X314843Y409957D01*
X639035Y409957D01*
X639062Y409959D01*
X639089Y409957D01*
X639263Y409979D01*
X639436Y409997D01*
X639461Y410004D01*
X639488Y410008D01*
X639654Y410063D01*
X639821Y410115D01*
X639844Y410128D01*
X639870Y410136D01*
X640021Y410223D01*
X640175Y410307D01*
X640195Y410324D01*
X640219Y410337D01*
X640472Y410552D01*
X751498Y521578D01*
X751515Y521599D01*
X751536Y521617D01*
X751643Y521754D01*
X751753Y521890D01*
X751766Y521913D01*
X751782Y521935D01*
X751860Y522092D01*
X751942Y522246D01*
X751950Y522271D01*
X751962Y522295D01*
X752007Y522465D01*
X752057Y522631D01*
X752059Y522658D01*
X752066Y522684D01*
X752093Y523015D01*
X752093Y536057D01*
X752090Y536088D01*
X752092Y536119D01*
X752070Y536288D01*
X752053Y536457D01*
X752044Y536487D01*
X752040Y536518D01*
X751939Y536834D01*
X751105Y538846D01*
X751105Y540654D01*
X751797Y542324D01*
X753076Y543603D01*
X754713Y544281D01*
X754746Y544295D01*
X756554Y544295D01*
X758224Y543603D01*
X759503Y542324D01*
X760195Y540654D01*
X760195Y538846D01*
X759361Y536834D01*
X759352Y536804D01*
X759338Y536776D01*
X759294Y536611D01*
X759245Y536449D01*
X759242Y536418D01*
X759234Y536387D01*
X759207Y536057D01*
X759207Y519227D01*
X642823Y402843D01*
X314843Y402843D01*
X314812Y402840D01*
X314781Y402842D01*
X314612Y402820D01*
X314443Y402803D01*
X314413Y402794D01*
X314382Y402790D01*
X314066Y402689D01*
X312013Y401838D01*
X312002Y401832D01*
X311989Y401828D01*
X311824Y401737D01*
X311659Y401648D01*
X311648Y401640D01*
X311636Y401633D01*
X311493Y401512D01*
X311348Y401392D01*
X311340Y401381D01*
X311330Y401373D01*
X311213Y401225D01*
X311094Y401079D01*
X311088Y401067D01*
X311080Y401057D01*
X310994Y400888D01*
X310907Y400723D01*
X310904Y400710D01*
X310898Y400698D01*
X310847Y400517D01*
X310794Y400336D01*
X310793Y400323D01*
X310790Y400310D01*
X310776Y400122D01*
X310760Y399935D01*
X310761Y399922D01*
X310760Y399908D01*
X310784Y399721D01*
X310805Y399535D01*
X310809Y399522D01*
X310811Y399509D01*
X310871Y399330D01*
X310928Y399152D01*
X310935Y399140D01*
X310939Y399127D01*
X311033Y398964D01*
X311124Y398800D01*
X311133Y398790D01*
X311140Y398778D01*
X311354Y398525D01*
X312028Y397852D01*
X312049Y397835D01*
X312067Y397814D01*
X312205Y397707D01*
X312340Y397597D01*
X312363Y397584D01*
X312385Y397568D01*
X312541Y397490D01*
X312696Y397408D01*
X312721Y397400D01*
X312745Y397388D01*
X312914Y397343D01*
X313081Y397293D01*
X313108Y397291D01*
X313134Y397284D01*
X313465Y397257D01*
X645385Y397257D01*
X645412Y397259D01*
X645439Y397257D01*
X645613Y397279D01*
X645786Y397297D01*
X645811Y397304D01*
X645838Y397308D01*
X646004Y397363D01*
X646171Y397415D01*
X646194Y397428D01*
X646220Y397436D01*
X646371Y397523D01*
X646525Y397607D01*
X646545Y397624D01*
X646569Y397637D01*
X646822Y397852D01*
X769573Y520603D01*
X769593Y520628D01*
X769617Y520648D01*
X769721Y520783D01*
X769829Y520915D01*
X769843Y520942D01*
X769862Y520967D01*
X770014Y521262D01*
X770847Y523274D01*
X772126Y524553D01*
X773796Y525245D01*
X775604Y525245D01*
X777274Y524553D01*
X778553Y523274D01*
X779245Y521604D01*
X779245Y519796D01*
X778553Y518126D01*
X777274Y516847D01*
X775262Y516014D01*
X775235Y515999D01*
X775205Y515989D01*
X775058Y515904D01*
X774908Y515824D01*
X774884Y515804D01*
X774856Y515788D01*
X774603Y515573D01*
X651852Y392822D01*
X649173Y390143D01*
X311941Y390143D01*
X311932Y390142D01*
X311923Y390143D01*
X311731Y390122D01*
X311540Y390103D01*
X311531Y390101D01*
X311523Y390100D01*
X311340Y390042D01*
X311155Y389985D01*
X311147Y389981D01*
X311139Y389978D01*
X310970Y389885D01*
X310801Y389793D01*
X310794Y389788D01*
X310786Y389783D01*
X310639Y389658D01*
X310492Y389536D01*
X310486Y389529D01*
X310479Y389523D01*
X310359Y389371D01*
X310239Y389222D01*
X310235Y389214D01*
X310230Y389207D01*
X310142Y389035D01*
X310054Y388865D01*
X310051Y388856D01*
X310047Y388848D01*
X309996Y388662D01*
X309943Y388478D01*
X309942Y388469D01*
X309939Y388460D01*
X309925Y388268D01*
X309910Y388076D01*
X309911Y388068D01*
X309910Y388059D01*
X309934Y387866D01*
X309957Y387677D01*
X309959Y387668D01*
X309960Y387659D01*
X310022Y387476D01*
X310081Y387294D01*
X310086Y387286D01*
X310089Y387278D01*
X310184Y387111D01*
X310279Y386943D01*
X310285Y386936D01*
X310290Y386929D01*
X310504Y386676D01*
X312028Y385152D01*
X312049Y385135D01*
X312067Y385114D01*
X312205Y385007D01*
X312340Y384897D01*
X312364Y384884D01*
X312385Y384868D01*
X312541Y384790D01*
X312696Y384708D01*
X312721Y384700D01*
X312745Y384688D01*
X312914Y384643D01*
X313081Y384593D01*
X313108Y384591D01*
X313134Y384584D01*
X313465Y384557D01*
X687273Y384557D01*
X689952Y381878D01*
X800003Y271827D01*
X800028Y271807D01*
X800048Y271783D01*
X800183Y271679D01*
X800315Y271571D01*
X800342Y271557D01*
X800367Y271538D01*
X800662Y271386D01*
X802674Y270553D01*
X803953Y269274D01*
X804645Y267604D01*
X804645Y265796D01*
X803953Y264126D01*
X802674Y262847D01*
X801004Y262155D01*
X799196Y262155D01*
G37*
%LPD*%
%LPC*%
G36*
X157846Y535205D02*
X157846Y535205D01*
X156176Y535897D01*
X154897Y537176D01*
X154205Y538846D01*
X154205Y540654D01*
X154897Y542324D01*
X156176Y543603D01*
X158188Y544436D01*
X158215Y544451D01*
X158245Y544461D01*
X158392Y544546D01*
X158542Y544626D01*
X158566Y544646D01*
X158594Y544662D01*
X158847Y544877D01*
X159396Y545426D01*
X159401Y545433D01*
X159408Y545438D01*
X159529Y545588D01*
X159651Y545737D01*
X159655Y545745D01*
X159661Y545752D01*
X159749Y545923D01*
X159839Y546093D01*
X159842Y546101D01*
X159846Y546109D01*
X159899Y546295D01*
X159954Y546479D01*
X159955Y546488D01*
X159957Y546496D01*
X159973Y546688D01*
X159991Y546880D01*
X159990Y546889D01*
X159990Y546898D01*
X159968Y547087D01*
X159947Y547280D01*
X159944Y547289D01*
X159943Y547297D01*
X159884Y547479D01*
X159826Y547664D01*
X159821Y547672D01*
X159819Y547680D01*
X159724Y547849D01*
X159631Y548016D01*
X159625Y548023D01*
X159621Y548031D01*
X159495Y548177D01*
X159370Y548323D01*
X159363Y548329D01*
X159358Y548336D01*
X159207Y548453D01*
X159054Y548573D01*
X159046Y548577D01*
X159039Y548582D01*
X158867Y548668D01*
X158696Y548755D01*
X158687Y548758D01*
X158679Y548762D01*
X158492Y548812D01*
X158308Y548863D01*
X158299Y548864D01*
X158290Y548866D01*
X157959Y548893D01*
X156093Y548893D01*
X156062Y548890D01*
X156031Y548892D01*
X155862Y548870D01*
X155693Y548853D01*
X155663Y548844D01*
X155632Y548840D01*
X155316Y548739D01*
X153304Y547905D01*
X151496Y547905D01*
X149826Y548597D01*
X148547Y549876D01*
X147855Y551546D01*
X147855Y553354D01*
X148547Y555024D01*
X149616Y556094D01*
X149622Y556101D01*
X149629Y556106D01*
X149750Y556257D01*
X149872Y556405D01*
X149876Y556413D01*
X149881Y556420D01*
X149970Y556590D01*
X150060Y556761D01*
X150063Y556770D01*
X150067Y556777D01*
X150120Y556962D01*
X150175Y557147D01*
X150176Y557156D01*
X150178Y557164D01*
X150194Y557355D01*
X150211Y557548D01*
X150210Y557557D01*
X150211Y557566D01*
X150189Y557755D01*
X150168Y557948D01*
X150165Y557957D01*
X150164Y557965D01*
X150105Y558147D01*
X150046Y558332D01*
X150042Y558340D01*
X150039Y558348D01*
X149945Y558515D01*
X149852Y558684D01*
X149846Y558691D01*
X149841Y558699D01*
X149716Y558844D01*
X149591Y558991D01*
X149584Y558997D01*
X149578Y559004D01*
X149428Y559120D01*
X149275Y559241D01*
X149267Y559245D01*
X149260Y559250D01*
X149090Y559335D01*
X148916Y559423D01*
X148908Y559426D01*
X148900Y559430D01*
X148714Y559479D01*
X148528Y559531D01*
X148519Y559532D01*
X148511Y559534D01*
X148180Y559561D01*
X123806Y559561D01*
X123780Y559559D01*
X123753Y559561D01*
X123579Y559539D01*
X123406Y559521D01*
X123380Y559514D01*
X123354Y559510D01*
X123188Y559454D01*
X123021Y559403D01*
X122997Y559390D01*
X122972Y559382D01*
X122820Y559295D01*
X122667Y559211D01*
X122646Y559194D01*
X122623Y559181D01*
X122370Y558966D01*
X104766Y541362D01*
X102712Y540511D01*
X100488Y540511D01*
X98434Y541362D01*
X96862Y542934D01*
X96011Y544988D01*
X96011Y547212D01*
X96862Y549266D01*
X115626Y568030D01*
X115627Y568030D01*
X117484Y569888D01*
X119538Y570739D01*
X174644Y570739D01*
X174670Y570741D01*
X174697Y570739D01*
X174871Y570761D01*
X175044Y570779D01*
X175070Y570786D01*
X175096Y570790D01*
X175262Y570845D01*
X175429Y570897D01*
X175453Y570910D01*
X175478Y570918D01*
X175630Y571005D01*
X175783Y571089D01*
X175804Y571106D01*
X175827Y571119D01*
X176080Y571334D01*
X307984Y703238D01*
X310038Y704089D01*
X312262Y704089D01*
X314316Y703238D01*
X315888Y701666D01*
X316739Y699612D01*
X316739Y697388D01*
X315888Y695334D01*
X182824Y562270D01*
X182823Y562270D01*
X180966Y560412D01*
X179765Y559915D01*
X179761Y559913D01*
X179756Y559911D01*
X179584Y559818D01*
X179410Y559724D01*
X179406Y559722D01*
X179402Y559719D01*
X179252Y559594D01*
X179099Y559468D01*
X179097Y559465D01*
X179093Y559462D01*
X178972Y559311D01*
X178846Y559155D01*
X178844Y559151D01*
X178841Y559148D01*
X178751Y558974D01*
X178659Y558799D01*
X178657Y558795D01*
X178655Y558791D01*
X178601Y558603D01*
X178546Y558412D01*
X178545Y558408D01*
X178544Y558404D01*
X178528Y558206D01*
X178511Y558011D01*
X178511Y558007D01*
X178511Y558002D01*
X178534Y557806D01*
X178556Y557611D01*
X178557Y557607D01*
X178558Y557603D01*
X178619Y557415D01*
X178679Y557228D01*
X178681Y557224D01*
X178683Y557220D01*
X178780Y557047D01*
X178876Y556876D01*
X178879Y556873D01*
X178881Y556869D01*
X179011Y556719D01*
X179137Y556571D01*
X179141Y556568D01*
X179144Y556564D01*
X179301Y556442D01*
X179454Y556322D01*
X179458Y556320D01*
X179462Y556318D01*
X179638Y556230D01*
X179814Y556142D01*
X179818Y556140D01*
X179823Y556138D01*
X180014Y556087D01*
X180203Y556035D01*
X180207Y556035D01*
X180211Y556034D01*
X180542Y556007D01*
X183025Y556007D01*
X183051Y556009D01*
X183078Y556007D01*
X183252Y556029D01*
X183425Y556047D01*
X183451Y556054D01*
X183477Y556058D01*
X183643Y556113D01*
X183810Y556165D01*
X183834Y556178D01*
X183859Y556186D01*
X184011Y556273D01*
X184164Y556357D01*
X184185Y556374D01*
X184208Y556387D01*
X184461Y556602D01*
X313348Y685489D01*
X313365Y685510D01*
X313386Y685527D01*
X313493Y685665D01*
X313603Y685801D01*
X313616Y685824D01*
X313632Y685845D01*
X313710Y686002D01*
X313792Y686156D01*
X313800Y686182D01*
X313812Y686206D01*
X313857Y686375D01*
X313907Y686542D01*
X313909Y686569D01*
X313916Y686595D01*
X313943Y686925D01*
X313943Y687273D01*
X316027Y689357D01*
X340585Y689357D01*
X340612Y689359D01*
X340639Y689357D01*
X340813Y689379D01*
X340986Y689397D01*
X341011Y689404D01*
X341038Y689408D01*
X341204Y689463D01*
X341371Y689515D01*
X341394Y689528D01*
X341420Y689536D01*
X341571Y689623D01*
X341725Y689707D01*
X341745Y689724D01*
X341769Y689737D01*
X342022Y689952D01*
X362030Y709960D01*
X362047Y709981D01*
X362068Y709998D01*
X362175Y710136D01*
X362285Y710272D01*
X362298Y710295D01*
X362314Y710317D01*
X362392Y710474D01*
X362474Y710628D01*
X362482Y710653D01*
X362494Y710677D01*
X362539Y710846D01*
X362589Y711013D01*
X362591Y711040D01*
X362598Y711066D01*
X362625Y711397D01*
X362625Y713098D01*
X363657Y715588D01*
X365562Y717493D01*
X368052Y718525D01*
X381248Y718525D01*
X383738Y717493D01*
X385643Y715588D01*
X386675Y713098D01*
X386675Y710402D01*
X385643Y707912D01*
X383657Y705926D01*
X383510Y705803D01*
X383362Y705680D01*
X383356Y705673D01*
X383349Y705667D01*
X383229Y705516D01*
X383108Y705367D01*
X383104Y705359D01*
X383098Y705352D01*
X383010Y705181D01*
X382921Y705011D01*
X382919Y705002D01*
X382914Y704994D01*
X382863Y704811D01*
X382808Y704624D01*
X382807Y704615D01*
X382805Y704606D01*
X382790Y704416D01*
X382773Y704223D01*
X382775Y704214D01*
X382774Y704205D01*
X382797Y704014D01*
X382819Y703823D01*
X382821Y703814D01*
X382823Y703805D01*
X382883Y703622D01*
X382942Y703440D01*
X382946Y703432D01*
X382949Y703423D01*
X383045Y703255D01*
X383138Y703088D01*
X383144Y703081D01*
X383149Y703073D01*
X383277Y702926D01*
X383400Y702783D01*
X383407Y702777D01*
X383413Y702770D01*
X383566Y702652D01*
X383623Y702608D01*
X385643Y700588D01*
X386675Y698098D01*
X386675Y695402D01*
X385643Y692912D01*
X384018Y691288D01*
X384009Y691275D01*
X383997Y691265D01*
X383881Y691120D01*
X383763Y690976D01*
X383756Y690962D01*
X383746Y690950D01*
X383661Y690783D01*
X383575Y690620D01*
X383570Y690605D01*
X383563Y690591D01*
X383513Y690412D01*
X383460Y690234D01*
X383459Y690219D01*
X383454Y690204D01*
X383440Y690020D01*
X383424Y689833D01*
X383425Y689818D01*
X383424Y689802D01*
X383447Y689619D01*
X383467Y689433D01*
X383472Y689418D01*
X383474Y689403D01*
X383532Y689227D01*
X383588Y689049D01*
X383596Y689036D01*
X383601Y689021D01*
X383694Y688859D01*
X383783Y688697D01*
X383793Y688685D01*
X383801Y688671D01*
X383924Y688531D01*
X384044Y688390D01*
X384056Y688380D01*
X384066Y688369D01*
X384326Y688162D01*
X384866Y687801D01*
X385952Y686716D01*
X386804Y685440D01*
X387391Y684022D01*
X387439Y683781D01*
X374650Y683781D01*
X360268Y683781D01*
X360128Y683821D01*
X359944Y683873D01*
X359935Y683874D01*
X359926Y683877D01*
X359733Y683891D01*
X359542Y683906D01*
X359534Y683905D01*
X359525Y683906D01*
X359332Y683882D01*
X359143Y683859D01*
X359134Y683857D01*
X359125Y683856D01*
X358942Y683794D01*
X358760Y683735D01*
X358752Y683730D01*
X358744Y683727D01*
X358577Y683631D01*
X358409Y683537D01*
X358402Y683531D01*
X358395Y683526D01*
X358142Y683312D01*
X350723Y675893D01*
X326206Y675893D01*
X326167Y675889D01*
X326127Y675892D01*
X325967Y675869D01*
X325806Y675853D01*
X325768Y675842D01*
X325728Y675836D01*
X325576Y675783D01*
X325421Y675735D01*
X325386Y675716D01*
X325348Y675703D01*
X325209Y675621D01*
X325067Y675543D01*
X325036Y675518D01*
X325002Y675498D01*
X324780Y675305D01*
X324757Y675286D01*
X324755Y675283D01*
X324752Y675280D01*
X224630Y572594D01*
X224630Y572593D01*
X224629Y572592D01*
X224479Y572404D01*
X224379Y572279D01*
X224379Y572278D01*
X224378Y572278D01*
X224282Y572089D01*
X224195Y571921D01*
X224195Y571920D01*
X224194Y571919D01*
X224139Y571724D01*
X224085Y571534D01*
X224085Y571533D01*
X224085Y571532D01*
X224069Y571318D01*
X224054Y571132D01*
X224054Y571130D01*
X224080Y570918D01*
X224102Y570733D01*
X224103Y570732D01*
X224103Y570731D01*
X224170Y570529D01*
X224229Y570351D01*
X224229Y570350D01*
X224230Y570349D01*
X224331Y570170D01*
X224428Y570001D01*
X224429Y570000D01*
X224429Y569999D01*
X224560Y569849D01*
X224692Y569697D01*
X224693Y569696D01*
X224694Y569696D01*
X224768Y569638D01*
X226315Y568092D01*
X227045Y566330D01*
X227045Y564422D01*
X226315Y562660D01*
X224966Y561311D01*
X223204Y560581D01*
X221296Y560581D01*
X219534Y561311D01*
X217999Y562846D01*
X217975Y562866D01*
X217955Y562889D01*
X217820Y562993D01*
X217687Y563101D01*
X217660Y563116D01*
X217636Y563134D01*
X217482Y563210D01*
X217332Y563290D01*
X217302Y563299D01*
X217275Y563312D01*
X217110Y563356D01*
X216946Y563405D01*
X216915Y563408D01*
X216886Y563415D01*
X216716Y563426D01*
X216545Y563441D01*
X216514Y563438D01*
X216484Y563440D01*
X216315Y563416D01*
X216145Y563398D01*
X216115Y563388D01*
X216085Y563384D01*
X215924Y563328D01*
X215761Y563276D01*
X215734Y563261D01*
X215705Y563251D01*
X215558Y563164D01*
X215408Y563081D01*
X215385Y563062D01*
X215359Y563046D01*
X215108Y562828D01*
X197964Y545245D01*
X197956Y545234D01*
X197945Y545225D01*
X197830Y545076D01*
X197802Y545041D01*
X196370Y543610D01*
X196363Y543601D01*
X196352Y543591D01*
X195330Y542543D01*
X193865Y542543D01*
X193854Y542542D01*
X193840Y542543D01*
X191864Y542518D01*
X191557Y542543D01*
X167415Y542543D01*
X167388Y542541D01*
X167361Y542543D01*
X167187Y542521D01*
X167014Y542503D01*
X166989Y542496D01*
X166962Y542492D01*
X166796Y542436D01*
X166629Y542385D01*
X166606Y542373D01*
X166580Y542364D01*
X166429Y542277D01*
X166275Y542193D01*
X166255Y542176D01*
X166231Y542163D01*
X165978Y541948D01*
X163877Y539847D01*
X163857Y539822D01*
X163833Y539802D01*
X163729Y539666D01*
X163621Y539535D01*
X163607Y539508D01*
X163588Y539483D01*
X163436Y539188D01*
X162603Y537176D01*
X161324Y535897D01*
X159654Y535205D01*
X157846Y535205D01*
G37*
%LPD*%
%LPC*%
G36*
X374402Y119675D02*
X374402Y119675D01*
X371912Y120707D01*
X371309Y121310D01*
X371288Y121327D01*
X371271Y121348D01*
X371133Y121455D01*
X370997Y121565D01*
X370974Y121578D01*
X370952Y121594D01*
X370796Y121672D01*
X370642Y121754D01*
X370616Y121762D01*
X370592Y121774D01*
X370423Y121819D01*
X370256Y121869D01*
X370229Y121871D01*
X370203Y121878D01*
X369872Y121905D01*
X369135Y121905D01*
X367465Y122597D01*
X366186Y123876D01*
X365353Y125888D01*
X365338Y125915D01*
X365328Y125945D01*
X365243Y126092D01*
X365163Y126242D01*
X365143Y126266D01*
X365127Y126294D01*
X364913Y126547D01*
X344958Y146501D01*
X344894Y146565D01*
X344891Y146568D01*
X344888Y146572D01*
X344738Y146693D01*
X344583Y146820D01*
X344579Y146822D01*
X344575Y146825D01*
X344401Y146916D01*
X344227Y147009D01*
X344223Y147010D01*
X344219Y147012D01*
X344027Y147068D01*
X343841Y147124D01*
X343837Y147124D01*
X343832Y147125D01*
X343639Y147142D01*
X343440Y147160D01*
X343436Y147160D01*
X343431Y147160D01*
X343240Y147138D01*
X343040Y147117D01*
X343036Y147115D01*
X343031Y147115D01*
X342845Y147055D01*
X342656Y146995D01*
X342652Y146993D01*
X342648Y146992D01*
X342474Y146895D01*
X342304Y146801D01*
X342300Y146798D01*
X342296Y146795D01*
X342147Y146668D01*
X341997Y146540D01*
X341994Y146536D01*
X341990Y146533D01*
X341870Y146380D01*
X341747Y146224D01*
X341745Y146220D01*
X341742Y146216D01*
X341654Y146042D01*
X341565Y145865D01*
X341563Y145861D01*
X341561Y145857D01*
X341510Y145668D01*
X341457Y145478D01*
X341456Y145473D01*
X341455Y145468D01*
X341441Y145270D01*
X341427Y145076D01*
X341428Y145072D01*
X341427Y145067D01*
X341453Y144868D01*
X341477Y144677D01*
X341479Y144672D01*
X341480Y144667D01*
X341581Y144352D01*
X342225Y142798D01*
X342225Y140102D01*
X341193Y137612D01*
X339568Y135988D01*
X339559Y135975D01*
X339547Y135965D01*
X339431Y135820D01*
X339313Y135676D01*
X339306Y135662D01*
X339296Y135650D01*
X339211Y135483D01*
X339125Y135320D01*
X339120Y135305D01*
X339113Y135291D01*
X339063Y135112D01*
X339010Y134934D01*
X339009Y134919D01*
X339004Y134904D01*
X338990Y134720D01*
X338974Y134533D01*
X338975Y134518D01*
X338974Y134502D01*
X338997Y134319D01*
X339017Y134133D01*
X339022Y134118D01*
X339024Y134103D01*
X339082Y133927D01*
X339138Y133749D01*
X339146Y133736D01*
X339151Y133721D01*
X339244Y133559D01*
X339333Y133397D01*
X339343Y133385D01*
X339351Y133371D01*
X339474Y133231D01*
X339594Y133090D01*
X339606Y133080D01*
X339616Y133069D01*
X339876Y132862D01*
X340416Y132501D01*
X341502Y131416D01*
X342354Y130140D01*
X342941Y128722D01*
X342989Y128481D01*
X330200Y128481D01*
X317411Y128481D01*
X317459Y128722D01*
X318046Y130140D01*
X318898Y131416D01*
X319984Y132501D01*
X320524Y132862D01*
X320536Y132872D01*
X320549Y132880D01*
X320691Y133000D01*
X320835Y133118D01*
X320845Y133130D01*
X320856Y133140D01*
X320972Y133286D01*
X321089Y133430D01*
X321096Y133444D01*
X321106Y133456D01*
X321190Y133622D01*
X321277Y133786D01*
X321281Y133801D01*
X321288Y133815D01*
X321338Y133994D01*
X321391Y134172D01*
X321392Y134188D01*
X321396Y134203D01*
X321410Y134389D01*
X321426Y134573D01*
X321425Y134589D01*
X321426Y134605D01*
X321402Y134790D01*
X321382Y134974D01*
X321377Y134988D01*
X321375Y135004D01*
X321316Y135180D01*
X321260Y135357D01*
X321252Y135371D01*
X321247Y135386D01*
X321154Y135547D01*
X321064Y135709D01*
X321054Y135721D01*
X321046Y135735D01*
X320832Y135988D01*
X319207Y137612D01*
X318175Y140102D01*
X318175Y142798D01*
X319207Y145288D01*
X321193Y147274D01*
X321341Y147398D01*
X321488Y147520D01*
X321494Y147527D01*
X321501Y147533D01*
X321620Y147683D01*
X321742Y147832D01*
X321746Y147841D01*
X321752Y147848D01*
X321840Y148020D01*
X321929Y148189D01*
X321931Y148198D01*
X321936Y148206D01*
X321988Y148392D01*
X322042Y148575D01*
X322043Y148585D01*
X322045Y148594D01*
X322060Y148786D01*
X322077Y148977D01*
X322076Y148986D01*
X322076Y148995D01*
X322053Y149186D01*
X322031Y149377D01*
X322029Y149386D01*
X322027Y149395D01*
X321967Y149577D01*
X321908Y149760D01*
X321904Y149768D01*
X321901Y149777D01*
X321805Y149945D01*
X321712Y150111D01*
X321706Y150119D01*
X321701Y150127D01*
X321575Y150271D01*
X321450Y150417D01*
X321443Y150423D01*
X321437Y150430D01*
X321285Y150546D01*
X321227Y150592D01*
X319521Y152298D01*
X319500Y152315D01*
X319483Y152336D01*
X319345Y152443D01*
X319209Y152553D01*
X319186Y152566D01*
X319164Y152582D01*
X319008Y152660D01*
X318854Y152742D01*
X318828Y152750D01*
X318804Y152762D01*
X318635Y152807D01*
X318468Y152857D01*
X318441Y152859D01*
X318415Y152866D01*
X318084Y152893D01*
X261177Y152893D01*
X178160Y235910D01*
X178139Y235927D01*
X178121Y235948D01*
X177984Y236055D01*
X177848Y236165D01*
X177825Y236178D01*
X177803Y236194D01*
X177646Y236272D01*
X177492Y236354D01*
X177467Y236362D01*
X177443Y236374D01*
X177273Y236419D01*
X177107Y236469D01*
X177080Y236471D01*
X177054Y236478D01*
X176877Y236493D01*
X175084Y237235D01*
X173735Y238584D01*
X173005Y240346D01*
X173005Y242254D01*
X173735Y244016D01*
X175084Y245365D01*
X176846Y246095D01*
X178754Y246095D01*
X180516Y245365D01*
X181865Y244016D01*
X182608Y242221D01*
X182617Y242149D01*
X182635Y241976D01*
X182642Y241951D01*
X182646Y241924D01*
X182701Y241758D01*
X182753Y241591D01*
X182766Y241568D01*
X182774Y241542D01*
X182861Y241391D01*
X182945Y241237D01*
X182962Y241217D01*
X182975Y241193D01*
X183190Y240940D01*
X263528Y160602D01*
X263549Y160585D01*
X263567Y160564D01*
X263704Y160457D01*
X263840Y160347D01*
X263863Y160334D01*
X263885Y160318D01*
X264042Y160240D01*
X264196Y160158D01*
X264221Y160150D01*
X264245Y160138D01*
X264415Y160093D01*
X264581Y160043D01*
X264608Y160041D01*
X264634Y160034D01*
X264965Y160007D01*
X318084Y160007D01*
X318111Y160009D01*
X318138Y160007D01*
X318312Y160029D01*
X318485Y160047D01*
X318511Y160054D01*
X318537Y160058D01*
X318703Y160114D01*
X318870Y160165D01*
X318894Y160178D01*
X318919Y160186D01*
X319070Y160273D01*
X319224Y160357D01*
X319245Y160374D01*
X319268Y160387D01*
X319521Y160602D01*
X321193Y162274D01*
X321341Y162398D01*
X321488Y162520D01*
X321494Y162527D01*
X321501Y162533D01*
X321620Y162683D01*
X321742Y162832D01*
X321746Y162841D01*
X321752Y162848D01*
X321840Y163020D01*
X321929Y163189D01*
X321931Y163198D01*
X321936Y163206D01*
X321988Y163392D01*
X322042Y163575D01*
X322043Y163585D01*
X322045Y163594D01*
X322060Y163786D01*
X322077Y163977D01*
X322076Y163986D01*
X322076Y163995D01*
X322053Y164186D01*
X322031Y164377D01*
X322029Y164386D01*
X322027Y164395D01*
X321967Y164577D01*
X321908Y164760D01*
X321904Y164768D01*
X321901Y164777D01*
X321805Y164945D01*
X321712Y165111D01*
X321706Y165119D01*
X321701Y165127D01*
X321575Y165271D01*
X321450Y165417D01*
X321443Y165423D01*
X321437Y165430D01*
X321285Y165546D01*
X321227Y165592D01*
X319207Y167612D01*
X318175Y170102D01*
X318175Y172798D01*
X318955Y174681D01*
X318959Y174694D01*
X318965Y174705D01*
X319017Y174886D01*
X319072Y175066D01*
X319073Y175079D01*
X319077Y175092D01*
X319092Y175281D01*
X319110Y175467D01*
X319109Y175480D01*
X319110Y175494D01*
X319088Y175680D01*
X319068Y175867D01*
X319064Y175880D01*
X319063Y175893D01*
X319005Y176071D01*
X318948Y176252D01*
X318942Y176263D01*
X318938Y176276D01*
X318845Y176440D01*
X318755Y176605D01*
X318747Y176615D01*
X318740Y176627D01*
X318617Y176769D01*
X318496Y176913D01*
X318486Y176921D01*
X318477Y176932D01*
X318329Y177046D01*
X318181Y177164D01*
X318169Y177170D01*
X318159Y177178D01*
X317991Y177262D01*
X317823Y177348D01*
X317810Y177352D01*
X317798Y177358D01*
X317616Y177407D01*
X317436Y177458D01*
X317422Y177459D01*
X317409Y177462D01*
X317079Y177489D01*
X312781Y177489D01*
X171547Y318723D01*
X171522Y318743D01*
X171502Y318767D01*
X171367Y318871D01*
X171235Y318979D01*
X171208Y318993D01*
X171183Y319012D01*
X170888Y319164D01*
X168876Y319997D01*
X167597Y321276D01*
X166905Y322946D01*
X166905Y324754D01*
X167597Y326424D01*
X168876Y327703D01*
X170546Y328395D01*
X172354Y328395D01*
X174024Y327703D01*
X175303Y326424D01*
X175923Y324926D01*
X175928Y324918D01*
X175930Y324910D01*
X176024Y324739D01*
X176114Y324571D01*
X176119Y324565D01*
X176124Y324557D01*
X176248Y324408D01*
X176370Y324261D01*
X176377Y324255D01*
X176383Y324249D01*
X176533Y324128D01*
X176683Y324007D01*
X176691Y324003D01*
X176698Y323998D01*
X176870Y323909D01*
X177039Y323820D01*
X177048Y323818D01*
X177056Y323814D01*
X177243Y323761D01*
X177426Y323707D01*
X177434Y323706D01*
X177443Y323704D01*
X177636Y323689D01*
X177827Y323673D01*
X177836Y323674D01*
X177844Y323673D01*
X178036Y323696D01*
X178227Y323718D01*
X178235Y323720D01*
X178244Y323722D01*
X178427Y323782D01*
X178610Y323841D01*
X178618Y323845D01*
X178626Y323848D01*
X178793Y323943D01*
X178962Y324037D01*
X178968Y324043D01*
X178976Y324047D01*
X179121Y324174D01*
X179267Y324299D01*
X179273Y324306D01*
X179280Y324312D01*
X179398Y324465D01*
X179516Y324616D01*
X179520Y324624D01*
X179525Y324631D01*
X179677Y324926D01*
X180297Y326424D01*
X181576Y327703D01*
X183246Y328395D01*
X185054Y328395D01*
X186724Y327703D01*
X188003Y326424D01*
X188836Y324412D01*
X188851Y324385D01*
X188861Y324355D01*
X188946Y324208D01*
X189026Y324058D01*
X189046Y324034D01*
X189062Y324006D01*
X189277Y323753D01*
X318378Y194652D01*
X318399Y194635D01*
X318417Y194614D01*
X318554Y194507D01*
X318690Y194397D01*
X318713Y194384D01*
X318735Y194368D01*
X318892Y194290D01*
X319046Y194208D01*
X319071Y194200D01*
X319095Y194188D01*
X319265Y194143D01*
X319431Y194093D01*
X319458Y194091D01*
X319484Y194084D01*
X319815Y194057D01*
X344373Y194057D01*
X359157Y179273D01*
X359157Y158204D01*
X359159Y158177D01*
X359157Y158151D01*
X359179Y157977D01*
X359197Y157803D01*
X359204Y157778D01*
X359208Y157751D01*
X359263Y157586D01*
X359315Y157418D01*
X359328Y157395D01*
X359336Y157369D01*
X359423Y157218D01*
X359507Y157064D01*
X359524Y157044D01*
X359537Y157021D01*
X359752Y156768D01*
X365222Y151297D01*
X365225Y151295D01*
X365228Y151291D01*
X365382Y151166D01*
X365533Y151042D01*
X365537Y151040D01*
X365541Y151037D01*
X365717Y150945D01*
X365889Y150854D01*
X365893Y150852D01*
X365897Y150850D01*
X366087Y150795D01*
X366275Y150739D01*
X366279Y150738D01*
X366284Y150737D01*
X366476Y150721D01*
X366676Y150702D01*
X366680Y150703D01*
X366685Y150703D01*
X366875Y150724D01*
X367076Y150746D01*
X367080Y150747D01*
X367085Y150748D01*
X367270Y150807D01*
X367460Y150867D01*
X367464Y150870D01*
X367468Y150871D01*
X367640Y150967D01*
X367812Y151062D01*
X367816Y151065D01*
X367820Y151067D01*
X367969Y151195D01*
X368119Y151323D01*
X368122Y151326D01*
X368126Y151329D01*
X368246Y151483D01*
X368369Y151639D01*
X368371Y151643D01*
X368374Y151646D01*
X368462Y151821D01*
X368551Y151998D01*
X368552Y152002D01*
X368555Y152006D01*
X368606Y152196D01*
X368659Y152385D01*
X368660Y152390D01*
X368661Y152394D01*
X368674Y152582D01*
X368689Y152787D01*
X368688Y152792D01*
X368688Y152796D01*
X368664Y152986D01*
X368638Y153186D01*
X368637Y153191D01*
X368636Y153195D01*
X368535Y153511D01*
X368259Y154178D01*
X368211Y154419D01*
X381000Y154419D01*
X393789Y154419D01*
X393741Y154178D01*
X393154Y152760D01*
X392302Y151484D01*
X391216Y150399D01*
X390676Y150038D01*
X390664Y150028D01*
X390651Y150020D01*
X390509Y149900D01*
X390365Y149782D01*
X390355Y149770D01*
X390344Y149760D01*
X390228Y149614D01*
X390111Y149470D01*
X390104Y149456D01*
X390094Y149444D01*
X390010Y149278D01*
X389923Y149114D01*
X389919Y149099D01*
X389912Y149085D01*
X389862Y148906D01*
X389809Y148728D01*
X389808Y148712D01*
X389804Y148697D01*
X389790Y148511D01*
X389774Y148327D01*
X389775Y148311D01*
X389774Y148295D01*
X389798Y148110D01*
X389818Y147926D01*
X389823Y147912D01*
X389825Y147896D01*
X389884Y147719D01*
X389940Y147543D01*
X389948Y147529D01*
X389953Y147514D01*
X390046Y147353D01*
X390136Y147191D01*
X390146Y147179D01*
X390154Y147165D01*
X390368Y146912D01*
X391993Y145288D01*
X393025Y142798D01*
X393025Y140102D01*
X391993Y137612D01*
X390006Y135625D01*
X389861Y135503D01*
X389712Y135380D01*
X389707Y135373D01*
X389700Y135367D01*
X389580Y135217D01*
X389459Y135068D01*
X389454Y135060D01*
X389449Y135053D01*
X389361Y134882D01*
X389271Y134711D01*
X389269Y134703D01*
X389265Y134694D01*
X389212Y134510D01*
X389158Y134325D01*
X389157Y134316D01*
X389155Y134307D01*
X389140Y134115D01*
X389123Y133924D01*
X389124Y133915D01*
X389124Y133906D01*
X389147Y133712D01*
X389169Y133524D01*
X389171Y133515D01*
X389172Y133506D01*
X389233Y133322D01*
X389292Y133140D01*
X389296Y133132D01*
X389299Y133124D01*
X389394Y132956D01*
X389488Y132789D01*
X389494Y132782D01*
X389498Y132774D01*
X389625Y132628D01*
X389750Y132483D01*
X389757Y132477D01*
X389763Y132470D01*
X389917Y132352D01*
X389973Y132308D01*
X391993Y130288D01*
X393025Y127798D01*
X393025Y125102D01*
X391993Y122612D01*
X390088Y120707D01*
X387598Y119675D01*
X374402Y119675D01*
G37*
%LPD*%
G36*
X81324Y626184D02*
X81324Y626184D01*
X81333Y626184D01*
X81526Y626208D01*
X81715Y626230D01*
X81724Y626233D01*
X81733Y626234D01*
X81915Y626295D01*
X82098Y626355D01*
X82106Y626359D01*
X82114Y626362D01*
X82281Y626458D01*
X82449Y626553D01*
X82456Y626559D01*
X82463Y626563D01*
X82716Y626778D01*
X119387Y663449D01*
X148388Y663449D01*
X148415Y663451D01*
X148441Y663449D01*
X148615Y663471D01*
X148789Y663489D01*
X148814Y663496D01*
X148841Y663500D01*
X149007Y663555D01*
X149174Y663607D01*
X149197Y663620D01*
X149223Y663628D01*
X149374Y663715D01*
X149528Y663799D01*
X149548Y663816D01*
X149571Y663829D01*
X149824Y664044D01*
X194363Y708582D01*
X194372Y708593D01*
X194382Y708601D01*
X194499Y708748D01*
X194618Y708894D01*
X194624Y708906D01*
X194633Y708916D01*
X194719Y709083D01*
X194807Y709250D01*
X194811Y709262D01*
X194817Y709274D01*
X194868Y709455D01*
X194922Y709635D01*
X194923Y709649D01*
X194926Y709662D01*
X194941Y709847D01*
X194958Y710036D01*
X194957Y710050D01*
X194958Y710063D01*
X194935Y710248D01*
X194915Y710437D01*
X194911Y710450D01*
X194909Y710463D01*
X194850Y710640D01*
X194793Y710821D01*
X194787Y710832D01*
X194782Y710845D01*
X194689Y711009D01*
X194598Y711173D01*
X194590Y711183D01*
X194583Y711195D01*
X194459Y711337D01*
X194338Y711480D01*
X194327Y711488D01*
X194318Y711498D01*
X194170Y711613D01*
X194022Y711729D01*
X194010Y711736D01*
X193999Y711744D01*
X193704Y711895D01*
X191262Y712907D01*
X189638Y714532D01*
X189625Y714541D01*
X189615Y714553D01*
X189470Y714669D01*
X189326Y714787D01*
X189312Y714794D01*
X189300Y714804D01*
X189133Y714889D01*
X188970Y714975D01*
X188955Y714980D01*
X188941Y714987D01*
X188762Y715037D01*
X188584Y715090D01*
X188569Y715091D01*
X188554Y715096D01*
X188370Y715110D01*
X188183Y715126D01*
X188168Y715125D01*
X188152Y715126D01*
X187969Y715103D01*
X187783Y715083D01*
X187768Y715078D01*
X187753Y715076D01*
X187577Y715018D01*
X187399Y714962D01*
X187386Y714954D01*
X187371Y714949D01*
X187209Y714856D01*
X187047Y714767D01*
X187035Y714757D01*
X187021Y714749D01*
X186881Y714626D01*
X186740Y714506D01*
X186730Y714494D01*
X186719Y714484D01*
X186512Y714224D01*
X186151Y713684D01*
X185066Y712598D01*
X183790Y711746D01*
X182372Y711159D01*
X182131Y711111D01*
X182131Y723900D01*
X182130Y723917D01*
X182131Y723935D01*
X182110Y724118D01*
X182091Y724300D01*
X182086Y724317D01*
X182084Y724335D01*
X182027Y724510D01*
X181973Y724685D01*
X181965Y724701D01*
X181959Y724718D01*
X181869Y724877D01*
X181782Y725039D01*
X181770Y725053D01*
X181761Y725068D01*
X181641Y725208D01*
X181524Y725348D01*
X181510Y725360D01*
X181498Y725373D01*
X181353Y725486D01*
X181210Y725601D01*
X181194Y725609D01*
X181180Y725620D01*
X181015Y725702D01*
X180853Y725786D01*
X180836Y725791D01*
X180820Y725799D01*
X180642Y725847D01*
X180466Y725898D01*
X180448Y725899D01*
X180431Y725904D01*
X180100Y725931D01*
X180082Y725929D01*
X180065Y725931D01*
X180064Y725931D01*
X179882Y725909D01*
X179699Y725891D01*
X179682Y725886D01*
X179664Y725884D01*
X179490Y725827D01*
X179314Y725773D01*
X179299Y725764D01*
X179282Y725759D01*
X179121Y725668D01*
X178960Y725581D01*
X178947Y725570D01*
X178931Y725561D01*
X178792Y725441D01*
X178651Y725323D01*
X178640Y725309D01*
X178626Y725298D01*
X178514Y725153D01*
X178399Y725010D01*
X178390Y724994D01*
X178380Y724980D01*
X178298Y724815D01*
X178213Y724652D01*
X178208Y724635D01*
X178200Y724619D01*
X178152Y724441D01*
X178102Y724265D01*
X178100Y724248D01*
X178096Y724230D01*
X178069Y723900D01*
X178069Y711111D01*
X177828Y711159D01*
X176410Y711746D01*
X175134Y712598D01*
X174049Y713684D01*
X173688Y714224D01*
X173678Y714236D01*
X173670Y714249D01*
X173550Y714391D01*
X173432Y714535D01*
X173420Y714545D01*
X173410Y714556D01*
X173264Y714672D01*
X173120Y714789D01*
X173106Y714796D01*
X173094Y714806D01*
X172928Y714890D01*
X172764Y714977D01*
X172749Y714981D01*
X172735Y714988D01*
X172556Y715038D01*
X172378Y715091D01*
X172362Y715092D01*
X172347Y715096D01*
X172161Y715110D01*
X171977Y715126D01*
X171961Y715125D01*
X171945Y715126D01*
X171760Y715102D01*
X171576Y715082D01*
X171562Y715077D01*
X171546Y715075D01*
X171370Y715016D01*
X171193Y714960D01*
X171179Y714952D01*
X171164Y714947D01*
X171003Y714854D01*
X170841Y714764D01*
X170829Y714754D01*
X170815Y714746D01*
X170562Y714532D01*
X168938Y712907D01*
X166448Y711875D01*
X163752Y711875D01*
X161262Y712907D01*
X159357Y714812D01*
X158325Y717302D01*
X158325Y724803D01*
X158323Y724830D01*
X158325Y724857D01*
X158303Y725031D01*
X158285Y725204D01*
X158278Y725229D01*
X158274Y725256D01*
X158219Y725422D01*
X158167Y725589D01*
X158154Y725612D01*
X158146Y725638D01*
X158059Y725789D01*
X157975Y725943D01*
X157958Y725963D01*
X157945Y725987D01*
X157730Y726240D01*
X145172Y738798D01*
X145151Y738815D01*
X145133Y738836D01*
X144996Y738943D01*
X144860Y739053D01*
X144837Y739066D01*
X144815Y739082D01*
X144658Y739160D01*
X144504Y739242D01*
X144479Y739250D01*
X144455Y739262D01*
X144285Y739307D01*
X144119Y739357D01*
X144092Y739359D01*
X144066Y739366D01*
X143735Y739393D01*
X137086Y739393D01*
X137081Y739393D01*
X137077Y739393D01*
X136883Y739373D01*
X136685Y739353D01*
X136681Y739352D01*
X136676Y739352D01*
X136490Y739294D01*
X136300Y739235D01*
X136296Y739233D01*
X136292Y739232D01*
X136120Y739138D01*
X135946Y739043D01*
X135943Y739041D01*
X135939Y739038D01*
X135788Y738911D01*
X135637Y738786D01*
X135634Y738782D01*
X135631Y738779D01*
X135504Y738621D01*
X135384Y738472D01*
X135382Y738468D01*
X135380Y738465D01*
X135288Y738287D01*
X135199Y738115D01*
X135198Y738110D01*
X135196Y738106D01*
X135143Y737919D01*
X135088Y737728D01*
X135087Y737723D01*
X135086Y737719D01*
X135071Y737526D01*
X135055Y737326D01*
X135055Y737322D01*
X135055Y737318D01*
X135079Y737120D01*
X135102Y736927D01*
X135103Y736922D01*
X135103Y736918D01*
X135165Y736731D01*
X135226Y736544D01*
X135229Y736540D01*
X135230Y736536D01*
X135328Y736364D01*
X135424Y736193D01*
X135427Y736190D01*
X135429Y736186D01*
X135562Y736033D01*
X135687Y735889D01*
X135691Y735886D01*
X135694Y735882D01*
X135850Y735762D01*
X136006Y735642D01*
X136010Y735640D01*
X136013Y735637D01*
X136308Y735485D01*
X137738Y734893D01*
X139643Y732988D01*
X140675Y730498D01*
X140675Y717302D01*
X139643Y714812D01*
X137544Y712713D01*
X137527Y712692D01*
X137506Y712675D01*
X137399Y712537D01*
X137289Y712401D01*
X137276Y712378D01*
X137260Y712356D01*
X137182Y712200D01*
X137100Y712046D01*
X137092Y712020D01*
X137080Y711996D01*
X137035Y711827D01*
X136985Y711660D01*
X136983Y711633D01*
X136976Y711607D01*
X136949Y711276D01*
X136949Y710487D01*
X79844Y653382D01*
X79827Y653361D01*
X79806Y653344D01*
X79699Y653206D01*
X79589Y653071D01*
X79576Y653047D01*
X79560Y653026D01*
X79482Y652869D01*
X79400Y652715D01*
X79392Y652689D01*
X79380Y652665D01*
X79335Y652496D01*
X79285Y652329D01*
X79283Y652302D01*
X79276Y652277D01*
X79249Y651946D01*
X79249Y628214D01*
X79250Y628205D01*
X79249Y628196D01*
X79270Y628003D01*
X79289Y627814D01*
X79291Y627805D01*
X79292Y627796D01*
X79351Y627612D01*
X79407Y627429D01*
X79411Y627421D01*
X79414Y627412D01*
X79507Y627244D01*
X79599Y627075D01*
X79604Y627068D01*
X79609Y627060D01*
X79733Y626913D01*
X79856Y626765D01*
X79863Y626760D01*
X79869Y626753D01*
X80021Y626633D01*
X80170Y626513D01*
X80178Y626509D01*
X80185Y626503D01*
X80358Y626416D01*
X80527Y626327D01*
X80536Y626325D01*
X80544Y626321D01*
X80730Y626269D01*
X80914Y626216D01*
X80923Y626215D01*
X80932Y626213D01*
X81125Y626199D01*
X81316Y626183D01*
X81324Y626184D01*
G37*
G36*
X31853Y644401D02*
X31853Y644401D01*
X31880Y644399D01*
X32054Y644421D01*
X32227Y644439D01*
X32253Y644446D01*
X32279Y644450D01*
X32445Y644506D01*
X32612Y644557D01*
X32636Y644570D01*
X32661Y644578D01*
X32812Y644665D01*
X32966Y644749D01*
X32987Y644766D01*
X33010Y644779D01*
X33263Y644994D01*
X35082Y646812D01*
X35091Y646825D01*
X35103Y646835D01*
X35219Y646980D01*
X35337Y647124D01*
X35344Y647138D01*
X35354Y647150D01*
X35438Y647315D01*
X35525Y647480D01*
X35530Y647495D01*
X35537Y647509D01*
X35587Y647687D01*
X35640Y647866D01*
X35641Y647881D01*
X35646Y647896D01*
X35660Y648080D01*
X35676Y648267D01*
X35675Y648282D01*
X35676Y648298D01*
X35653Y648482D01*
X35633Y648667D01*
X35628Y648682D01*
X35626Y648697D01*
X35567Y648874D01*
X35511Y649051D01*
X35504Y649064D01*
X35499Y649079D01*
X35406Y649241D01*
X35317Y649403D01*
X35307Y649415D01*
X35299Y649429D01*
X35176Y649569D01*
X35056Y649710D01*
X35044Y649720D01*
X35034Y649731D01*
X34774Y649938D01*
X34234Y650299D01*
X33148Y651384D01*
X32296Y652660D01*
X31709Y654078D01*
X31661Y654319D01*
X44450Y654319D01*
X44467Y654320D01*
X44485Y654319D01*
X44668Y654340D01*
X44850Y654358D01*
X44867Y654364D01*
X44885Y654366D01*
X45060Y654423D01*
X45235Y654477D01*
X45251Y654485D01*
X45268Y654491D01*
X45428Y654581D01*
X45589Y654668D01*
X45603Y654680D01*
X45618Y654689D01*
X45758Y654809D01*
X45898Y654926D01*
X45910Y654940D01*
X45923Y654952D01*
X46036Y655097D01*
X46151Y655240D01*
X46159Y655256D01*
X46170Y655270D01*
X46252Y655435D01*
X46336Y655597D01*
X46341Y655614D01*
X46349Y655630D01*
X46397Y655808D01*
X46448Y655984D01*
X46449Y656002D01*
X46454Y656019D01*
X46481Y656350D01*
X46479Y656368D01*
X46481Y656385D01*
X46481Y656386D01*
X46459Y656568D01*
X46441Y656751D01*
X46436Y656768D01*
X46434Y656786D01*
X46377Y656960D01*
X46323Y657136D01*
X46314Y657151D01*
X46309Y657168D01*
X46218Y657329D01*
X46131Y657490D01*
X46120Y657503D01*
X46111Y657519D01*
X45991Y657658D01*
X45873Y657799D01*
X45859Y657810D01*
X45848Y657824D01*
X45703Y657936D01*
X45560Y658051D01*
X45544Y658060D01*
X45530Y658070D01*
X45365Y658152D01*
X45202Y658237D01*
X45185Y658242D01*
X45169Y658250D01*
X44991Y658298D01*
X44815Y658348D01*
X44798Y658350D01*
X44780Y658354D01*
X44450Y658381D01*
X31661Y658381D01*
X31709Y658622D01*
X32296Y660040D01*
X33148Y661316D01*
X34234Y662401D01*
X34774Y662762D01*
X34786Y662772D01*
X34800Y662780D01*
X34941Y662900D01*
X35085Y663018D01*
X35095Y663030D01*
X35107Y663040D01*
X35222Y663186D01*
X35339Y663330D01*
X35346Y663344D01*
X35356Y663356D01*
X35440Y663522D01*
X35527Y663686D01*
X35531Y663701D01*
X35538Y663715D01*
X35588Y663894D01*
X35641Y664072D01*
X35642Y664088D01*
X35646Y664103D01*
X35660Y664289D01*
X35676Y664473D01*
X35675Y664489D01*
X35676Y664505D01*
X35652Y664689D01*
X35632Y664874D01*
X35627Y664888D01*
X35625Y664904D01*
X35566Y665080D01*
X35510Y665257D01*
X35502Y665271D01*
X35497Y665286D01*
X35405Y665446D01*
X35314Y665609D01*
X35304Y665621D01*
X35296Y665635D01*
X35082Y665888D01*
X33457Y667512D01*
X32425Y670002D01*
X32425Y672698D01*
X33457Y675188D01*
X35443Y677174D01*
X35591Y677298D01*
X35738Y677420D01*
X35744Y677427D01*
X35751Y677433D01*
X35870Y677583D01*
X35992Y677732D01*
X35996Y677741D01*
X36002Y677748D01*
X36090Y677920D01*
X36179Y678089D01*
X36181Y678098D01*
X36186Y678106D01*
X36238Y678292D01*
X36292Y678475D01*
X36293Y678485D01*
X36295Y678494D01*
X36310Y678686D01*
X36327Y678877D01*
X36326Y678886D01*
X36326Y678895D01*
X36303Y679086D01*
X36281Y679277D01*
X36279Y679286D01*
X36277Y679295D01*
X36217Y679477D01*
X36158Y679660D01*
X36154Y679668D01*
X36151Y679677D01*
X36055Y679845D01*
X35962Y680011D01*
X35956Y680019D01*
X35951Y680027D01*
X35825Y680171D01*
X35700Y680317D01*
X35693Y680323D01*
X35687Y680330D01*
X35535Y680446D01*
X35477Y680492D01*
X33457Y682512D01*
X32425Y685002D01*
X32425Y687698D01*
X33457Y690188D01*
X35362Y692093D01*
X37852Y693125D01*
X51048Y693125D01*
X53538Y692093D01*
X55443Y690188D01*
X56475Y687698D01*
X56475Y685002D01*
X55443Y682512D01*
X53457Y680526D01*
X53310Y680402D01*
X53163Y680281D01*
X53157Y680273D01*
X53149Y680267D01*
X53029Y680116D01*
X52909Y679968D01*
X52904Y679960D01*
X52898Y679952D01*
X52811Y679782D01*
X52721Y679612D01*
X52719Y679603D01*
X52715Y679594D01*
X52663Y679411D01*
X52608Y679225D01*
X52607Y679216D01*
X52605Y679207D01*
X52590Y679017D01*
X52573Y678824D01*
X52574Y678815D01*
X52574Y678805D01*
X52597Y678617D01*
X52618Y678424D01*
X52621Y678415D01*
X52622Y678406D01*
X52682Y678224D01*
X52741Y678041D01*
X52746Y678032D01*
X52749Y678024D01*
X52844Y677856D01*
X52938Y677689D01*
X52944Y677682D01*
X52948Y677674D01*
X53075Y677529D01*
X53199Y677383D01*
X53207Y677377D01*
X53213Y677370D01*
X53366Y677253D01*
X53423Y677208D01*
X55443Y675188D01*
X55697Y674575D01*
X55712Y674548D01*
X55722Y674518D01*
X55807Y674371D01*
X55887Y674221D01*
X55907Y674197D01*
X55923Y674169D01*
X56137Y673916D01*
X61189Y668865D01*
X61202Y668854D01*
X61214Y668840D01*
X61358Y668726D01*
X61500Y668610D01*
X61516Y668602D01*
X61530Y668590D01*
X61694Y668507D01*
X61856Y668421D01*
X61873Y668416D01*
X61889Y668408D01*
X62066Y668359D01*
X62242Y668307D01*
X62260Y668305D01*
X62277Y668300D01*
X62460Y668287D01*
X62643Y668270D01*
X62661Y668272D01*
X62678Y668271D01*
X62860Y668294D01*
X63043Y668314D01*
X63060Y668319D01*
X63078Y668321D01*
X63251Y668379D01*
X63427Y668435D01*
X63443Y668444D01*
X63459Y668449D01*
X63619Y668541D01*
X63779Y668630D01*
X63793Y668641D01*
X63808Y668650D01*
X64061Y668865D01*
X102884Y707687D01*
X102891Y707696D01*
X102899Y707703D01*
X103018Y707851D01*
X103139Y707999D01*
X103144Y708008D01*
X103151Y708017D01*
X103239Y708188D01*
X103327Y708354D01*
X103330Y708365D01*
X103336Y708375D01*
X103388Y708559D01*
X103442Y708740D01*
X103443Y708751D01*
X103446Y708762D01*
X103461Y708951D01*
X103478Y709141D01*
X103477Y709153D01*
X103478Y709164D01*
X103456Y709351D01*
X103435Y709542D01*
X103432Y709552D01*
X103430Y709563D01*
X103371Y709743D01*
X103313Y709925D01*
X103308Y709935D01*
X103305Y709946D01*
X103211Y710111D01*
X103119Y710278D01*
X103111Y710286D01*
X103106Y710296D01*
X102981Y710439D01*
X102858Y710585D01*
X102849Y710592D01*
X102842Y710600D01*
X102691Y710716D01*
X102542Y710834D01*
X102532Y710839D01*
X102523Y710846D01*
X102352Y710931D01*
X102183Y711017D01*
X102172Y711020D01*
X102162Y711025D01*
X101843Y711116D01*
X101627Y711159D01*
X100210Y711746D01*
X98934Y712598D01*
X97849Y713684D01*
X97488Y714224D01*
X97478Y714236D01*
X97470Y714250D01*
X97350Y714391D01*
X97232Y714535D01*
X97220Y714545D01*
X97210Y714557D01*
X97064Y714672D01*
X96920Y714789D01*
X96906Y714796D01*
X96894Y714806D01*
X96728Y714890D01*
X96564Y714977D01*
X96549Y714981D01*
X96535Y714988D01*
X96356Y715038D01*
X96178Y715091D01*
X96162Y715092D01*
X96147Y715096D01*
X95961Y715110D01*
X95777Y715126D01*
X95761Y715125D01*
X95745Y715126D01*
X95561Y715102D01*
X95376Y715082D01*
X95362Y715077D01*
X95346Y715075D01*
X95170Y715016D01*
X94993Y714960D01*
X94979Y714952D01*
X94964Y714947D01*
X94804Y714855D01*
X94641Y714764D01*
X94629Y714754D01*
X94615Y714746D01*
X94362Y714532D01*
X92738Y712907D01*
X90248Y711875D01*
X87552Y711875D01*
X85062Y712907D01*
X83157Y714812D01*
X82125Y717302D01*
X82125Y718820D01*
X82124Y718834D01*
X82125Y718846D01*
X82125Y718850D01*
X82125Y718856D01*
X82104Y719038D01*
X82085Y719221D01*
X82080Y719238D01*
X82078Y719255D01*
X82021Y719430D01*
X81967Y719606D01*
X81959Y719621D01*
X81953Y719638D01*
X81863Y719798D01*
X81775Y719960D01*
X81764Y719973D01*
X81755Y719989D01*
X81635Y720128D01*
X81518Y720269D01*
X81504Y720280D01*
X81492Y720294D01*
X81348Y720406D01*
X81204Y720521D01*
X81188Y720529D01*
X81174Y720540D01*
X81009Y720622D01*
X80847Y720707D01*
X80830Y720712D01*
X80814Y720720D01*
X80635Y720767D01*
X80460Y720818D01*
X80442Y720820D01*
X80425Y720824D01*
X80094Y720851D01*
X50123Y720851D01*
X50096Y720849D01*
X50069Y720851D01*
X49895Y720829D01*
X49722Y720811D01*
X49697Y720804D01*
X49670Y720800D01*
X49504Y720745D01*
X49337Y720693D01*
X49314Y720680D01*
X49288Y720672D01*
X49137Y720585D01*
X48983Y720501D01*
X48963Y720484D01*
X48939Y720471D01*
X48686Y720256D01*
X16344Y687914D01*
X16327Y687893D01*
X16306Y687875D01*
X16199Y687738D01*
X16089Y687602D01*
X16076Y687579D01*
X16060Y687557D01*
X15982Y687400D01*
X15900Y687246D01*
X15892Y687221D01*
X15880Y687197D01*
X15835Y687027D01*
X15785Y686861D01*
X15783Y686834D01*
X15776Y686808D01*
X15749Y686477D01*
X15749Y646430D01*
X15751Y646412D01*
X15749Y646394D01*
X15770Y646212D01*
X15789Y646029D01*
X15794Y646012D01*
X15796Y645995D01*
X15853Y645820D01*
X15907Y645644D01*
X15915Y645629D01*
X15921Y645612D01*
X16011Y645452D01*
X16099Y645290D01*
X16110Y645277D01*
X16119Y645261D01*
X16239Y645122D01*
X16356Y644981D01*
X16370Y644970D01*
X16382Y644956D01*
X16527Y644844D01*
X16670Y644729D01*
X16686Y644721D01*
X16700Y644710D01*
X16865Y644628D01*
X17027Y644543D01*
X17044Y644538D01*
X17060Y644530D01*
X17239Y644483D01*
X17414Y644432D01*
X17432Y644430D01*
X17449Y644426D01*
X17780Y644399D01*
X31826Y644399D01*
X31853Y644401D01*
G37*
%LPC*%
G36*
X373538Y229361D02*
X373538Y229361D01*
X371484Y230212D01*
X242912Y358784D01*
X242061Y360838D01*
X242061Y363062D01*
X242912Y365116D01*
X244484Y366688D01*
X246538Y367539D01*
X248762Y367539D01*
X250816Y366688D01*
X379388Y238116D01*
X380239Y236062D01*
X380239Y233838D01*
X379388Y231784D01*
X377816Y230212D01*
X375762Y229361D01*
X373538Y229361D01*
G37*
%LPD*%
G36*
X53892Y143823D02*
X53892Y143823D01*
X53901Y143823D01*
X54094Y143847D01*
X54283Y143869D01*
X54292Y143872D01*
X54301Y143873D01*
X54484Y143934D01*
X54666Y143994D01*
X54674Y143998D01*
X54682Y144001D01*
X54849Y144097D01*
X55017Y144192D01*
X55024Y144198D01*
X55031Y144202D01*
X55284Y144417D01*
X59712Y148845D01*
X67492Y148845D01*
X67518Y148847D01*
X67545Y148845D01*
X67719Y148867D01*
X67892Y148885D01*
X67918Y148892D01*
X67945Y148896D01*
X68110Y148951D01*
X68277Y149003D01*
X68301Y149016D01*
X68326Y149024D01*
X68478Y149111D01*
X68631Y149195D01*
X68652Y149212D01*
X68675Y149225D01*
X68928Y149440D01*
X99487Y179998D01*
X99490Y180002D01*
X99494Y180005D01*
X99617Y180158D01*
X99742Y180310D01*
X99744Y180314D01*
X99747Y180318D01*
X99837Y180490D01*
X99930Y180666D01*
X99932Y180670D01*
X99934Y180674D01*
X99989Y180863D01*
X100045Y181051D01*
X100046Y181056D01*
X100047Y181061D01*
X100064Y181254D01*
X100082Y181452D01*
X100081Y181457D01*
X100082Y181462D01*
X100060Y181652D01*
X100038Y181853D01*
X100037Y181857D01*
X100036Y181862D01*
X99978Y182044D01*
X99917Y182237D01*
X99914Y182241D01*
X99913Y182245D01*
X99817Y182417D01*
X99722Y182589D01*
X99719Y182592D01*
X99716Y182597D01*
X99590Y182744D01*
X99461Y182896D01*
X99458Y182899D01*
X99454Y182903D01*
X99300Y183023D01*
X99145Y183145D01*
X99141Y183148D01*
X99137Y183151D01*
X98961Y183239D01*
X98787Y183328D01*
X98782Y183329D01*
X98778Y183331D01*
X98587Y183383D01*
X98399Y183436D01*
X98394Y183436D01*
X98389Y183437D01*
X98194Y183451D01*
X97997Y183465D01*
X97992Y183465D01*
X97988Y183465D01*
X97795Y183440D01*
X97598Y183415D01*
X97593Y183413D01*
X97588Y183413D01*
X97519Y183390D01*
X97281Y183343D01*
X97281Y190500D01*
X97281Y197657D01*
X97413Y197631D01*
X98763Y197072D01*
X99977Y196260D01*
X101010Y195227D01*
X101181Y194971D01*
X101185Y194966D01*
X101189Y194960D01*
X101314Y194809D01*
X101437Y194661D01*
X101442Y194656D01*
X101446Y194651D01*
X101599Y194528D01*
X101749Y194406D01*
X101755Y194403D01*
X101760Y194399D01*
X101932Y194310D01*
X102105Y194218D01*
X102112Y194216D01*
X102117Y194213D01*
X102304Y194160D01*
X102491Y194104D01*
X102498Y194104D01*
X102504Y194102D01*
X102700Y194086D01*
X102892Y194069D01*
X102899Y194070D01*
X102906Y194069D01*
X103100Y194092D01*
X103292Y194113D01*
X103299Y194115D01*
X103305Y194116D01*
X103491Y194176D01*
X103676Y194235D01*
X103682Y194239D01*
X103688Y194241D01*
X103858Y194337D01*
X104028Y194431D01*
X104033Y194435D01*
X104039Y194439D01*
X104186Y194566D01*
X104334Y194692D01*
X104338Y194697D01*
X104344Y194702D01*
X104462Y194855D01*
X104583Y195009D01*
X104586Y195015D01*
X104590Y195020D01*
X104677Y195193D01*
X104765Y195368D01*
X104767Y195374D01*
X104770Y195380D01*
X104820Y195568D01*
X104872Y195756D01*
X104872Y195763D01*
X104874Y195769D01*
X104901Y196100D01*
X104901Y237665D01*
X104901Y237670D01*
X104901Y237674D01*
X104881Y237864D01*
X104861Y238066D01*
X104860Y238070D01*
X104860Y238075D01*
X104801Y238262D01*
X104743Y238451D01*
X104741Y238455D01*
X104740Y238459D01*
X104644Y238633D01*
X104551Y238805D01*
X104549Y238808D01*
X104546Y238812D01*
X104418Y238965D01*
X104294Y239114D01*
X104290Y239117D01*
X104287Y239120D01*
X104132Y239244D01*
X103980Y239366D01*
X103976Y239368D01*
X103972Y239371D01*
X103795Y239462D01*
X103623Y239552D01*
X103618Y239553D01*
X103614Y239555D01*
X103422Y239610D01*
X103236Y239663D01*
X103231Y239664D01*
X103227Y239665D01*
X103031Y239680D01*
X102834Y239696D01*
X102830Y239696D01*
X102826Y239696D01*
X102632Y239672D01*
X102435Y239649D01*
X102430Y239648D01*
X102426Y239647D01*
X102241Y239586D01*
X102052Y239524D01*
X102048Y239522D01*
X102044Y239521D01*
X101874Y239424D01*
X101701Y239326D01*
X101698Y239323D01*
X101694Y239321D01*
X101545Y239192D01*
X101397Y239063D01*
X101394Y239060D01*
X101390Y239057D01*
X101269Y238899D01*
X101150Y238745D01*
X101148Y238741D01*
X101145Y238738D01*
X100993Y238442D01*
X100675Y237675D01*
X98875Y235875D01*
X97283Y235215D01*
X96523Y234900D01*
X93977Y234900D01*
X91625Y235875D01*
X89825Y237675D01*
X89507Y238442D01*
X89505Y238446D01*
X89503Y238451D01*
X89410Y238624D01*
X89316Y238797D01*
X89314Y238801D01*
X89311Y238805D01*
X89186Y238955D01*
X89060Y239108D01*
X89057Y239111D01*
X89054Y239114D01*
X88903Y239235D01*
X88747Y239361D01*
X88743Y239364D01*
X88740Y239366D01*
X88568Y239456D01*
X88391Y239549D01*
X88387Y239550D01*
X88383Y239552D01*
X88195Y239606D01*
X88004Y239662D01*
X88000Y239662D01*
X87996Y239663D01*
X87798Y239679D01*
X87603Y239696D01*
X87599Y239696D01*
X87594Y239696D01*
X87399Y239673D01*
X87203Y239651D01*
X87199Y239650D01*
X87195Y239649D01*
X87007Y239588D01*
X86820Y239528D01*
X86816Y239526D01*
X86812Y239524D01*
X86639Y239427D01*
X86468Y239332D01*
X86465Y239329D01*
X86461Y239326D01*
X86313Y239198D01*
X86163Y239070D01*
X86160Y239066D01*
X86156Y239063D01*
X86036Y238908D01*
X85914Y238753D01*
X85912Y238749D01*
X85910Y238745D01*
X85822Y238569D01*
X85734Y238393D01*
X85732Y238389D01*
X85730Y238385D01*
X85679Y238194D01*
X85627Y238005D01*
X85627Y238000D01*
X85626Y237996D01*
X85599Y237665D01*
X85599Y196100D01*
X85599Y196093D01*
X85599Y196086D01*
X85620Y195891D01*
X85639Y195699D01*
X85641Y195693D01*
X85641Y195686D01*
X85700Y195500D01*
X85757Y195314D01*
X85760Y195308D01*
X85762Y195302D01*
X85771Y195286D01*
X85741Y195283D01*
X85736Y195281D01*
X85732Y195281D01*
X85545Y195218D01*
X85359Y195156D01*
X85355Y195154D01*
X85350Y195152D01*
X85181Y195055D01*
X85009Y194957D01*
X85005Y194954D01*
X85001Y194951D01*
X84748Y194737D01*
X83218Y193207D01*
X83218Y193206D01*
X77463Y187451D01*
X74225Y187451D01*
X74199Y187449D01*
X74172Y187451D01*
X73998Y187429D01*
X73825Y187411D01*
X73799Y187404D01*
X73772Y187400D01*
X73607Y187345D01*
X73440Y187293D01*
X73416Y187280D01*
X73391Y187272D01*
X73239Y187185D01*
X73086Y187101D01*
X73065Y187084D01*
X73042Y187071D01*
X72789Y186856D01*
X67288Y181355D01*
X59712Y181355D01*
X55284Y185783D01*
X55277Y185789D01*
X55272Y185796D01*
X55122Y185916D01*
X54973Y186038D01*
X54965Y186042D01*
X54958Y186048D01*
X54788Y186136D01*
X54617Y186227D01*
X54608Y186229D01*
X54601Y186233D01*
X54416Y186287D01*
X54231Y186342D01*
X54222Y186342D01*
X54214Y186345D01*
X54022Y186361D01*
X53830Y186378D01*
X53821Y186377D01*
X53812Y186378D01*
X53623Y186356D01*
X53430Y186335D01*
X53421Y186332D01*
X53413Y186331D01*
X53231Y186271D01*
X53046Y186213D01*
X53038Y186209D01*
X53030Y186206D01*
X52861Y186111D01*
X52694Y186018D01*
X52687Y186013D01*
X52679Y186008D01*
X52533Y185882D01*
X52387Y185758D01*
X52381Y185751D01*
X52374Y185745D01*
X52257Y185594D01*
X52137Y185442D01*
X52133Y185434D01*
X52128Y185427D01*
X52042Y185255D01*
X51955Y185083D01*
X51952Y185074D01*
X51948Y185066D01*
X51898Y184880D01*
X51847Y184695D01*
X51846Y184686D01*
X51844Y184678D01*
X51817Y184347D01*
X51817Y171253D01*
X51818Y171244D01*
X51817Y171235D01*
X51838Y171044D01*
X51857Y170853D01*
X51859Y170844D01*
X51860Y170835D01*
X51918Y170653D01*
X51975Y170468D01*
X51979Y170460D01*
X51982Y170451D01*
X52075Y170283D01*
X52167Y170114D01*
X52172Y170107D01*
X52177Y170099D01*
X52301Y169952D01*
X52424Y169804D01*
X52431Y169799D01*
X52437Y169792D01*
X52588Y169673D01*
X52738Y169552D01*
X52746Y169548D01*
X52753Y169542D01*
X52926Y169455D01*
X53095Y169367D01*
X53104Y169364D01*
X53112Y169360D01*
X53298Y169308D01*
X53482Y169255D01*
X53491Y169254D01*
X53500Y169252D01*
X53693Y169238D01*
X53884Y169222D01*
X53892Y169223D01*
X53901Y169223D01*
X54094Y169247D01*
X54283Y169269D01*
X54292Y169272D01*
X54301Y169273D01*
X54484Y169334D01*
X54666Y169394D01*
X54674Y169398D01*
X54682Y169401D01*
X54849Y169497D01*
X55017Y169592D01*
X55024Y169598D01*
X55031Y169602D01*
X55284Y169817D01*
X59712Y174245D01*
X67288Y174245D01*
X72645Y168888D01*
X72645Y161312D01*
X67288Y155955D01*
X59712Y155955D01*
X55284Y160383D01*
X55277Y160389D01*
X55272Y160396D01*
X55122Y160516D01*
X54973Y160638D01*
X54965Y160642D01*
X54958Y160648D01*
X54788Y160736D01*
X54617Y160827D01*
X54608Y160829D01*
X54601Y160833D01*
X54416Y160887D01*
X54231Y160942D01*
X54222Y160942D01*
X54214Y160945D01*
X54022Y160961D01*
X53830Y160978D01*
X53821Y160977D01*
X53812Y160978D01*
X53623Y160956D01*
X53430Y160935D01*
X53421Y160932D01*
X53413Y160931D01*
X53231Y160871D01*
X53046Y160813D01*
X53038Y160809D01*
X53030Y160806D01*
X52861Y160711D01*
X52694Y160618D01*
X52687Y160613D01*
X52679Y160608D01*
X52533Y160482D01*
X52387Y160358D01*
X52381Y160351D01*
X52374Y160345D01*
X52257Y160194D01*
X52137Y160042D01*
X52133Y160034D01*
X52128Y160027D01*
X52042Y159855D01*
X51955Y159683D01*
X51952Y159674D01*
X51948Y159666D01*
X51898Y159480D01*
X51847Y159295D01*
X51846Y159286D01*
X51844Y159278D01*
X51817Y158947D01*
X51817Y145853D01*
X51818Y145844D01*
X51817Y145835D01*
X51838Y145644D01*
X51857Y145453D01*
X51859Y145444D01*
X51860Y145435D01*
X51918Y145253D01*
X51975Y145068D01*
X51979Y145060D01*
X51982Y145051D01*
X52075Y144883D01*
X52167Y144714D01*
X52172Y144707D01*
X52177Y144699D01*
X52301Y144552D01*
X52424Y144404D01*
X52431Y144399D01*
X52437Y144392D01*
X52588Y144273D01*
X52738Y144152D01*
X52746Y144148D01*
X52753Y144142D01*
X52926Y144055D01*
X53095Y143967D01*
X53104Y143964D01*
X53112Y143960D01*
X53298Y143908D01*
X53482Y143855D01*
X53491Y143854D01*
X53500Y143852D01*
X53693Y143838D01*
X53884Y143822D01*
X53892Y143823D01*
G37*
G36*
X31853Y568201D02*
X31853Y568201D01*
X31880Y568199D01*
X32054Y568221D01*
X32227Y568239D01*
X32253Y568246D01*
X32279Y568250D01*
X32445Y568305D01*
X32612Y568357D01*
X32636Y568370D01*
X32661Y568378D01*
X32813Y568465D01*
X32966Y568549D01*
X32986Y568566D01*
X33010Y568579D01*
X33263Y568794D01*
X35082Y570612D01*
X35091Y570625D01*
X35103Y570635D01*
X35219Y570780D01*
X35337Y570924D01*
X35344Y570938D01*
X35354Y570950D01*
X35439Y571117D01*
X35525Y571280D01*
X35530Y571295D01*
X35537Y571309D01*
X35587Y571488D01*
X35640Y571666D01*
X35641Y571681D01*
X35646Y571696D01*
X35660Y571880D01*
X35676Y572067D01*
X35675Y572082D01*
X35676Y572098D01*
X35653Y572281D01*
X35633Y572467D01*
X35628Y572482D01*
X35626Y572497D01*
X35568Y572673D01*
X35512Y572851D01*
X35504Y572864D01*
X35499Y572879D01*
X35407Y573040D01*
X35317Y573203D01*
X35307Y573215D01*
X35299Y573229D01*
X35176Y573369D01*
X35056Y573510D01*
X35044Y573520D01*
X35034Y573531D01*
X34774Y573738D01*
X34234Y574099D01*
X33148Y575184D01*
X32296Y576460D01*
X31709Y577878D01*
X31661Y578119D01*
X44450Y578119D01*
X44467Y578120D01*
X44485Y578119D01*
X44668Y578140D01*
X44850Y578158D01*
X44867Y578164D01*
X44885Y578166D01*
X45060Y578223D01*
X45235Y578277D01*
X45251Y578285D01*
X45268Y578291D01*
X45428Y578381D01*
X45589Y578468D01*
X45603Y578480D01*
X45618Y578489D01*
X45758Y578609D01*
X45898Y578726D01*
X45910Y578740D01*
X45923Y578752D01*
X46036Y578897D01*
X46151Y579040D01*
X46159Y579056D01*
X46170Y579070D01*
X46252Y579235D01*
X46336Y579397D01*
X46341Y579414D01*
X46349Y579430D01*
X46397Y579608D01*
X46448Y579784D01*
X46449Y579802D01*
X46454Y579819D01*
X46481Y580150D01*
X46479Y580168D01*
X46481Y580185D01*
X46481Y580186D01*
X46459Y580368D01*
X46441Y580551D01*
X46436Y580568D01*
X46434Y580586D01*
X46377Y580760D01*
X46323Y580936D01*
X46314Y580951D01*
X46309Y580968D01*
X46218Y581129D01*
X46131Y581290D01*
X46120Y581303D01*
X46111Y581319D01*
X45991Y581458D01*
X45873Y581599D01*
X45859Y581610D01*
X45848Y581624D01*
X45703Y581736D01*
X45560Y581851D01*
X45544Y581860D01*
X45530Y581870D01*
X45365Y581952D01*
X45202Y582037D01*
X45185Y582042D01*
X45169Y582050D01*
X44991Y582098D01*
X44815Y582148D01*
X44798Y582150D01*
X44780Y582154D01*
X44450Y582181D01*
X31661Y582181D01*
X31709Y582422D01*
X32296Y583840D01*
X33148Y585116D01*
X34234Y586201D01*
X34774Y586562D01*
X34786Y586572D01*
X34799Y586580D01*
X34941Y586700D01*
X35085Y586818D01*
X35095Y586830D01*
X35106Y586840D01*
X35222Y586986D01*
X35339Y587130D01*
X35346Y587144D01*
X35356Y587156D01*
X35440Y587322D01*
X35527Y587486D01*
X35531Y587501D01*
X35538Y587515D01*
X35588Y587694D01*
X35641Y587872D01*
X35642Y587888D01*
X35646Y587903D01*
X35660Y588089D01*
X35676Y588273D01*
X35675Y588289D01*
X35676Y588305D01*
X35652Y588490D01*
X35632Y588674D01*
X35627Y588688D01*
X35625Y588704D01*
X35566Y588880D01*
X35510Y589057D01*
X35502Y589071D01*
X35497Y589086D01*
X35405Y589246D01*
X35314Y589409D01*
X35304Y589421D01*
X35296Y589435D01*
X35082Y589688D01*
X33457Y591312D01*
X32425Y593802D01*
X32425Y596498D01*
X33457Y598988D01*
X35443Y600974D01*
X35590Y601097D01*
X35738Y601220D01*
X35744Y601227D01*
X35751Y601233D01*
X35871Y601384D01*
X35992Y601533D01*
X35996Y601541D01*
X36002Y601548D01*
X36090Y601719D01*
X36179Y601889D01*
X36181Y601898D01*
X36186Y601906D01*
X36237Y602089D01*
X36292Y602276D01*
X36293Y602285D01*
X36295Y602294D01*
X36310Y602484D01*
X36327Y602677D01*
X36325Y602686D01*
X36326Y602695D01*
X36303Y602886D01*
X36281Y603077D01*
X36279Y603086D01*
X36277Y603095D01*
X36217Y603277D01*
X36158Y603460D01*
X36154Y603468D01*
X36151Y603477D01*
X36055Y603645D01*
X35962Y603812D01*
X35956Y603819D01*
X35951Y603827D01*
X35824Y603973D01*
X35700Y604117D01*
X35693Y604123D01*
X35687Y604130D01*
X35534Y604248D01*
X35477Y604292D01*
X33457Y606312D01*
X32425Y608802D01*
X32425Y611498D01*
X33457Y613988D01*
X35362Y615893D01*
X37852Y616925D01*
X51048Y616925D01*
X53538Y615893D01*
X54444Y614987D01*
X54451Y614982D01*
X54456Y614975D01*
X54606Y614854D01*
X54755Y614732D01*
X54763Y614728D01*
X54770Y614722D01*
X54940Y614634D01*
X55111Y614544D01*
X55120Y614541D01*
X55127Y614537D01*
X55312Y614484D01*
X55497Y614429D01*
X55506Y614428D01*
X55514Y614425D01*
X55705Y614410D01*
X55898Y614392D01*
X55907Y614393D01*
X55916Y614393D01*
X56105Y614415D01*
X56298Y614436D01*
X56307Y614438D01*
X56315Y614439D01*
X56497Y614499D01*
X56682Y614557D01*
X56690Y614562D01*
X56698Y614564D01*
X56865Y614659D01*
X57034Y614752D01*
X57041Y614758D01*
X57049Y614762D01*
X57194Y614887D01*
X57341Y615013D01*
X57347Y615020D01*
X57354Y615025D01*
X57470Y615176D01*
X57591Y615328D01*
X57595Y615337D01*
X57600Y615343D01*
X57685Y615514D01*
X57773Y615687D01*
X57776Y615696D01*
X57780Y615704D01*
X57829Y615890D01*
X57881Y616075D01*
X57882Y616084D01*
X57884Y616093D01*
X57911Y616424D01*
X57911Y635076D01*
X57910Y635085D01*
X57911Y635094D01*
X57890Y635286D01*
X57871Y635477D01*
X57869Y635486D01*
X57868Y635495D01*
X57810Y635677D01*
X57753Y635862D01*
X57749Y635870D01*
X57746Y635878D01*
X57653Y636047D01*
X57561Y636216D01*
X57556Y636223D01*
X57551Y636231D01*
X57426Y636379D01*
X57304Y636525D01*
X57297Y636531D01*
X57291Y636538D01*
X57140Y636657D01*
X56990Y636778D01*
X56982Y636782D01*
X56975Y636787D01*
X56804Y636874D01*
X56633Y636963D01*
X56624Y636966D01*
X56616Y636970D01*
X56431Y637021D01*
X56246Y637075D01*
X56237Y637075D01*
X56228Y637078D01*
X56036Y637092D01*
X55844Y637107D01*
X55836Y637106D01*
X55827Y637107D01*
X55634Y637083D01*
X55445Y637061D01*
X55436Y637058D01*
X55427Y637057D01*
X55244Y636995D01*
X55062Y636936D01*
X55054Y636931D01*
X55046Y636928D01*
X54880Y636833D01*
X54711Y636738D01*
X54704Y636732D01*
X54697Y636727D01*
X54444Y636513D01*
X53538Y635607D01*
X52970Y635371D01*
X51048Y634575D01*
X37852Y634575D01*
X35362Y635607D01*
X33263Y637706D01*
X33242Y637723D01*
X33225Y637744D01*
X33087Y637851D01*
X32951Y637961D01*
X32928Y637974D01*
X32906Y637990D01*
X32750Y638068D01*
X32596Y638150D01*
X32570Y638158D01*
X32546Y638170D01*
X32377Y638215D01*
X32210Y638265D01*
X32183Y638267D01*
X32157Y638274D01*
X31826Y638301D01*
X17780Y638301D01*
X17762Y638299D01*
X17744Y638301D01*
X17562Y638280D01*
X17379Y638261D01*
X17362Y638256D01*
X17345Y638254D01*
X17170Y638197D01*
X16994Y638143D01*
X16979Y638135D01*
X16962Y638129D01*
X16802Y638039D01*
X16640Y637951D01*
X16627Y637940D01*
X16611Y637931D01*
X16472Y637811D01*
X16331Y637694D01*
X16320Y637680D01*
X16306Y637668D01*
X16194Y637523D01*
X16079Y637380D01*
X16071Y637364D01*
X16060Y637350D01*
X15978Y637185D01*
X15893Y637023D01*
X15888Y637006D01*
X15880Y636990D01*
X15833Y636811D01*
X15782Y636636D01*
X15780Y636618D01*
X15776Y636601D01*
X15749Y636270D01*
X15749Y570230D01*
X15751Y570212D01*
X15749Y570194D01*
X15770Y570012D01*
X15789Y569829D01*
X15794Y569812D01*
X15796Y569795D01*
X15853Y569620D01*
X15907Y569444D01*
X15915Y569429D01*
X15921Y569412D01*
X16012Y569251D01*
X16099Y569090D01*
X16110Y569077D01*
X16119Y569061D01*
X16239Y568922D01*
X16356Y568781D01*
X16370Y568770D01*
X16382Y568756D01*
X16527Y568644D01*
X16670Y568529D01*
X16686Y568521D01*
X16700Y568510D01*
X16865Y568428D01*
X17027Y568343D01*
X17044Y568338D01*
X17060Y568330D01*
X17239Y568283D01*
X17414Y568232D01*
X17432Y568230D01*
X17449Y568226D01*
X17780Y568199D01*
X31826Y568199D01*
X31853Y568201D01*
G37*
G36*
X64801Y292579D02*
X64801Y292579D01*
X64806Y292578D01*
X65003Y292601D01*
X65197Y292623D01*
X65201Y292625D01*
X65205Y292625D01*
X65394Y292687D01*
X65580Y292746D01*
X65584Y292749D01*
X65588Y292750D01*
X65761Y292847D01*
X65932Y292943D01*
X65935Y292946D01*
X65939Y292948D01*
X66088Y293076D01*
X66237Y293205D01*
X66240Y293208D01*
X66244Y293211D01*
X66362Y293363D01*
X66486Y293522D01*
X66488Y293526D01*
X66490Y293529D01*
X66576Y293702D01*
X66666Y293881D01*
X66668Y293886D01*
X66670Y293890D01*
X66721Y294082D01*
X66773Y294270D01*
X66773Y294274D01*
X66774Y294278D01*
X66801Y294609D01*
X66801Y302696D01*
X66799Y302722D01*
X66801Y302749D01*
X66779Y302923D01*
X66761Y303096D01*
X66754Y303122D01*
X66750Y303149D01*
X66695Y303314D01*
X66643Y303481D01*
X66630Y303505D01*
X66622Y303530D01*
X66535Y303682D01*
X66451Y303835D01*
X66434Y303856D01*
X66421Y303879D01*
X66206Y304132D01*
X54581Y315757D01*
X54581Y368257D01*
X54580Y368271D01*
X54581Y368284D01*
X54560Y368471D01*
X54541Y368658D01*
X54537Y368671D01*
X54536Y368684D01*
X54478Y368863D01*
X54423Y369043D01*
X54417Y369055D01*
X54413Y369067D01*
X54321Y369231D01*
X54231Y369397D01*
X54223Y369407D01*
X54216Y369419D01*
X54094Y369562D01*
X53974Y369706D01*
X53963Y369714D01*
X53954Y369725D01*
X53807Y369840D01*
X53660Y369958D01*
X53648Y369964D01*
X53637Y369973D01*
X53469Y370057D01*
X53303Y370144D01*
X53290Y370147D01*
X53278Y370154D01*
X53097Y370203D01*
X52916Y370255D01*
X52902Y370256D01*
X52889Y370260D01*
X52703Y370273D01*
X52514Y370288D01*
X52501Y370286D01*
X52488Y370287D01*
X52302Y370263D01*
X52115Y370241D01*
X52102Y370237D01*
X52088Y370235D01*
X51773Y370134D01*
X51704Y370105D01*
X51408Y370105D01*
X51382Y370103D01*
X51355Y370105D01*
X51181Y370083D01*
X51008Y370065D01*
X50982Y370058D01*
X50955Y370054D01*
X50790Y369999D01*
X50623Y369947D01*
X50599Y369934D01*
X50574Y369926D01*
X50422Y369839D01*
X50269Y369755D01*
X50248Y369738D01*
X50225Y369725D01*
X49972Y369510D01*
X35394Y354932D01*
X35377Y354911D01*
X35356Y354894D01*
X35249Y354756D01*
X35139Y354621D01*
X35126Y354597D01*
X35110Y354576D01*
X35032Y354419D01*
X34950Y354265D01*
X34942Y354239D01*
X34930Y354215D01*
X34885Y354046D01*
X34835Y353879D01*
X34833Y353852D01*
X34826Y353827D01*
X34799Y353496D01*
X34799Y294609D01*
X34799Y294605D01*
X34799Y294600D01*
X34819Y294406D01*
X34839Y294209D01*
X34840Y294204D01*
X34840Y294200D01*
X34898Y294014D01*
X34957Y293824D01*
X34959Y293820D01*
X34960Y293815D01*
X35054Y293644D01*
X35149Y293470D01*
X35151Y293466D01*
X35154Y293462D01*
X35281Y293311D01*
X35406Y293160D01*
X35410Y293158D01*
X35413Y293154D01*
X35567Y293031D01*
X35720Y292908D01*
X35724Y292906D01*
X35727Y292903D01*
X35902Y292814D01*
X36077Y292722D01*
X36082Y292721D01*
X36086Y292719D01*
X36273Y292666D01*
X36464Y292611D01*
X36469Y292611D01*
X36473Y292610D01*
X36666Y292595D01*
X36866Y292578D01*
X36870Y292579D01*
X36874Y292578D01*
X37067Y292602D01*
X37265Y292625D01*
X37270Y292627D01*
X37274Y292627D01*
X37457Y292688D01*
X37648Y292750D01*
X37652Y292752D01*
X37656Y292754D01*
X37826Y292851D01*
X37999Y292948D01*
X38002Y292951D01*
X38006Y292953D01*
X38157Y293084D01*
X38303Y293211D01*
X38306Y293215D01*
X38310Y293217D01*
X38430Y293374D01*
X38550Y293529D01*
X38552Y293533D01*
X38555Y293537D01*
X38707Y293832D01*
X39807Y296488D01*
X41712Y298393D01*
X44202Y299425D01*
X57398Y299425D01*
X59888Y298393D01*
X61793Y296488D01*
X62893Y293832D01*
X62895Y293828D01*
X62897Y293824D01*
X62990Y293651D01*
X63084Y293477D01*
X63086Y293473D01*
X63089Y293470D01*
X63213Y293321D01*
X63340Y293167D01*
X63343Y293164D01*
X63346Y293160D01*
X63499Y293037D01*
X63653Y292913D01*
X63657Y292911D01*
X63660Y292908D01*
X63835Y292817D01*
X64009Y292726D01*
X64013Y292725D01*
X64017Y292722D01*
X64207Y292668D01*
X64396Y292613D01*
X64400Y292612D01*
X64404Y292611D01*
X64602Y292595D01*
X64797Y292578D01*
X64801Y292579D01*
G37*
%LPC*%
G36*
X297546Y446305D02*
X297546Y446305D01*
X295876Y446997D01*
X294597Y448276D01*
X293905Y449946D01*
X293905Y451754D01*
X294597Y453424D01*
X295876Y454703D01*
X297546Y455395D01*
X299354Y455395D01*
X299402Y455375D01*
X299423Y455369D01*
X299443Y455358D01*
X299615Y455310D01*
X299787Y455259D01*
X299809Y455256D01*
X299831Y455250D01*
X300010Y455237D01*
X300188Y455220D01*
X300210Y455223D01*
X300232Y455221D01*
X300410Y455244D01*
X300588Y455262D01*
X300610Y455269D01*
X300632Y455271D01*
X300802Y455329D01*
X300973Y455382D01*
X300992Y455393D01*
X301013Y455400D01*
X301169Y455489D01*
X301326Y455575D01*
X301343Y455589D01*
X301362Y455601D01*
X301615Y455815D01*
X348328Y502528D01*
X351007Y505207D01*
X370957Y505207D01*
X370988Y505210D01*
X371019Y505208D01*
X371188Y505230D01*
X371357Y505247D01*
X371387Y505256D01*
X371418Y505260D01*
X371734Y505361D01*
X373746Y506195D01*
X375554Y506195D01*
X377224Y505503D01*
X378503Y504224D01*
X379195Y502554D01*
X379195Y500746D01*
X378503Y499076D01*
X377224Y497797D01*
X375554Y497105D01*
X373746Y497105D01*
X371734Y497939D01*
X371704Y497948D01*
X371676Y497962D01*
X371511Y498006D01*
X371349Y498055D01*
X371318Y498058D01*
X371287Y498066D01*
X370957Y498093D01*
X354795Y498093D01*
X354768Y498091D01*
X354741Y498093D01*
X354567Y498071D01*
X354394Y498053D01*
X354369Y498046D01*
X354342Y498042D01*
X354176Y497987D01*
X354009Y497935D01*
X353986Y497922D01*
X353960Y497914D01*
X353809Y497827D01*
X353655Y497743D01*
X353635Y497726D01*
X353611Y497713D01*
X353358Y497498D01*
X327399Y471539D01*
X327396Y471535D01*
X327392Y471532D01*
X327268Y471379D01*
X327144Y471227D01*
X327141Y471223D01*
X327138Y471219D01*
X327045Y471042D01*
X326955Y470871D01*
X326954Y470867D01*
X326951Y470863D01*
X326895Y470670D01*
X326840Y470486D01*
X326840Y470481D01*
X326838Y470476D01*
X326822Y470282D01*
X326804Y470085D01*
X326804Y470080D01*
X326804Y470075D01*
X326825Y469885D01*
X326847Y469684D01*
X326849Y469680D01*
X326849Y469675D01*
X326909Y469490D01*
X326969Y469300D01*
X326971Y469296D01*
X326972Y469292D01*
X327069Y469119D01*
X327164Y468948D01*
X327166Y468945D01*
X327169Y468940D01*
X327297Y468791D01*
X327424Y468641D01*
X327428Y468638D01*
X327431Y468635D01*
X327584Y468515D01*
X327740Y468392D01*
X327744Y468389D01*
X327748Y468387D01*
X327923Y468299D01*
X328099Y468209D01*
X328103Y468208D01*
X328108Y468206D01*
X328297Y468154D01*
X328487Y468101D01*
X328491Y468101D01*
X328496Y468100D01*
X328689Y468086D01*
X328888Y468072D01*
X328893Y468072D01*
X328898Y468072D01*
X329071Y468095D01*
X331104Y468095D01*
X333116Y467261D01*
X333146Y467252D01*
X333174Y467238D01*
X333339Y467194D01*
X333501Y467145D01*
X333532Y467142D01*
X333563Y467134D01*
X333893Y467107D01*
X365985Y467107D01*
X366012Y467109D01*
X366039Y467107D01*
X366213Y467129D01*
X366386Y467147D01*
X366411Y467154D01*
X366438Y467158D01*
X366604Y467213D01*
X366771Y467265D01*
X366794Y467278D01*
X366820Y467286D01*
X366971Y467373D01*
X367125Y467457D01*
X367145Y467474D01*
X367169Y467487D01*
X367422Y467702D01*
X388573Y488853D01*
X388593Y488878D01*
X388617Y488898D01*
X388721Y489033D01*
X388829Y489165D01*
X388843Y489192D01*
X388862Y489217D01*
X389014Y489512D01*
X389847Y491524D01*
X391126Y492803D01*
X392796Y493495D01*
X394604Y493495D01*
X396274Y492803D01*
X397553Y491524D01*
X398245Y489854D01*
X398245Y488046D01*
X397553Y486376D01*
X396274Y485097D01*
X394262Y484264D01*
X394235Y484249D01*
X394205Y484239D01*
X394058Y484154D01*
X393908Y484074D01*
X393884Y484054D01*
X393856Y484038D01*
X393603Y483823D01*
X372452Y462672D01*
X369773Y459993D01*
X333893Y459993D01*
X333862Y459990D01*
X333831Y459992D01*
X333662Y459970D01*
X333493Y459953D01*
X333463Y459944D01*
X333432Y459940D01*
X333116Y459839D01*
X331104Y459005D01*
X329296Y459005D01*
X327626Y459697D01*
X326347Y460976D01*
X325655Y462646D01*
X325655Y464673D01*
X325660Y464730D01*
X325679Y464923D01*
X325678Y464928D01*
X325679Y464933D01*
X325657Y465134D01*
X325637Y465324D01*
X325636Y465328D01*
X325635Y465333D01*
X325575Y465524D01*
X325518Y465708D01*
X325515Y465712D01*
X325514Y465717D01*
X325418Y465891D01*
X325324Y466062D01*
X325321Y466065D01*
X325319Y466069D01*
X325191Y466220D01*
X325065Y466370D01*
X325062Y466373D01*
X325059Y466376D01*
X324902Y466500D01*
X324751Y466621D01*
X324746Y466623D01*
X324743Y466626D01*
X324566Y466716D01*
X324392Y466805D01*
X324388Y466806D01*
X324384Y466808D01*
X324194Y466861D01*
X324005Y466915D01*
X324000Y466915D01*
X323996Y466916D01*
X323799Y466931D01*
X323604Y466946D01*
X323599Y466945D01*
X323594Y466946D01*
X323399Y466921D01*
X323204Y466897D01*
X323200Y466896D01*
X323195Y466895D01*
X323007Y466832D01*
X322822Y466771D01*
X322818Y466768D01*
X322813Y466767D01*
X322640Y466667D01*
X322472Y466571D01*
X322469Y466568D01*
X322464Y466566D01*
X322211Y466351D01*
X303153Y447293D01*
X302143Y447293D01*
X302112Y447290D01*
X302081Y447292D01*
X301912Y447270D01*
X301743Y447253D01*
X301713Y447244D01*
X301682Y447240D01*
X301366Y447139D01*
X299354Y446305D01*
X297546Y446305D01*
G37*
%LPD*%
%LPC*%
G36*
X859596Y720280D02*
X859596Y720280D01*
X852197Y723344D01*
X846534Y729007D01*
X843470Y736406D01*
X843470Y744414D01*
X846534Y751813D01*
X852197Y757476D01*
X857311Y759594D01*
X859596Y760540D01*
X867604Y760540D01*
X875003Y757476D01*
X880666Y751813D01*
X883730Y744414D01*
X883730Y736406D01*
X880666Y729007D01*
X875003Y723344D01*
X868580Y720684D01*
X867604Y720280D01*
X859596Y720280D01*
G37*
%LPD*%
%LPC*%
G36*
X27746Y11620D02*
X27746Y11620D01*
X20347Y14684D01*
X14684Y20347D01*
X11620Y27746D01*
X11620Y35754D01*
X14684Y43153D01*
X20347Y48816D01*
X24866Y50687D01*
X24866Y50688D01*
X27746Y51880D01*
X35754Y51880D01*
X43153Y48816D01*
X48816Y43153D01*
X51880Y35754D01*
X51880Y27746D01*
X48816Y20347D01*
X43153Y14684D01*
X36135Y11778D01*
X35754Y11620D01*
X27746Y11620D01*
G37*
%LPD*%
%LPC*%
G36*
X853246Y11620D02*
X853246Y11620D01*
X845847Y14684D01*
X840184Y20347D01*
X837120Y27746D01*
X837120Y35754D01*
X840184Y43153D01*
X845847Y48816D01*
X850366Y50687D01*
X850366Y50688D01*
X853246Y51880D01*
X861254Y51880D01*
X868653Y48816D01*
X874316Y43153D01*
X877380Y35754D01*
X877380Y27746D01*
X874316Y20347D01*
X868653Y14684D01*
X861635Y11778D01*
X861254Y11620D01*
X853246Y11620D01*
G37*
%LPD*%
%LPC*%
G36*
X59712Y79755D02*
X59712Y79755D01*
X54355Y85112D01*
X54355Y92688D01*
X59712Y98045D01*
X67492Y98045D01*
X67518Y98047D01*
X67545Y98045D01*
X67719Y98067D01*
X67892Y98085D01*
X67918Y98092D01*
X67945Y98096D01*
X68110Y98151D01*
X68277Y98203D01*
X68301Y98216D01*
X68326Y98224D01*
X68478Y98311D01*
X68631Y98395D01*
X68652Y98412D01*
X68675Y98425D01*
X68928Y98640D01*
X117006Y146718D01*
X117023Y146739D01*
X117044Y146756D01*
X117151Y146894D01*
X117261Y147029D01*
X117274Y147053D01*
X117290Y147074D01*
X117368Y147231D01*
X117450Y147385D01*
X117458Y147411D01*
X117470Y147435D01*
X117515Y147604D01*
X117565Y147771D01*
X117567Y147798D01*
X117574Y147823D01*
X117601Y148154D01*
X117601Y198980D01*
X117599Y199007D01*
X117601Y199033D01*
X117579Y199207D01*
X117561Y199381D01*
X117554Y199406D01*
X117550Y199433D01*
X117495Y199599D01*
X117443Y199766D01*
X117430Y199789D01*
X117422Y199815D01*
X117335Y199966D01*
X117251Y200120D01*
X117234Y200140D01*
X117221Y200163D01*
X117006Y200416D01*
X116797Y200626D01*
X116105Y202296D01*
X116105Y204104D01*
X116797Y205774D01*
X118076Y207053D01*
X119746Y207745D01*
X121554Y207745D01*
X123224Y207053D01*
X124503Y205774D01*
X125195Y204104D01*
X125195Y202296D01*
X124503Y200626D01*
X124294Y200416D01*
X124277Y200396D01*
X124256Y200378D01*
X124149Y200240D01*
X124039Y200105D01*
X124026Y200081D01*
X124010Y200060D01*
X123932Y199903D01*
X123850Y199749D01*
X123842Y199724D01*
X123830Y199700D01*
X123785Y199530D01*
X123735Y199363D01*
X123733Y199337D01*
X123726Y199311D01*
X123699Y198980D01*
X123699Y144787D01*
X73240Y94328D01*
X73223Y94307D01*
X73202Y94290D01*
X73095Y94152D01*
X72985Y94017D01*
X72972Y93993D01*
X72956Y93972D01*
X72878Y93815D01*
X72796Y93661D01*
X72788Y93635D01*
X72776Y93611D01*
X72731Y93442D01*
X72681Y93275D01*
X72679Y93248D01*
X72672Y93223D01*
X72645Y92892D01*
X72645Y85112D01*
X67288Y79755D01*
X59712Y79755D01*
G37*
%LPD*%
%LPC*%
G36*
X651658Y688675D02*
X651658Y688675D01*
X647239Y690506D01*
X643856Y693889D01*
X642025Y698308D01*
X642025Y724092D01*
X643856Y728511D01*
X647239Y731894D01*
X651658Y733725D01*
X656442Y733725D01*
X660861Y731894D01*
X664244Y728511D01*
X666075Y724092D01*
X666075Y698308D01*
X664244Y693889D01*
X660861Y690506D01*
X656442Y688675D01*
X651658Y688675D01*
G37*
%LPD*%
%LPC*%
G36*
X600858Y688675D02*
X600858Y688675D01*
X596439Y690506D01*
X593056Y693889D01*
X591225Y698308D01*
X591225Y724092D01*
X593056Y728511D01*
X596439Y731894D01*
X600858Y733725D01*
X605642Y733725D01*
X610061Y731894D01*
X613444Y728511D01*
X615275Y724092D01*
X615275Y698308D01*
X613444Y693889D01*
X610061Y690506D01*
X605642Y688675D01*
X600858Y688675D01*
G37*
%LPD*%
%LPC*%
G36*
X607208Y60025D02*
X607208Y60025D01*
X602789Y61856D01*
X599406Y65239D01*
X597575Y69658D01*
X597575Y95442D01*
X599406Y99861D01*
X602789Y103244D01*
X607208Y105075D01*
X611992Y105075D01*
X616411Y103244D01*
X619794Y99861D01*
X621625Y95442D01*
X621625Y69658D01*
X619794Y65239D01*
X616411Y61856D01*
X611992Y60025D01*
X607208Y60025D01*
G37*
%LPD*%
%LPC*%
G36*
X658008Y60025D02*
X658008Y60025D01*
X653589Y61856D01*
X650206Y65239D01*
X648375Y69658D01*
X648375Y95442D01*
X650206Y99861D01*
X653589Y103244D01*
X658008Y105075D01*
X662792Y105075D01*
X667211Y103244D01*
X670594Y99861D01*
X672425Y95442D01*
X672425Y69658D01*
X670594Y65239D01*
X667211Y61856D01*
X662792Y60025D01*
X658008Y60025D01*
G37*
%LPD*%
%LPC*%
G36*
X825308Y388025D02*
X825308Y388025D01*
X820889Y389856D01*
X817506Y393239D01*
X815675Y397658D01*
X815675Y402442D01*
X817506Y406861D01*
X820889Y410244D01*
X825308Y412075D01*
X851092Y412075D01*
X855511Y410244D01*
X858894Y406861D01*
X860725Y402442D01*
X860725Y397658D01*
X858894Y393239D01*
X855511Y389856D01*
X851092Y388025D01*
X825308Y388025D01*
G37*
%LPD*%
%LPC*%
G36*
X600820Y468375D02*
X600820Y468375D01*
X595592Y470541D01*
X591591Y474542D01*
X589425Y479770D01*
X589425Y485430D01*
X591591Y490658D01*
X595592Y494659D01*
X597698Y495531D01*
X600820Y496825D01*
X606480Y496825D01*
X611708Y494659D01*
X615709Y490658D01*
X617875Y485430D01*
X617875Y479770D01*
X615709Y474542D01*
X611708Y470541D01*
X606480Y468375D01*
X600820Y468375D01*
G37*
%LPD*%
%LPC*%
G36*
X669870Y290575D02*
X669870Y290575D01*
X664642Y292741D01*
X660641Y296742D01*
X658475Y301970D01*
X658475Y307630D01*
X660641Y312858D01*
X664642Y316859D01*
X669870Y319025D01*
X675530Y319025D01*
X680758Y316859D01*
X684759Y312858D01*
X686925Y307630D01*
X686925Y301970D01*
X684759Y296742D01*
X680758Y292741D01*
X679187Y292090D01*
X675530Y290575D01*
X669870Y290575D01*
G37*
%LPD*%
%LPC*%
G36*
X381000Y158481D02*
X381000Y158481D01*
X368211Y158481D01*
X368259Y158722D01*
X368846Y160140D01*
X369698Y161416D01*
X370784Y162501D01*
X371324Y162862D01*
X371336Y162872D01*
X371349Y162880D01*
X371491Y163000D01*
X371635Y163118D01*
X371645Y163130D01*
X371656Y163140D01*
X371772Y163286D01*
X371889Y163430D01*
X371896Y163444D01*
X371906Y163456D01*
X371990Y163622D01*
X372077Y163786D01*
X372081Y163801D01*
X372088Y163815D01*
X372138Y163994D01*
X372191Y164172D01*
X372192Y164188D01*
X372196Y164203D01*
X372210Y164389D01*
X372226Y164573D01*
X372225Y164589D01*
X372226Y164605D01*
X372202Y164790D01*
X372182Y164974D01*
X372177Y164988D01*
X372175Y165004D01*
X372116Y165180D01*
X372060Y165357D01*
X372052Y165371D01*
X372047Y165386D01*
X371954Y165547D01*
X371864Y165709D01*
X371854Y165721D01*
X371846Y165735D01*
X371632Y165988D01*
X370007Y167612D01*
X368975Y170102D01*
X368975Y172798D01*
X370007Y175288D01*
X371912Y177193D01*
X374402Y178225D01*
X387598Y178225D01*
X390088Y177193D01*
X391993Y175288D01*
X393025Y172798D01*
X393025Y170102D01*
X391993Y167612D01*
X390368Y165988D01*
X390359Y165975D01*
X390347Y165965D01*
X390231Y165820D01*
X390113Y165676D01*
X390106Y165662D01*
X390096Y165650D01*
X390011Y165483D01*
X389925Y165320D01*
X389920Y165305D01*
X389913Y165291D01*
X389863Y165111D01*
X389810Y164934D01*
X389809Y164919D01*
X389804Y164904D01*
X389790Y164720D01*
X389774Y164533D01*
X389775Y164518D01*
X389774Y164502D01*
X389797Y164319D01*
X389817Y164133D01*
X389822Y164118D01*
X389824Y164103D01*
X389882Y163927D01*
X389938Y163749D01*
X389946Y163736D01*
X389951Y163721D01*
X390044Y163559D01*
X390133Y163397D01*
X390143Y163385D01*
X390151Y163371D01*
X390274Y163231D01*
X390394Y163090D01*
X390406Y163080D01*
X390416Y163069D01*
X390676Y162862D01*
X391216Y162501D01*
X392302Y161416D01*
X393154Y160140D01*
X393741Y158722D01*
X393789Y158481D01*
X381000Y158481D01*
X381000Y158481D01*
G37*
%LPD*%
%LPC*%
G36*
X368052Y659975D02*
X368052Y659975D01*
X365562Y661007D01*
X363657Y662912D01*
X362625Y665402D01*
X362625Y668098D01*
X363657Y670588D01*
X365282Y672212D01*
X365291Y672225D01*
X365303Y672235D01*
X365419Y672380D01*
X365537Y672524D01*
X365544Y672538D01*
X365554Y672550D01*
X365639Y672717D01*
X365725Y672880D01*
X365730Y672895D01*
X365737Y672909D01*
X365787Y673088D01*
X365840Y673266D01*
X365841Y673281D01*
X365846Y673296D01*
X365860Y673480D01*
X365876Y673667D01*
X365875Y673682D01*
X365876Y673698D01*
X365853Y673881D01*
X365833Y674067D01*
X365828Y674082D01*
X365826Y674097D01*
X365768Y674273D01*
X365712Y674451D01*
X365704Y674464D01*
X365699Y674479D01*
X365606Y674641D01*
X365517Y674803D01*
X365507Y674815D01*
X365499Y674829D01*
X365376Y674969D01*
X365256Y675110D01*
X365244Y675120D01*
X365234Y675131D01*
X364974Y675338D01*
X364434Y675699D01*
X363348Y676784D01*
X362496Y678060D01*
X361909Y679478D01*
X361861Y679719D01*
X374650Y679719D01*
X387439Y679719D01*
X387391Y679478D01*
X386804Y678060D01*
X385952Y676784D01*
X384866Y675699D01*
X384326Y675338D01*
X384314Y675328D01*
X384301Y675320D01*
X384159Y675200D01*
X384015Y675082D01*
X384005Y675070D01*
X383994Y675060D01*
X383878Y674914D01*
X383761Y674770D01*
X383754Y674756D01*
X383744Y674744D01*
X383660Y674578D01*
X383573Y674414D01*
X383569Y674399D01*
X383562Y674385D01*
X383512Y674206D01*
X383459Y674028D01*
X383458Y674012D01*
X383454Y673997D01*
X383440Y673811D01*
X383424Y673627D01*
X383425Y673611D01*
X383424Y673595D01*
X383448Y673410D01*
X383468Y673226D01*
X383473Y673212D01*
X383475Y673196D01*
X383534Y673020D01*
X383590Y672843D01*
X383598Y672829D01*
X383603Y672814D01*
X383696Y672653D01*
X383786Y672491D01*
X383796Y672479D01*
X383804Y672465D01*
X384018Y672212D01*
X385643Y670588D01*
X386675Y668098D01*
X386675Y665402D01*
X385643Y662912D01*
X383738Y661007D01*
X381248Y659975D01*
X368052Y659975D01*
G37*
%LPD*%
%LPC*%
G36*
X34312Y105155D02*
X34312Y105155D01*
X28955Y110512D01*
X28955Y118088D01*
X34312Y123445D01*
X41888Y123445D01*
X47245Y118088D01*
X47245Y110512D01*
X41888Y105155D01*
X34312Y105155D01*
G37*
%LPD*%
%LPC*%
G36*
X322105Y636175D02*
X322105Y636175D01*
X318880Y637511D01*
X316411Y639980D01*
X315075Y643205D01*
X315075Y646695D01*
X316411Y649920D01*
X318880Y652389D01*
X322105Y653725D01*
X325595Y653725D01*
X328820Y652389D01*
X331289Y649920D01*
X332625Y646695D01*
X332625Y643205D01*
X331289Y639980D01*
X328820Y637511D01*
X325595Y636175D01*
X322105Y636175D01*
G37*
%LPD*%
%LPC*%
G36*
X322105Y578175D02*
X322105Y578175D01*
X318880Y579511D01*
X316411Y581980D01*
X315075Y585205D01*
X315075Y588695D01*
X316411Y591920D01*
X318880Y594389D01*
X322105Y595725D01*
X325595Y595725D01*
X328820Y594389D01*
X331289Y591920D01*
X332625Y588695D01*
X332625Y585205D01*
X331289Y581980D01*
X328820Y579511D01*
X325595Y578175D01*
X322105Y578175D01*
G37*
%LPD*%
%LPC*%
G36*
X841699Y352749D02*
X841699Y352749D01*
X841699Y362291D01*
X849726Y362291D01*
X851754Y361970D01*
X853706Y361335D01*
X855535Y360403D01*
X857196Y359197D01*
X858647Y357746D01*
X859853Y356085D01*
X860785Y354256D01*
X861275Y352749D01*
X841699Y352749D01*
G37*
%LPD*%
%LPC*%
G36*
X815125Y352749D02*
X815125Y352749D01*
X815615Y354256D01*
X816547Y356085D01*
X817753Y357746D01*
X819204Y359197D01*
X820865Y360403D01*
X822694Y361335D01*
X824646Y361970D01*
X826674Y362291D01*
X834701Y362291D01*
X834701Y352749D01*
X815125Y352749D01*
G37*
%LPD*%
%LPC*%
G36*
X841699Y336209D02*
X841699Y336209D01*
X841699Y345751D01*
X861275Y345751D01*
X860785Y344244D01*
X859853Y342415D01*
X858647Y340754D01*
X857196Y339303D01*
X855535Y338097D01*
X853706Y337165D01*
X851754Y336530D01*
X849726Y336209D01*
X841699Y336209D01*
G37*
%LPD*%
%LPC*%
G36*
X826674Y336209D02*
X826674Y336209D01*
X824646Y336530D01*
X822694Y337165D01*
X820865Y338097D01*
X819204Y339303D01*
X817753Y340754D01*
X816547Y342415D01*
X815615Y344244D01*
X815125Y345751D01*
X834701Y345751D01*
X834701Y336209D01*
X826674Y336209D01*
G37*
%LPD*%
%LPC*%
G36*
X221296Y344455D02*
X221296Y344455D01*
X219534Y345185D01*
X218185Y346534D01*
X217455Y348296D01*
X217455Y350204D01*
X218185Y351966D01*
X219534Y353315D01*
X219604Y353344D01*
X220520Y353723D01*
X220528Y353728D01*
X220537Y353730D01*
X220705Y353822D01*
X220875Y353914D01*
X220882Y353919D01*
X220890Y353924D01*
X221036Y354046D01*
X221186Y354170D01*
X221191Y354177D01*
X221198Y354183D01*
X221318Y354333D01*
X221439Y354483D01*
X221444Y354491D01*
X221449Y354498D01*
X221538Y354670D01*
X221626Y354839D01*
X221629Y354848D01*
X221633Y354856D01*
X221686Y355042D01*
X221740Y355226D01*
X221740Y355234D01*
X221743Y355243D01*
X221758Y355436D01*
X221774Y355627D01*
X221773Y355636D01*
X221774Y355644D01*
X221751Y355836D01*
X221729Y356027D01*
X221726Y356035D01*
X221725Y356044D01*
X221665Y356227D01*
X221606Y356410D01*
X221602Y356418D01*
X221599Y356426D01*
X221503Y356594D01*
X221410Y356762D01*
X221404Y356768D01*
X221399Y356776D01*
X221272Y356922D01*
X221148Y357067D01*
X221141Y357073D01*
X221135Y357080D01*
X220983Y357196D01*
X220831Y357316D01*
X220823Y357320D01*
X220816Y357325D01*
X220520Y357477D01*
X219534Y357885D01*
X218185Y359234D01*
X217455Y360996D01*
X217455Y362904D01*
X218185Y364666D01*
X219534Y366015D01*
X221296Y366745D01*
X223204Y366745D01*
X224966Y366015D01*
X226315Y364666D01*
X227045Y362904D01*
X227045Y360996D01*
X226315Y359234D01*
X224966Y357885D01*
X223980Y357477D01*
X223972Y357472D01*
X223963Y357470D01*
X223795Y357378D01*
X223625Y357286D01*
X223618Y357281D01*
X223610Y357276D01*
X223464Y357154D01*
X223314Y357030D01*
X223309Y357023D01*
X223302Y357017D01*
X223182Y356868D01*
X223061Y356717D01*
X223056Y356710D01*
X223051Y356703D01*
X222964Y356533D01*
X222874Y356361D01*
X222871Y356352D01*
X222867Y356344D01*
X222815Y356161D01*
X222760Y355975D01*
X222760Y355965D01*
X222757Y355957D01*
X222742Y355766D01*
X222726Y355573D01*
X222727Y355564D01*
X222726Y355556D01*
X222749Y355366D01*
X222771Y355173D01*
X222774Y355165D01*
X222775Y355156D01*
X222835Y354975D01*
X222894Y354790D01*
X222898Y354782D01*
X222901Y354774D01*
X222996Y354607D01*
X223090Y354439D01*
X223096Y354432D01*
X223101Y354424D01*
X223227Y354279D01*
X223352Y354133D01*
X223359Y354127D01*
X223365Y354120D01*
X223517Y354004D01*
X223669Y353884D01*
X223677Y353880D01*
X223684Y353875D01*
X223980Y353723D01*
X224966Y353315D01*
X226315Y351966D01*
X227045Y350204D01*
X227045Y348296D01*
X226315Y346534D01*
X224966Y345185D01*
X224284Y344903D01*
X223204Y344455D01*
X221296Y344455D01*
G37*
%LPD*%
%LPC*%
G36*
X625239Y307339D02*
X625239Y307339D01*
X625239Y320041D01*
X629013Y320041D01*
X637941Y311113D01*
X637941Y307339D01*
X625239Y307339D01*
G37*
%LPD*%
%LPC*%
G36*
X656189Y485139D02*
X656189Y485139D01*
X656189Y497841D01*
X659963Y497841D01*
X668891Y488913D01*
X668891Y485139D01*
X656189Y485139D01*
G37*
%LPD*%
%LPC*%
G36*
X607459Y307339D02*
X607459Y307339D01*
X607459Y311113D01*
X616387Y320041D01*
X620161Y320041D01*
X620161Y307339D01*
X607459Y307339D01*
G37*
%LPD*%
%LPC*%
G36*
X656189Y467359D02*
X656189Y467359D01*
X656189Y480061D01*
X668891Y480061D01*
X668891Y476287D01*
X659963Y467359D01*
X656189Y467359D01*
G37*
%LPD*%
%LPC*%
G36*
X625239Y289559D02*
X625239Y289559D01*
X625239Y302261D01*
X637941Y302261D01*
X637941Y298487D01*
X629013Y289559D01*
X625239Y289559D01*
G37*
%LPD*%
%LPC*%
G36*
X638409Y485139D02*
X638409Y485139D01*
X638409Y488913D01*
X647337Y497841D01*
X651111Y497841D01*
X651111Y485139D01*
X638409Y485139D01*
G37*
%LPD*%
%LPC*%
G36*
X616387Y289559D02*
X616387Y289559D01*
X607459Y298487D01*
X607459Y302261D01*
X620161Y302261D01*
X620161Y289559D01*
X616387Y289559D01*
G37*
%LPD*%
%LPC*%
G36*
X647337Y467359D02*
X647337Y467359D01*
X638409Y476287D01*
X638409Y480061D01*
X651111Y480061D01*
X651111Y467359D01*
X647337Y467359D01*
G37*
%LPD*%
%LPC*%
G36*
X43496Y515905D02*
X43496Y515905D01*
X41734Y516635D01*
X40385Y517984D01*
X39655Y519746D01*
X39655Y521654D01*
X40385Y523416D01*
X41734Y524765D01*
X43496Y525495D01*
X45404Y525495D01*
X47166Y524765D01*
X48278Y523653D01*
X48282Y523650D01*
X48285Y523646D01*
X48440Y523520D01*
X48590Y523397D01*
X48594Y523395D01*
X48597Y523393D01*
X48773Y523300D01*
X48945Y523209D01*
X48950Y523208D01*
X48954Y523205D01*
X49142Y523150D01*
X49331Y523094D01*
X49336Y523094D01*
X49340Y523092D01*
X49391Y523088D01*
X49319Y522947D01*
X49318Y522943D01*
X49316Y522939D01*
X49264Y522749D01*
X49211Y522560D01*
X49211Y522555D01*
X49210Y522551D01*
X49196Y522358D01*
X49182Y522158D01*
X49182Y522153D01*
X49182Y522149D01*
X49207Y521956D01*
X49232Y521759D01*
X49234Y521754D01*
X49234Y521750D01*
X49245Y521717D01*
X49245Y519746D01*
X48515Y517984D01*
X47166Y516635D01*
X45404Y515905D01*
X43496Y515905D01*
G37*
%LPD*%
%LPC*%
G36*
X240346Y300005D02*
X240346Y300005D01*
X238584Y300735D01*
X237235Y302084D01*
X236505Y303846D01*
X236505Y305754D01*
X237235Y307516D01*
X238584Y308865D01*
X240346Y309595D01*
X242254Y309595D01*
X244016Y308865D01*
X245365Y307516D01*
X246095Y305754D01*
X246095Y303846D01*
X245365Y302084D01*
X244016Y300735D01*
X242761Y300215D01*
X242760Y300215D01*
X242254Y300005D01*
X240346Y300005D01*
G37*
%LPD*%
%LPC*%
G36*
X259396Y529337D02*
X259396Y529337D01*
X257634Y530067D01*
X256285Y531416D01*
X255555Y533178D01*
X255555Y535086D01*
X256285Y536848D01*
X257634Y538197D01*
X259396Y538927D01*
X261304Y538927D01*
X263066Y538197D01*
X264415Y536848D01*
X265145Y535086D01*
X265145Y533178D01*
X264415Y531416D01*
X263066Y530067D01*
X262292Y529746D01*
X262291Y529746D01*
X261304Y529337D01*
X259396Y529337D01*
G37*
%LPD*%
%LPC*%
G36*
X246696Y287305D02*
X246696Y287305D01*
X244934Y288035D01*
X243585Y289384D01*
X242855Y291146D01*
X242855Y293054D01*
X243585Y294816D01*
X244934Y296165D01*
X246696Y296895D01*
X248604Y296895D01*
X250366Y296165D01*
X251715Y294816D01*
X252445Y293054D01*
X252445Y291146D01*
X251715Y289384D01*
X250366Y288035D01*
X250348Y288028D01*
X248604Y287305D01*
X246696Y287305D01*
G37*
%LPD*%
%LPC*%
G36*
X227646Y541305D02*
X227646Y541305D01*
X225884Y542035D01*
X224535Y543384D01*
X223805Y545146D01*
X223805Y547054D01*
X224535Y548816D01*
X225884Y550165D01*
X226391Y550375D01*
X226392Y550375D01*
X227646Y550895D01*
X229554Y550895D01*
X231316Y550165D01*
X232665Y548816D01*
X233395Y547054D01*
X233395Y545146D01*
X232665Y543384D01*
X231316Y542035D01*
X229554Y541305D01*
X227646Y541305D01*
G37*
%LPD*%
%LPC*%
G36*
X227646Y331755D02*
X227646Y331755D01*
X225884Y332485D01*
X224535Y333834D01*
X223805Y335596D01*
X223805Y337504D01*
X224535Y339266D01*
X225884Y340615D01*
X227646Y341345D01*
X229554Y341345D01*
X231316Y340615D01*
X232665Y339266D01*
X233395Y337504D01*
X233395Y335596D01*
X232665Y333834D01*
X231316Y332485D01*
X229554Y331755D01*
X227646Y331755D01*
G37*
%LPD*%
%LPC*%
G36*
X233996Y312705D02*
X233996Y312705D01*
X232234Y313435D01*
X230885Y314784D01*
X230155Y316546D01*
X230155Y318454D01*
X230885Y320216D01*
X232234Y321565D01*
X233996Y322295D01*
X235904Y322295D01*
X237666Y321565D01*
X239015Y320216D01*
X239745Y318454D01*
X239745Y316546D01*
X239015Y314784D01*
X237666Y313435D01*
X235904Y312705D01*
X233996Y312705D01*
G37*
%LPD*%
%LPC*%
G36*
X183196Y255555D02*
X183196Y255555D01*
X181434Y256285D01*
X180085Y257634D01*
X179355Y259396D01*
X179355Y261304D01*
X180085Y263066D01*
X181434Y264415D01*
X183196Y265145D01*
X185104Y265145D01*
X186866Y264415D01*
X188215Y263066D01*
X188945Y261304D01*
X188945Y259396D01*
X188215Y257634D01*
X186866Y256285D01*
X185104Y255555D01*
X183196Y255555D01*
G37*
%LPD*%
%LPC*%
G36*
X333071Y226330D02*
X333071Y226330D01*
X331309Y227060D01*
X329960Y228409D01*
X329230Y230171D01*
X329230Y232079D01*
X329960Y233841D01*
X331309Y235190D01*
X333071Y235920D01*
X334979Y235920D01*
X336741Y235190D01*
X338090Y233841D01*
X338820Y232079D01*
X338820Y230171D01*
X338090Y228409D01*
X336741Y227060D01*
X334979Y226330D01*
X333071Y226330D01*
G37*
%LPD*%
%LPC*%
G36*
X272096Y522255D02*
X272096Y522255D01*
X270334Y522985D01*
X268985Y524334D01*
X268255Y526096D01*
X268255Y528004D01*
X268985Y529766D01*
X270334Y531115D01*
X272096Y531845D01*
X274004Y531845D01*
X275766Y531115D01*
X277115Y529766D01*
X277845Y528004D01*
X277845Y526096D01*
X277115Y524334D01*
X275766Y522985D01*
X274004Y522255D01*
X272096Y522255D01*
G37*
%LPD*%
%LPC*%
G36*
X233996Y522255D02*
X233996Y522255D01*
X232234Y522985D01*
X230885Y524334D01*
X230155Y526096D01*
X230155Y528004D01*
X230885Y529766D01*
X232234Y531115D01*
X233996Y531845D01*
X235904Y531845D01*
X237666Y531115D01*
X239015Y529766D01*
X239745Y528004D01*
X239745Y526096D01*
X239015Y524334D01*
X237666Y522985D01*
X235904Y522255D01*
X233996Y522255D01*
G37*
%LPD*%
%LPC*%
G36*
X246696Y534729D02*
X246696Y534729D01*
X244934Y535459D01*
X243585Y536808D01*
X242855Y538570D01*
X242855Y540478D01*
X243585Y542240D01*
X244934Y543589D01*
X246606Y544281D01*
X246696Y544319D01*
X248604Y544319D01*
X250366Y543589D01*
X251715Y542240D01*
X252445Y540478D01*
X252445Y538570D01*
X251715Y536808D01*
X250366Y535459D01*
X248604Y534729D01*
X246696Y534729D01*
G37*
%LPD*%
%LPC*%
G36*
X332231Y118659D02*
X332231Y118659D01*
X332231Y124419D01*
X342989Y124419D01*
X342941Y124178D01*
X342354Y122760D01*
X341502Y121484D01*
X340416Y120398D01*
X339140Y119546D01*
X337722Y118959D01*
X336217Y118659D01*
X332231Y118659D01*
G37*
%LPD*%
%LPC*%
G36*
X324183Y118659D02*
X324183Y118659D01*
X322678Y118959D01*
X321260Y119546D01*
X319984Y120398D01*
X318898Y121484D01*
X318046Y122760D01*
X317459Y124178D01*
X317411Y124419D01*
X328169Y124419D01*
X328169Y118659D01*
X324183Y118659D01*
G37*
%LPD*%
%LPC*%
G36*
X385249Y17477D02*
X385249Y17477D01*
X385249Y25638D01*
X386680Y25173D01*
X388299Y24349D01*
X389768Y23281D01*
X391053Y21996D01*
X392121Y20527D01*
X392945Y18908D01*
X393410Y17477D01*
X385249Y17477D01*
G37*
%LPD*%
%LPC*%
G36*
X371090Y17477D02*
X371090Y17477D01*
X371555Y18908D01*
X372379Y20527D01*
X373447Y21996D01*
X374732Y23281D01*
X376201Y24349D01*
X377820Y25173D01*
X379251Y25638D01*
X379251Y17477D01*
X371090Y17477D01*
G37*
%LPD*%
%LPC*%
G36*
X318999Y17227D02*
X318999Y17227D01*
X318999Y24931D01*
X320392Y24478D01*
X321906Y23707D01*
X323280Y22709D01*
X324481Y21508D01*
X325479Y20134D01*
X326250Y18620D01*
X326703Y17227D01*
X318999Y17227D01*
G37*
%LPD*%
%LPC*%
G36*
X305797Y17227D02*
X305797Y17227D01*
X306250Y18620D01*
X307021Y20134D01*
X308019Y21508D01*
X309220Y22709D01*
X310594Y23707D01*
X312108Y24478D01*
X313501Y24931D01*
X313501Y17227D01*
X305797Y17227D01*
G37*
%LPD*%
%LPC*%
G36*
X40639Y91439D02*
X40639Y91439D01*
X40639Y99061D01*
X42309Y99061D01*
X48261Y93109D01*
X48261Y91439D01*
X40639Y91439D01*
G37*
%LPD*%
%LPC*%
G36*
X27939Y91439D02*
X27939Y91439D01*
X27939Y93109D01*
X33891Y99061D01*
X35561Y99061D01*
X35561Y91439D01*
X27939Y91439D01*
G37*
%LPD*%
%LPC*%
G36*
X40639Y78739D02*
X40639Y78739D01*
X40639Y86361D01*
X48261Y86361D01*
X48261Y84691D01*
X42309Y78739D01*
X40639Y78739D01*
G37*
%LPD*%
%LPC*%
G36*
X33891Y78739D02*
X33891Y78739D01*
X27939Y84691D01*
X27939Y86361D01*
X35561Y86361D01*
X35561Y78739D01*
X33891Y78739D01*
G37*
%LPD*%
%LPC*%
G36*
X88093Y192531D02*
X88093Y192531D01*
X88149Y192815D01*
X88178Y192908D01*
X88178Y192913D01*
X88179Y192917D01*
X88198Y193117D01*
X88216Y193309D01*
X88215Y193314D01*
X88216Y193318D01*
X88194Y193515D01*
X88174Y193710D01*
X88173Y193714D01*
X88172Y193719D01*
X88114Y193904D01*
X88054Y194094D01*
X88052Y194098D01*
X88051Y194102D01*
X88045Y194113D01*
X88065Y194116D01*
X88072Y194118D01*
X88079Y194119D01*
X88261Y194180D01*
X88448Y194241D01*
X88454Y194244D01*
X88460Y194246D01*
X88628Y194342D01*
X88799Y194439D01*
X88804Y194443D01*
X88810Y194446D01*
X88957Y194575D01*
X89103Y194702D01*
X89108Y194707D01*
X89113Y194712D01*
X89319Y194972D01*
X89490Y195227D01*
X90523Y196260D01*
X91737Y197072D01*
X93087Y197631D01*
X93219Y197657D01*
X93219Y192531D01*
X88093Y192531D01*
G37*
%LPD*%
%LPC*%
G36*
X93087Y183369D02*
X93087Y183369D01*
X91737Y183928D01*
X90523Y184740D01*
X89490Y185773D01*
X88678Y186987D01*
X88119Y188337D01*
X88093Y188469D01*
X93219Y188469D01*
X93219Y183343D01*
X93087Y183369D01*
G37*
%LPD*%
D10*
X672700Y304800D03*
D11*
X622700Y304800D03*
D10*
X603650Y482600D03*
D12*
X653650Y482600D03*
D13*
X379900Y666750D02*
X369400Y666750D01*
X369400Y681750D02*
X379900Y681750D01*
X379900Y696750D02*
X369400Y696750D01*
X369400Y711750D02*
X379900Y711750D01*
X375750Y171450D02*
X386250Y171450D01*
X386250Y156450D02*
X375750Y156450D01*
X375750Y141450D02*
X386250Y141450D01*
X386250Y126450D02*
X375750Y126450D01*
D14*
X316250Y14478D03*
D15*
X382250Y14478D03*
D16*
X63500Y88900D03*
X38100Y88900D03*
X63500Y114300D03*
X38100Y114300D03*
X63500Y139700D03*
X38100Y139700D03*
X63500Y165100D03*
X38100Y165100D03*
X63500Y190500D03*
X38100Y190500D03*
D17*
X146050Y241300D03*
X146050Y190500D03*
X95250Y190500D03*
X95250Y241300D03*
D18*
X654050Y700700D02*
X654050Y721700D01*
X603250Y721700D02*
X603250Y700700D01*
X660400Y93050D02*
X660400Y72050D01*
X609600Y72050D02*
X609600Y93050D01*
D19*
X323850Y644950D03*
X323850Y586950D03*
D13*
X324950Y171450D02*
X335450Y171450D01*
X335450Y156450D02*
X324950Y156450D01*
X324950Y141450D02*
X335450Y141450D01*
X335450Y126450D02*
X324950Y126450D01*
X286300Y718650D02*
X286300Y729150D01*
X271300Y729150D02*
X271300Y718650D01*
X256300Y718650D02*
X256300Y729150D01*
X241300Y729150D02*
X241300Y718650D01*
X210100Y718650D02*
X210100Y729150D01*
X195100Y729150D02*
X195100Y718650D01*
X180100Y718650D02*
X180100Y729150D01*
X165100Y729150D02*
X165100Y718650D01*
X133900Y718650D02*
X133900Y729150D01*
X118900Y729150D02*
X118900Y718650D01*
X103900Y718650D02*
X103900Y729150D01*
X88900Y729150D02*
X88900Y718650D01*
X49700Y686350D02*
X39200Y686350D01*
X39200Y671350D02*
X49700Y671350D01*
X49700Y656350D02*
X39200Y656350D01*
X39200Y641350D02*
X49700Y641350D01*
X49700Y610150D02*
X39200Y610150D01*
X39200Y595150D02*
X49700Y595150D01*
X49700Y580150D02*
X39200Y580150D01*
X39200Y565150D02*
X49700Y565150D01*
X45550Y292650D02*
X56050Y292650D01*
X56050Y277650D02*
X45550Y277650D01*
X45550Y262650D02*
X56050Y262650D01*
X56050Y247650D02*
X45550Y247650D01*
D18*
X827700Y349250D02*
X848700Y349250D01*
X848700Y400050D02*
X827700Y400050D01*
D20*
X101600Y546100D03*
D21*
X177800Y565150D02*
X311150Y698500D01*
X120650Y565150D02*
X101600Y546100D01*
X120650Y565150D02*
X177800Y565150D01*
D22*
X311150Y698500D03*
D21*
X247650Y361950D02*
X374650Y234950D01*
D20*
X247650Y361950D03*
D22*
X63500Y520700D03*
D21*
X57150Y527050D01*
X57150Y552450D01*
X63500Y558800D01*
X63500Y590550D01*
X63500Y658650D01*
X50800Y671350D01*
X44450Y671350D01*
X44450Y595150D02*
X58900Y595150D01*
X63500Y590550D01*
X118900Y715800D02*
X118900Y723900D01*
D22*
X374650Y234950D03*
D21*
X63500Y658650D02*
X63500Y660400D01*
X118900Y715800D01*
D22*
X107950Y590550D03*
X44450Y400050D03*
X44450Y336550D03*
X209550Y50800D03*
X215900Y120650D03*
X558800Y158750D03*
X558800Y171450D03*
X558800Y184150D03*
X558800Y196850D03*
X539750Y203200D03*
X533400Y190500D03*
X546100Y190500D03*
X546100Y177800D03*
X546100Y165100D03*
X546100Y152400D03*
X793750Y190500D03*
X806450Y177800D03*
X806450Y165100D03*
X806450Y152400D03*
X806450Y190500D03*
X819150Y177800D03*
X819150Y165100D03*
X819150Y190500D03*
X831850Y165100D03*
X819150Y152400D03*
X711200Y615950D03*
X698500Y615950D03*
X698500Y603250D03*
X711200Y603250D03*
X723900Y590550D03*
X711200Y590550D03*
X698500Y590550D03*
X685800Y596900D03*
X673100Y596900D03*
X660400Y596900D03*
X438150Y628650D03*
X438150Y615950D03*
X438150Y603250D03*
X450850Y596900D03*
X438150Y590550D03*
X431800Y577850D03*
X425450Y603250D03*
X412750Y603250D03*
X412750Y590550D03*
X425450Y590550D03*
X247650Y336550D03*
X241300Y349250D03*
X254000Y323850D03*
X158750Y304800D03*
X158750Y292100D03*
X158750Y279400D03*
X95250Y476250D03*
X44450Y463550D03*
X139700Y539750D03*
D23*
X139700Y247650D01*
X146050Y241300D01*
D22*
X25400Y215900D03*
D24*
X25400Y146050D01*
X31750Y139700D01*
X38100Y139700D01*
D22*
X95479Y425679D03*
D24*
X95479Y422485D01*
X95882Y422082D01*
X95882Y337182D01*
X88900Y330200D01*
X88900Y260350D02*
X107950Y241300D01*
X88900Y260350D02*
X88900Y330200D01*
X107950Y241300D02*
X107950Y184150D01*
X63500Y139700D01*
D22*
X89052Y419252D03*
D24*
X89052Y416059D01*
X89456Y415655D01*
X89456Y356040D01*
X82550Y349134D01*
X82550Y196850D02*
X76200Y190500D01*
X63500Y190500D01*
X82550Y196850D02*
X82550Y349134D01*
D22*
X82626Y412826D03*
D24*
X82626Y409633D01*
X83030Y409229D01*
X83030Y375130D01*
X63500Y355600D01*
X63500Y323850D01*
X76200Y311150D01*
X76200Y209550D02*
X69850Y203200D01*
D22*
X69850Y203200D03*
X120650Y203200D03*
D24*
X120650Y146050D01*
X63500Y88900D01*
X76200Y209550D02*
X76200Y311150D01*
D22*
X76200Y406400D03*
D24*
X57630Y387830D01*
X57630Y330680D01*
X57630Y317020D01*
X69850Y304800D01*
X69850Y215900D01*
X48768Y129032D02*
X63500Y114300D01*
X48768Y194818D02*
X69850Y215900D01*
X48768Y194818D02*
X48768Y129032D01*
D23*
X165100Y546100D02*
X193831Y546100D01*
X165100Y546100D02*
X158750Y539750D01*
X193831Y546100D02*
X323850Y679450D01*
D22*
X158750Y539750D03*
D23*
X366550Y696750D02*
X374650Y696750D01*
X366550Y696750D02*
X349250Y679450D01*
X323850Y679450D01*
D22*
X730250Y539750D03*
D23*
X730250Y514350D01*
X641350Y425450D01*
X450850Y425450D01*
D22*
X292100Y437243D03*
D23*
X439058Y437243D01*
X450850Y425450D01*
D22*
X374650Y501650D03*
X298450Y450850D03*
D23*
X301680Y450850D01*
X352480Y501650D01*
X374650Y501650D01*
X355600Y155889D02*
X370039Y141450D01*
X355600Y155889D02*
X355600Y177800D01*
X342900Y190500D01*
X317500Y190500D01*
X184150Y323850D01*
D22*
X184150Y323850D03*
X370039Y141450D03*
X171450Y323850D03*
D23*
X345836Y150653D02*
X370039Y126450D01*
X345836Y175425D02*
X340215Y181046D01*
X314254Y181046D01*
X171450Y323850D01*
X345836Y175425D02*
X345836Y150653D01*
D22*
X370039Y126450D03*
X800100Y266700D03*
D23*
X685800Y381000D01*
X311150Y381000D02*
X285750Y406400D01*
X285750Y419100D01*
D22*
X285750Y419100D03*
D23*
X311150Y381000D02*
X685800Y381000D01*
D22*
X527050Y273050D03*
D23*
X527050Y292100D01*
X463550Y355600D01*
D22*
X260426Y419176D03*
D23*
X260426Y393776D02*
X298602Y355600D01*
X260426Y393776D02*
X260426Y419176D01*
X298602Y355600D02*
X463550Y355600D01*
D22*
X755650Y539750D03*
D23*
X755650Y520700D01*
X641350Y406400D01*
X311150Y406400D01*
D22*
X311150Y406400D03*
X393700Y488950D03*
D23*
X368300Y463550D01*
X330200Y463550D01*
D22*
X330200Y463550D03*
X774700Y234950D03*
X501650Y254000D03*
D23*
X501650Y292100D01*
X450850Y342900D01*
X723900Y285750D02*
X774700Y234950D01*
X723900Y285750D02*
X723900Y311150D01*
X692150Y342900D01*
X571500Y342900D01*
X539750Y311150D01*
X539750Y273050D01*
X520700Y254000D01*
X501650Y254000D01*
X450850Y342900D02*
X298450Y342900D01*
X247650Y393700D01*
X247650Y412750D01*
D22*
X247650Y412750D03*
D24*
X210100Y720008D02*
X210100Y723900D01*
X210100Y720008D02*
X150492Y660400D01*
X120650Y660400D01*
X82550Y622300D01*
X82550Y584680D01*
X83030Y584200D01*
D22*
X83030Y584200D03*
D24*
X133900Y711750D02*
X133900Y723900D01*
X133900Y711750D02*
X76200Y654050D01*
D22*
X82550Y495300D03*
D24*
X76200Y501650D01*
X76200Y520700D01*
X69850Y527050D01*
X69850Y546100D01*
X76200Y552450D01*
X76200Y654050D01*
D22*
X165100Y57150D03*
X101600Y304800D03*
D23*
X133350Y228600D02*
X133350Y139700D01*
X152400Y120650D01*
X133350Y228600D02*
X101600Y260350D01*
X101600Y304800D01*
X152400Y120650D02*
X152400Y69850D01*
X165100Y57150D01*
D20*
X152400Y120650D03*
D22*
X197920Y46406D03*
X101600Y317500D03*
D23*
X114300Y260350D02*
X159512Y215138D01*
X114300Y304800D02*
X101600Y317500D01*
X114300Y304800D02*
X114300Y260350D01*
X159512Y215138D02*
X159512Y144771D01*
X197920Y106362D02*
X197920Y46406D01*
X164841Y139441D02*
X159512Y144771D01*
X164841Y139441D02*
X197920Y106362D01*
D20*
X164841Y139441D03*
D23*
X262650Y156450D02*
X330200Y156450D01*
X262650Y156450D02*
X177800Y241300D01*
D20*
X177800Y241300D03*
X184150Y260350D03*
D22*
X152400Y552450D03*
D23*
X185339Y552450D01*
X317500Y684611D01*
X317500Y685800D01*
X368850Y711750D02*
X374650Y711750D01*
X342900Y685800D02*
X317500Y685800D01*
X342900Y685800D02*
X368850Y711750D01*
D22*
X774700Y520700D03*
D23*
X647700Y393700D01*
X311150Y393700D01*
X298450Y406400D01*
X298450Y419100D01*
X241300Y476250D01*
X171450Y476250D01*
D22*
X171450Y476250D03*
X501650Y527050D03*
D23*
X488950Y514350D01*
X196850Y514350D01*
X152400Y469900D02*
X152400Y463550D01*
D22*
X152400Y463550D03*
D23*
X152400Y469900D02*
X196850Y514350D01*
D22*
X762000Y266700D03*
D23*
X742950Y304800D02*
X679450Y368300D01*
X742950Y285750D02*
X762000Y266700D01*
X742950Y285750D02*
X742950Y304800D01*
X273050Y400050D02*
X273050Y425450D01*
X241300Y457200D01*
X165100Y457200D01*
X304800Y368300D02*
X679450Y368300D01*
X304800Y368300D02*
X273050Y400050D01*
X165100Y457200D02*
X152400Y444500D01*
D22*
X152400Y444500D03*
X469900Y263550D03*
D23*
X469900Y304800D01*
X444500Y330200D01*
X298450Y330200D01*
X184150Y444500D01*
X165100Y444500D01*
X152400Y431800D01*
D22*
X152400Y431800D03*
D20*
X334025Y231125D03*
D22*
X19530Y514350D03*
D24*
X38100Y495780D02*
X38100Y495300D01*
X44450Y488950D01*
X38100Y495780D02*
X19530Y514350D01*
D22*
X44450Y488950D03*
X24920Y323850D03*
D24*
X24920Y469420D01*
X25400Y469900D01*
D22*
X25400Y469900D03*
D24*
X286300Y720008D02*
X286300Y723900D01*
X286300Y720008D02*
X144142Y577850D01*
X101600Y577850D01*
X82550Y558800D01*
X82550Y546100D01*
X76200Y539750D01*
D22*
X76200Y539750D03*
X50800Y374650D03*
D24*
X31750Y355600D01*
X31750Y304800D01*
X31750Y260350D01*
X44450Y247650D01*
X50800Y247650D01*
X31750Y304800D02*
X12700Y323850D01*
X12700Y565150D01*
X44450Y565150D01*
X12700Y565150D02*
X12700Y641350D01*
X44450Y641350D01*
X12700Y641350D02*
X12700Y688582D01*
X48018Y723900D01*
X88900Y723900D01*
D23*
X88900Y742950D01*
X146050Y742950D02*
X165100Y723900D01*
X146050Y742950D02*
X88900Y742950D01*
X146050Y742950D02*
X222250Y742950D01*
X241300Y723900D01*
D20*
X273050Y527050D03*
X260350Y534132D03*
X247650Y539524D03*
X234950Y527050D03*
X228600Y546100D03*
X222250Y565376D03*
X222250Y361950D03*
X222250Y349250D03*
X228600Y336550D03*
X234950Y317500D03*
X241300Y304800D03*
X247650Y292100D03*
X44450Y539750D03*
X44450Y520700D03*
M02*
