M48
;GenerationSoftware,Autodesk,EAGLE,9.5.1*%
;CreationDate,2019-11-08T17:01:53Z*%
FMAT,2
ICI,OFF
METRIC,TZ,000.000
T10C0.350
T9C0.400
T8C0.650
T7C0.700
T6C0.850
T5C1.016
T4C1.100
T3C1.200
T2C1.400
T1C3.264
%
G90
M71
T1
X3175Y73914
X86360Y74041
X85725Y3175
X3175Y3175
T2
X60325Y71120
X83820Y40005
X83820Y34925
X60960Y8255
X66040Y8255
X65405Y71120
T3
X38225Y1448
T4
X31625Y1448
T5
X60365Y48260
X65365Y48260
X3810Y11430
X3810Y8890
X6350Y8890
X6350Y11430
X6350Y13970
X3810Y19050
X6350Y19050
X3810Y16510
X6350Y16510
X3810Y13970
X67270Y30480
X62270Y30480
T6
X32385Y58695
X32385Y64495
T7
X4445Y61015
X4445Y59515
X4445Y58015
X4445Y56515
X5080Y29265
X5080Y27765
X5080Y26265
X5080Y24765
X27130Y72390
X37465Y66675
X37465Y68175
X37465Y69675
X38100Y17145
X38100Y15645
X38100Y14145
X38100Y12645
X4445Y65635
X37465Y71175
X33020Y17145
X33020Y15645
X33020Y14145
X33020Y12645
X28630Y72390
X25630Y72390
X24130Y72390
X21010Y72390
X19510Y72390
X18010Y72390
X16510Y72390
X13390Y72390
X11890Y72390
X10390Y72390
X8890Y72390
X4445Y68635
X4445Y67135
X4445Y64135
T8
X14605Y24130
X14605Y19050
X9525Y19050
X9525Y24130
T9
X18415Y26035
X24765Y36195
X16484Y13944
X23495Y31750
X15240Y12065
X17780Y24130
X33403Y23112
X27305Y52705
X26035Y53413
X22860Y54610
X4445Y52070
X4445Y53975
X24765Y29210
X10160Y54610
X24130Y30480
X22860Y33655
X24765Y53952
X22225Y34925
X22225Y36195
X23495Y52705
X22225Y56538
T10
X24765Y41275
X8303Y58420
X8255Y49530
X16510Y5715
X10160Y30480
X19792Y4641
X10160Y31750
X15240Y55245
X80645Y19050
X17145Y47625
X50165Y52705
X15240Y46355
X76200Y26670
X15240Y44450
X46990Y26355
X15240Y43180
X31115Y69850
X1953Y51435
X4445Y48895
X2492Y32385
X2540Y46990
X7620Y53975
X5080Y37465
X6350Y52070
X37465Y23495
X10795Y59055
X4445Y40005
X4445Y33655
X20955Y5080
X21590Y12065
X55880Y15875
X55880Y17145
X77470Y52070
X55880Y18415
X55880Y19685
X53975Y20320
X53340Y19050
X54610Y19050
X54610Y17780
X54610Y16510
X54610Y15240
X79375Y19050
X80645Y17780
X80645Y16510
X80645Y15240
X81915Y17780
X81915Y16510
X81915Y19050
X83185Y16510
X81915Y15240
X71120Y61595
X69850Y61595
X69850Y60325
X71120Y60325
X72390Y59055
X71120Y59055
X69850Y59055
X68580Y59690
X67310Y59690
X66040Y59690
X43815Y62865
X43815Y61595
X43815Y60325
X45085Y59690
X43815Y59055
X43180Y57785
X42545Y60325
X41275Y60325
X41275Y59055
X42545Y59055
X24765Y33655
X24130Y34925
X25400Y32385
X15875Y30480
X15875Y29210
X15875Y27940
X9525Y47625
X4445Y46355
X13970Y53975
X2540Y21590
X17145Y32385
X9548Y42568
X8905Y41925
X8263Y41283
X6985Y20320
X12065Y20320
X7620Y40640
X15875Y53975
X73025Y53975
X29210Y43724
X37465Y50165
X29845Y45085
X18415Y32385
X37004Y14145
X37004Y12645
X80010Y26670
X28575Y41910
X52705Y27305
X26043Y41918
X75565Y53975
X31115Y40640
X39370Y48895
X33020Y46355
X77470Y23495
X50165Y25400
M30