G04 EAGLE Gerber RS-274X export*
G75*
%MOMM*%
%FSLAX34Y34*%
%LPD*%
%IN*%
%IPPOS*%
%AMOC8*
5,1,8,0,0,1.08239X$1,22.5*%
G01*
%ADD10C,0.254000*%


D10*
X0Y0D02*
X895150Y0D01*
X895150Y771400D01*
X0Y771400D01*
X0Y0D01*
X48070Y738606D02*
X48000Y737540D01*
X47860Y736480D01*
X47652Y735432D01*
X47375Y734400D01*
X47032Y733388D01*
X46623Y732401D01*
X46150Y731443D01*
X45616Y730518D01*
X45022Y729629D01*
X44372Y728781D01*
X43667Y727978D01*
X42912Y727223D01*
X42109Y726518D01*
X41261Y725868D01*
X40372Y725274D01*
X39447Y724740D01*
X38489Y724267D01*
X37502Y723858D01*
X36490Y723515D01*
X35458Y723238D01*
X34410Y723030D01*
X33350Y722890D01*
X32284Y722821D01*
X31216Y722821D01*
X30150Y722890D01*
X29090Y723030D01*
X28042Y723238D01*
X27010Y723515D01*
X25998Y723858D01*
X25011Y724267D01*
X24053Y724740D01*
X23128Y725274D01*
X22239Y725868D01*
X21391Y726518D01*
X20588Y727223D01*
X19833Y727978D01*
X19128Y728781D01*
X18478Y729629D01*
X17884Y730518D01*
X17350Y731443D01*
X16877Y732401D01*
X16468Y733388D01*
X16125Y734400D01*
X15848Y735432D01*
X15640Y736480D01*
X15500Y737540D01*
X15431Y738606D01*
X15431Y739674D01*
X15500Y740740D01*
X15640Y741800D01*
X15848Y742848D01*
X16125Y743880D01*
X16468Y744892D01*
X16877Y745879D01*
X17350Y746837D01*
X17884Y747762D01*
X18478Y748651D01*
X19128Y749499D01*
X19833Y750302D01*
X20588Y751057D01*
X21391Y751762D01*
X22239Y752412D01*
X23128Y753006D01*
X24053Y753540D01*
X25011Y754013D01*
X25998Y754422D01*
X27010Y754765D01*
X28042Y755042D01*
X29090Y755250D01*
X30150Y755390D01*
X31216Y755460D01*
X32284Y755460D01*
X33350Y755390D01*
X34410Y755250D01*
X35458Y755042D01*
X36490Y754765D01*
X37502Y754422D01*
X38489Y754013D01*
X39447Y753540D01*
X40372Y753006D01*
X41261Y752412D01*
X42109Y751762D01*
X42912Y751057D01*
X43667Y750302D01*
X44372Y749499D01*
X45022Y748651D01*
X45616Y747762D01*
X46150Y746837D01*
X46623Y745879D01*
X47032Y744892D01*
X47375Y743880D01*
X47652Y742848D01*
X47860Y741800D01*
X48000Y740740D01*
X48070Y739674D01*
X48070Y738606D01*
X879920Y739876D02*
X879850Y738810D01*
X879710Y737750D01*
X879502Y736702D01*
X879225Y735670D01*
X878882Y734658D01*
X878473Y733671D01*
X878000Y732713D01*
X877466Y731788D01*
X876872Y730899D01*
X876222Y730051D01*
X875517Y729248D01*
X874762Y728493D01*
X873959Y727788D01*
X873111Y727138D01*
X872222Y726544D01*
X871297Y726010D01*
X870339Y725537D01*
X869352Y725128D01*
X868340Y724785D01*
X867308Y724508D01*
X866260Y724300D01*
X865200Y724160D01*
X864134Y724091D01*
X863066Y724091D01*
X862000Y724160D01*
X860940Y724300D01*
X859892Y724508D01*
X858860Y724785D01*
X857848Y725128D01*
X856861Y725537D01*
X855903Y726010D01*
X854978Y726544D01*
X854089Y727138D01*
X853241Y727788D01*
X852438Y728493D01*
X851683Y729248D01*
X850978Y730051D01*
X850328Y730899D01*
X849734Y731788D01*
X849200Y732713D01*
X848727Y733671D01*
X848318Y734658D01*
X847975Y735670D01*
X847698Y736702D01*
X847490Y737750D01*
X847350Y738810D01*
X847281Y739876D01*
X847281Y740944D01*
X847350Y742010D01*
X847490Y743070D01*
X847698Y744118D01*
X847975Y745150D01*
X848318Y746162D01*
X848727Y747149D01*
X849200Y748107D01*
X849734Y749032D01*
X850328Y749921D01*
X850978Y750769D01*
X851683Y751572D01*
X852438Y752327D01*
X853241Y753032D01*
X854089Y753682D01*
X854978Y754276D01*
X855903Y754810D01*
X856861Y755283D01*
X857848Y755692D01*
X858860Y756035D01*
X859892Y756312D01*
X860940Y756520D01*
X862000Y756660D01*
X863066Y756730D01*
X864134Y756730D01*
X865200Y756660D01*
X866260Y756520D01*
X867308Y756312D01*
X868340Y756035D01*
X869352Y755692D01*
X870339Y755283D01*
X871297Y754810D01*
X872222Y754276D01*
X873111Y753682D01*
X873959Y753032D01*
X874762Y752327D01*
X875517Y751572D01*
X876222Y750769D01*
X876872Y749921D01*
X877466Y749032D01*
X878000Y748107D01*
X878473Y747149D01*
X878882Y746162D01*
X879225Y745150D01*
X879502Y744118D01*
X879710Y743070D01*
X879850Y742010D01*
X879920Y740944D01*
X879920Y739876D01*
X873570Y31216D02*
X873500Y30150D01*
X873360Y29090D01*
X873152Y28042D01*
X872875Y27010D01*
X872532Y25998D01*
X872123Y25011D01*
X871650Y24053D01*
X871116Y23128D01*
X870522Y22239D01*
X869872Y21391D01*
X869167Y20588D01*
X868412Y19833D01*
X867609Y19128D01*
X866761Y18478D01*
X865872Y17884D01*
X864947Y17350D01*
X863989Y16877D01*
X863002Y16468D01*
X861990Y16125D01*
X860958Y15848D01*
X859910Y15640D01*
X858850Y15500D01*
X857784Y15431D01*
X856716Y15431D01*
X855650Y15500D01*
X854590Y15640D01*
X853542Y15848D01*
X852510Y16125D01*
X851498Y16468D01*
X850511Y16877D01*
X849553Y17350D01*
X848628Y17884D01*
X847739Y18478D01*
X846891Y19128D01*
X846088Y19833D01*
X845333Y20588D01*
X844628Y21391D01*
X843978Y22239D01*
X843384Y23128D01*
X842850Y24053D01*
X842377Y25011D01*
X841968Y25998D01*
X841625Y27010D01*
X841348Y28042D01*
X841140Y29090D01*
X841000Y30150D01*
X840931Y31216D01*
X840931Y32284D01*
X841000Y33350D01*
X841140Y34410D01*
X841348Y35458D01*
X841625Y36490D01*
X841968Y37502D01*
X842377Y38489D01*
X842850Y39447D01*
X843384Y40372D01*
X843978Y41261D01*
X844628Y42109D01*
X845333Y42912D01*
X846088Y43667D01*
X846891Y44372D01*
X847739Y45022D01*
X848628Y45616D01*
X849553Y46150D01*
X850511Y46623D01*
X851498Y47032D01*
X852510Y47375D01*
X853542Y47652D01*
X854590Y47860D01*
X855650Y48000D01*
X856716Y48070D01*
X857784Y48070D01*
X858850Y48000D01*
X859910Y47860D01*
X860958Y47652D01*
X861990Y47375D01*
X863002Y47032D01*
X863989Y46623D01*
X864947Y46150D01*
X865872Y45616D01*
X866761Y45022D01*
X867609Y44372D01*
X868412Y43667D01*
X869167Y42912D01*
X869872Y42109D01*
X870522Y41261D01*
X871116Y40372D01*
X871650Y39447D01*
X872123Y38489D01*
X872532Y37502D01*
X872875Y36490D01*
X873152Y35458D01*
X873360Y34410D01*
X873500Y33350D01*
X873570Y32284D01*
X873570Y31216D01*
X48070Y31216D02*
X48000Y30150D01*
X47860Y29090D01*
X47652Y28042D01*
X47375Y27010D01*
X47032Y25998D01*
X46623Y25011D01*
X46150Y24053D01*
X45616Y23128D01*
X45022Y22239D01*
X44372Y21391D01*
X43667Y20588D01*
X42912Y19833D01*
X42109Y19128D01*
X41261Y18478D01*
X40372Y17884D01*
X39447Y17350D01*
X38489Y16877D01*
X37502Y16468D01*
X36490Y16125D01*
X35458Y15848D01*
X34410Y15640D01*
X33350Y15500D01*
X32284Y15431D01*
X31216Y15431D01*
X30150Y15500D01*
X29090Y15640D01*
X28042Y15848D01*
X27010Y16125D01*
X25998Y16468D01*
X25011Y16877D01*
X24053Y17350D01*
X23128Y17884D01*
X22239Y18478D01*
X21391Y19128D01*
X20588Y19833D01*
X19833Y20588D01*
X19128Y21391D01*
X18478Y22239D01*
X17884Y23128D01*
X17350Y24053D01*
X16877Y25011D01*
X16468Y25998D01*
X16125Y27010D01*
X15848Y28042D01*
X15640Y29090D01*
X15500Y30150D01*
X15431Y31216D01*
X15431Y32284D01*
X15500Y33350D01*
X15640Y34410D01*
X15848Y35458D01*
X16125Y36490D01*
X16468Y37502D01*
X16877Y38489D01*
X17350Y39447D01*
X17884Y40372D01*
X18478Y41261D01*
X19128Y42109D01*
X19833Y42912D01*
X20588Y43667D01*
X21391Y44372D01*
X22239Y45022D01*
X23128Y45616D01*
X24053Y46150D01*
X25011Y46623D01*
X25998Y47032D01*
X27010Y47375D01*
X28042Y47652D01*
X29090Y47860D01*
X30150Y48000D01*
X31216Y48070D01*
X32284Y48070D01*
X33350Y48000D01*
X34410Y47860D01*
X35458Y47652D01*
X36490Y47375D01*
X37502Y47032D01*
X38489Y46623D01*
X39447Y46150D01*
X40372Y45616D01*
X41261Y45022D01*
X42109Y44372D01*
X42912Y43667D01*
X43667Y42912D01*
X44372Y42109D01*
X45022Y41261D01*
X45616Y40372D01*
X46150Y39447D01*
X46623Y38489D01*
X47032Y37502D01*
X47375Y36490D01*
X47652Y35458D01*
X47860Y34410D01*
X48000Y33350D01*
X48070Y32284D01*
X48070Y31216D01*
M02*
