G04 EAGLE Gerber RS-274X export*
G75*
%MOMM*%
%FSLAX34Y34*%
%LPD*%
%INSoldermask Top*%
%IPPOS*%
%AMOC8*
5,1,8,0,0,1.08239X$1,22.5*%
G01*
%ADD10C,3.390900*%
%ADD11R,1.627000X1.427000*%
%ADD12R,1.427000X1.627000*%
%ADD13C,2.667000*%
%ADD14P,2.886734X8X202.500000*%
%ADD15P,2.886734X8X22.500000*%
%ADD16C,1.177000*%
%ADD17R,0.927000X4.727000*%
%ADD18R,10.927000X9.527000*%
%ADD19R,0.527000X1.477000*%
%ADD20R,1.727000X1.527000*%
%ADD21R,2.027000X2.027000*%
%ADD22C,1.777000*%
%ADD23C,1.927000*%
%ADD24P,1.787026X8X112.500000*%
%ADD25R,1.327000X1.327000*%
%ADD26C,1.102000*%
%ADD27R,1.589000X0.644200*%
%ADD28R,0.644200X1.589000*%
%ADD29R,0.527000X1.627000*%
%ADD30C,2.227000*%
%ADD31R,5.461000X2.057400*%
%ADD32R,1.060900X2.092100*%
%ADD33R,3.360900X2.092100*%
%ADD34R,1.727000X1.927000*%
%ADD35C,1.577000*%
%ADD36R,1.327000X2.327000*%
%ADD37R,3.627000X2.327000*%
%ADD38R,1.927000X1.727000*%
%ADD39R,2.827000X1.727000*%
%ADD40R,1.627000X3.127000*%
%ADD41R,6.377000X6.927000*%
%ADD42C,0.781000*%


D10*
X31750Y739140D03*
X863600Y740410D03*
X857250Y31750D03*
X31750Y31750D03*
D11*
X660400Y631800D03*
X660400Y612800D03*
X787400Y504800D03*
X787400Y485800D03*
X736600Y504800D03*
X736600Y485800D03*
D12*
X619150Y577850D03*
X638150Y577850D03*
D11*
X590550Y612800D03*
X590550Y631800D03*
X412750Y638150D03*
X412750Y619150D03*
X514350Y511150D03*
X514350Y492150D03*
X463550Y511150D03*
X463550Y492150D03*
D13*
X672700Y304800D03*
D14*
X622700Y304800D03*
D12*
X657200Y209550D03*
X638200Y209550D03*
D11*
X673100Y174600D03*
X673100Y155600D03*
X850900Y130200D03*
X850900Y149200D03*
X781050Y288950D03*
X781050Y307950D03*
X806450Y288950D03*
X806450Y307950D03*
D12*
X657200Y234950D03*
X638200Y234950D03*
D11*
X412750Y104750D03*
X412750Y85750D03*
X590550Y155600D03*
X590550Y174600D03*
X482600Y276250D03*
X482600Y295250D03*
X508000Y276250D03*
X508000Y295250D03*
D12*
X250850Y139700D03*
X269850Y139700D03*
X123800Y31750D03*
X104800Y31750D03*
X123800Y88900D03*
X104800Y88900D03*
X123800Y63500D03*
X104800Y63500D03*
D13*
X603650Y482600D03*
D15*
X653650Y482600D03*
D12*
X619150Y552450D03*
X638150Y552450D03*
D11*
X857250Y619150D03*
X857250Y638150D03*
D16*
X379900Y666750D02*
X369400Y666750D01*
X369400Y681750D02*
X379900Y681750D01*
X379900Y696750D02*
X369400Y696750D01*
X369400Y711750D02*
X379900Y711750D01*
X375750Y171450D02*
X386250Y171450D01*
X386250Y156450D02*
X375750Y156450D01*
X375750Y141450D02*
X386250Y141450D01*
X386250Y126450D02*
X375750Y126450D01*
D17*
X762000Y626250D03*
D18*
X762000Y717750D03*
D17*
X749300Y626250D03*
X736600Y626250D03*
X774700Y626250D03*
X787400Y626250D03*
X800100Y626250D03*
X723900Y626250D03*
X488950Y626250D03*
D18*
X488950Y717750D03*
D17*
X476250Y626250D03*
X463550Y626250D03*
X501650Y626250D03*
X514350Y626250D03*
X527050Y626250D03*
X450850Y626250D03*
X755650Y161150D03*
D18*
X755650Y69650D03*
D17*
X768350Y161150D03*
X781050Y161150D03*
X742950Y161150D03*
X730250Y161150D03*
X717550Y161150D03*
X793750Y161150D03*
X495300Y161150D03*
D18*
X495300Y69650D03*
D17*
X508000Y161150D03*
X520700Y161150D03*
X482600Y161150D03*
X469900Y161150D03*
X457200Y161150D03*
X533400Y161150D03*
D19*
X336250Y41228D03*
X342750Y41228D03*
X349250Y41228D03*
X355750Y41228D03*
X362250Y41228D03*
D20*
X317250Y38978D03*
X381250Y38978D03*
D21*
X337250Y14478D03*
X361250Y14478D03*
D22*
X316250Y14478D03*
D23*
X382250Y14478D03*
D24*
X63500Y88900D03*
X38100Y88900D03*
X63500Y114300D03*
X38100Y114300D03*
X63500Y139700D03*
X38100Y139700D03*
X63500Y165100D03*
X38100Y165100D03*
X63500Y190500D03*
X38100Y190500D03*
D25*
X230800Y171450D03*
X251800Y171450D03*
X230800Y196850D03*
X251800Y196850D03*
D12*
X123800Y158750D03*
X104800Y158750D03*
D11*
X863600Y276200D03*
X863600Y257200D03*
X755650Y307950D03*
X755650Y288950D03*
D12*
X530200Y317500D03*
X511200Y317500D03*
D11*
X825500Y231750D03*
X825500Y212750D03*
X457200Y295250D03*
X457200Y276250D03*
X501650Y238100D03*
X501650Y219100D03*
X527050Y238100D03*
X527050Y219100D03*
X800100Y212750D03*
X800100Y231750D03*
D12*
X206350Y171450D03*
X187350Y171450D03*
X206350Y196850D03*
X187350Y196850D03*
X714400Y450850D03*
X733400Y450850D03*
D11*
X762000Y485800D03*
X762000Y504800D03*
X412750Y511150D03*
X412750Y492150D03*
X730250Y555650D03*
X730250Y574650D03*
X488950Y492150D03*
X488950Y511150D03*
X476250Y555650D03*
X476250Y574650D03*
X450850Y555650D03*
X450850Y574650D03*
X755650Y574650D03*
X755650Y555650D03*
D26*
X146050Y241300D03*
X146050Y190500D03*
X95250Y190500D03*
X95250Y241300D03*
D27*
X62230Y504500D03*
X62230Y496500D03*
X62230Y488500D03*
X62230Y480500D03*
X62230Y472500D03*
X62230Y464500D03*
X62230Y456500D03*
X62230Y448500D03*
X62230Y440500D03*
X62230Y432500D03*
X62230Y424500D03*
X62230Y416500D03*
X62230Y408500D03*
X62230Y400500D03*
X62230Y392500D03*
X62230Y384500D03*
D28*
X79700Y367030D03*
X87700Y367030D03*
X95700Y367030D03*
X103700Y367030D03*
X111700Y367030D03*
X119700Y367030D03*
X127700Y367030D03*
X135700Y367030D03*
X143700Y367030D03*
X151700Y367030D03*
X159700Y367030D03*
X167700Y367030D03*
X175700Y367030D03*
X183700Y367030D03*
X191700Y367030D03*
X199700Y367030D03*
D27*
X217170Y384500D03*
X217170Y392500D03*
X217170Y400500D03*
X217170Y408500D03*
X217170Y416500D03*
X217170Y424500D03*
X217170Y432500D03*
X217170Y440500D03*
X217170Y448500D03*
X217170Y456500D03*
X217170Y464500D03*
X217170Y472500D03*
X217170Y480500D03*
X217170Y488500D03*
X217170Y496500D03*
X217170Y504500D03*
D28*
X199700Y521970D03*
X191700Y521970D03*
X183700Y521970D03*
X175700Y521970D03*
X167700Y521970D03*
X159700Y521970D03*
X151700Y521970D03*
X143700Y521970D03*
X135700Y521970D03*
X127700Y521970D03*
X119700Y521970D03*
X111700Y521970D03*
X103700Y521970D03*
X95700Y521970D03*
X87700Y521970D03*
X79700Y521970D03*
D29*
X167300Y33600D03*
X173800Y33600D03*
X180300Y33600D03*
X186800Y33600D03*
X193300Y33600D03*
X199800Y33600D03*
X206300Y33600D03*
X212800Y33600D03*
X219300Y33600D03*
X225800Y33600D03*
X232300Y33600D03*
X238800Y33600D03*
X245300Y33600D03*
X251800Y33600D03*
X251800Y106100D03*
X245300Y106100D03*
X238800Y106100D03*
X232300Y106100D03*
X225800Y106100D03*
X219300Y106100D03*
X212800Y106100D03*
X206300Y106100D03*
X199800Y106100D03*
X193300Y106100D03*
X186800Y106100D03*
X180300Y106100D03*
X173800Y106100D03*
X167300Y106100D03*
D30*
X654050Y700700D02*
X654050Y721700D01*
X603250Y721700D02*
X603250Y700700D01*
X660400Y93050D02*
X660400Y72050D01*
X609600Y72050D02*
X609600Y93050D01*
D31*
X194310Y622300D03*
X97790Y622300D03*
D32*
X313550Y484124D03*
X336550Y484124D03*
X359550Y484124D03*
D33*
X336550Y544576D03*
D12*
X339700Y431800D03*
X320700Y431800D03*
D34*
X280700Y571500D03*
X252700Y571500D03*
D35*
X323850Y644950D03*
X323850Y586950D03*
D34*
X287050Y673100D03*
X259050Y673100D03*
X322550Y742950D03*
X350550Y742950D03*
D11*
X323850Y676300D03*
X323850Y695300D03*
X114300Y669950D03*
X114300Y688950D03*
X196850Y669950D03*
X196850Y688950D03*
D12*
X104800Y120650D03*
X123800Y120650D03*
X168300Y565150D03*
X187300Y565150D03*
D11*
X266700Y485750D03*
X266700Y466750D03*
X266700Y403200D03*
X266700Y384200D03*
X31750Y371450D03*
X31750Y352450D03*
D12*
X155550Y323850D03*
X136550Y323850D03*
X98400Y565150D03*
X79400Y565150D03*
D36*
X298450Y315800D03*
X275450Y315800D03*
X321450Y315800D03*
D37*
X298450Y253800D03*
D38*
X336550Y382300D03*
X336550Y354300D03*
D39*
X355600Y252700D03*
X355600Y280700D03*
D16*
X335450Y171450D02*
X324950Y171450D01*
X324950Y156450D02*
X335450Y156450D01*
X335450Y141450D02*
X324950Y141450D01*
X324950Y126450D02*
X335450Y126450D01*
X286300Y718650D02*
X286300Y729150D01*
X271300Y729150D02*
X271300Y718650D01*
X256300Y718650D02*
X256300Y729150D01*
X241300Y729150D02*
X241300Y718650D01*
X210100Y718650D02*
X210100Y729150D01*
X195100Y729150D02*
X195100Y718650D01*
X180100Y718650D02*
X180100Y729150D01*
X165100Y729150D02*
X165100Y718650D01*
X133900Y718650D02*
X133900Y729150D01*
X118900Y729150D02*
X118900Y718650D01*
X103900Y718650D02*
X103900Y729150D01*
X88900Y729150D02*
X88900Y718650D01*
X49700Y686350D02*
X39200Y686350D01*
X39200Y671350D02*
X49700Y671350D01*
X49700Y656350D02*
X39200Y656350D01*
X39200Y641350D02*
X49700Y641350D01*
X49700Y610150D02*
X39200Y610150D01*
X39200Y595150D02*
X49700Y595150D01*
X49700Y580150D02*
X39200Y580150D01*
X39200Y565150D02*
X49700Y565150D01*
X45550Y292650D02*
X56050Y292650D01*
X56050Y277650D02*
X45550Y277650D01*
X45550Y262650D02*
X56050Y262650D01*
X56050Y247650D02*
X45550Y247650D01*
D12*
X136500Y285750D03*
X117500Y285750D03*
D40*
X448310Y433250D03*
D41*
X425450Y367250D03*
D40*
X402590Y433250D03*
D12*
X492100Y444500D03*
X473100Y444500D03*
D30*
X827700Y349250D02*
X848700Y349250D01*
X848700Y400050D02*
X827700Y400050D01*
D42*
X101600Y546100D03*
X247650Y361950D03*
X152400Y120650D03*
X164841Y139441D03*
X177800Y241300D03*
X184150Y260350D03*
X334025Y231125D03*
X273050Y527050D03*
X260350Y534132D03*
X247650Y539524D03*
X234950Y527050D03*
X228600Y546100D03*
X222250Y565376D03*
X222250Y361950D03*
X222250Y349250D03*
X228600Y336550D03*
X234950Y317500D03*
X241300Y304800D03*
X247650Y292100D03*
X44450Y539750D03*
X44450Y520700D03*
M02*
